<svg width="384" height="83" viewBox="0 0 384 83" fill="none" xmlns="http://www.w3.org/2000/svg">
    <path d="M0 24C0 19.5817 3.58172 16 8 16H376C380.418 16 384 19.5817 384 24V82H0V24Z" fill="url(#paint0_linear_592_6714)"/>
    <path d="M25.4347 56V41.4545H28.0696V53.7912H34.4759V56H25.4347ZM36.6491 56V45.0909H39.2202V56H36.6491ZM37.9418 43.5426C37.5346 43.5426 37.1842 43.4077 36.8906 43.1378C36.5971 42.8632 36.4503 42.5341 36.4503 42.1506C36.4503 41.7623 36.5971 41.4332 36.8906 41.1634C37.1842 40.8887 37.5346 40.7514 37.9418 40.7514C38.3537 40.7514 38.7041 40.8887 38.9929 41.1634C39.2865 41.4332 39.4332 41.7623 39.4332 42.1506C39.4332 42.5341 39.2865 42.8632 38.9929 43.1378C38.7041 43.4077 38.3537 43.5426 37.9418 43.5426ZM37.956 59.9276C37.544 59.9276 37.1913 59.7902 36.8977 59.5156C36.6089 59.241 36.4645 58.9119 36.4645 58.5284C36.4645 58.1449 36.6089 57.8158 36.8977 57.5412C37.1913 57.2666 37.5417 57.1293 37.9489 57.1293C38.3608 57.1293 38.7112 57.2666 39 57.5412C39.2936 57.8158 39.4403 58.1449 39.4403 58.5284C39.4403 58.9119 39.2936 59.241 39 59.5156C38.7112 59.7902 38.3632 59.9276 37.956 59.9276ZM46.6225 56.2131C45.5335 56.2131 44.5984 55.974 43.8171 55.4957C43.0406 55.0175 42.4416 54.357 42.0202 53.5142C41.6036 52.6667 41.3952 51.6913 41.3952 50.5881C41.3952 49.4801 41.6083 48.5024 42.0344 47.6548C42.4606 46.8026 43.0619 46.1397 43.8384 45.6662C44.6197 45.188 45.543 44.9489 46.6083 44.9489C47.4937 44.9489 48.2773 45.1122 48.9592 45.4389C49.6457 45.7609 50.1926 46.2178 50.5998 46.8097C51.007 47.3968 51.239 48.0833 51.2958 48.8693H48.8384C48.739 48.3437 48.5022 47.9058 48.1282 47.5554C47.7589 47.2003 47.2641 47.0227 46.6438 47.0227C46.1183 47.0227 45.6566 47.1648 45.2589 47.4489C44.8612 47.7282 44.551 48.1307 44.3285 48.6562C44.1107 49.1818 44.0018 49.8116 44.0018 50.5455C44.0018 51.2888 44.1107 51.928 44.3285 52.4631C44.5463 52.9934 44.8517 53.4029 45.2447 53.6918C45.6424 53.9759 46.1088 54.1179 46.6438 54.1179C47.0226 54.1179 47.3612 54.0469 47.6594 53.9048C47.9625 53.758 48.2158 53.5473 48.4194 53.2727C48.623 52.9981 48.7627 52.6643 48.8384 52.2713H51.2958C51.2343 53.0431 51.007 53.7273 50.614 54.3239C50.221 54.9157 49.686 55.3797 49.0089 55.7159C48.3318 56.0473 47.5363 56.2131 46.6225 56.2131ZM55.978 49.608V56H53.407V41.4545H55.9212V46.9446H56.049C56.3047 46.3291 56.7 45.8437 57.2351 45.4886C57.7749 45.1288 58.4614 44.9489 59.2947 44.9489C60.0523 44.9489 60.7128 45.1075 61.2763 45.4247C61.8397 45.742 62.2753 46.206 62.5831 46.8168C62.8956 47.4276 63.0518 48.1733 63.0518 49.054V56H60.4808V49.4517C60.4808 48.7178 60.2914 48.1473 59.9126 47.7401C59.5386 47.3281 59.013 47.1222 58.3359 47.1222C57.8814 47.1222 57.4742 47.2216 57.1143 47.4205C56.7592 47.6146 56.4799 47.8963 56.2763 48.2656C56.0774 48.6349 55.978 49.0824 55.978 49.608ZM70.7472 56V41.4545H76.2017C77.3191 41.4545 78.2566 41.6629 79.0142 42.0795C79.7765 42.4962 80.3518 43.0691 80.7401 43.7983C81.133 44.5227 81.3295 45.3466 81.3295 46.2699C81.3295 47.2027 81.133 48.0312 80.7401 48.7557C80.3471 49.4801 79.767 50.0507 79 50.4673C78.233 50.8793 77.2884 51.0852 76.1662 51.0852H72.5511V48.919H75.8111C76.4645 48.919 76.9995 48.8054 77.4162 48.5781C77.8329 48.3509 78.1406 48.0384 78.3395 47.6406C78.5431 47.2429 78.6449 46.786 78.6449 46.2699C78.6449 45.7538 78.5431 45.2992 78.3395 44.9062C78.1406 44.5133 77.8305 44.2079 77.4091 43.9901C76.9924 43.7675 76.455 43.6562 75.7969 43.6562H73.3821V56H70.7472ZM86.0756 49.608V56H83.5046V41.4545H86.0188V46.9446H86.1467C86.4023 46.3291 86.7977 45.8437 87.3327 45.4886C87.8725 45.1288 88.5591 44.9489 89.3924 44.9489C90.15 44.9489 90.8105 45.1075 91.3739 45.4247C91.9374 45.742 92.373 46.206 92.6808 46.8168C92.9933 47.4276 93.1495 48.1733 93.1495 49.054V56H90.5785V49.4517C90.5785 48.7178 90.3891 48.1473 90.0103 47.7401C89.6362 47.3281 89.1107 47.1222 88.4336 47.1222C87.979 47.1222 87.5719 47.2216 87.212 47.4205C86.8569 47.6146 86.5775 47.8963 86.3739 48.2656C86.1751 48.6349 86.0756 49.0824 86.0756 49.608ZM98.9094 56.2202C98.2182 56.2202 97.5955 56.0971 97.0415 55.8509C96.4923 55.5999 96.0567 55.2306 95.7347 54.7429C95.4175 54.2552 95.2589 53.6539 95.2589 52.9389C95.2589 52.3234 95.3725 51.8144 95.5998 51.4119C95.8271 51.0095 96.1372 50.6875 96.5302 50.446C96.9232 50.2045 97.3659 50.0223 97.8583 49.8991C98.3555 49.7713 98.8692 49.679 99.3995 49.6222C100.039 49.5559 100.557 49.4967 100.955 49.4446C101.353 49.3878 101.641 49.3026 101.821 49.1889C102.006 49.0705 102.098 48.8883 102.098 48.642V48.5994C102.098 48.0644 101.94 47.6501 101.623 47.3565C101.305 47.063 100.848 46.9162 100.252 46.9162C99.622 46.9162 99.1225 47.0535 98.7532 47.3281C98.3886 47.6027 98.1424 47.9271 98.0146 48.3011L95.614 47.9602C95.8034 47.2973 96.1159 46.7434 96.5515 46.2983C96.9871 45.8485 97.5198 45.5123 98.1495 45.2898C98.7792 45.0625 99.4753 44.9489 100.238 44.9489C100.763 44.9489 101.286 45.0104 101.807 45.1335C102.328 45.2566 102.804 45.4602 103.235 45.7443C103.666 46.0237 104.011 46.4048 104.272 46.8878C104.537 47.3707 104.669 47.9744 104.669 48.6989V56H102.198V54.5014H102.113C101.956 54.8045 101.736 55.0885 101.452 55.3537C101.173 55.6141 100.82 55.8248 100.394 55.9858C99.9724 56.142 99.4776 56.2202 98.9094 56.2202ZM99.5771 54.331C100.093 54.331 100.541 54.2292 100.919 54.0256C101.298 53.8172 101.589 53.5426 101.793 53.2017C102.001 52.8608 102.105 52.4891 102.105 52.0866V50.8011C102.025 50.8674 101.888 50.929 101.694 50.9858C101.504 51.0426 101.291 51.0923 101.054 51.1349C100.818 51.1776 100.583 51.2154 100.351 51.2486C100.119 51.2817 99.918 51.3101 99.7475 51.3338C99.364 51.3859 99.0207 51.4711 98.7177 51.5895C98.4147 51.7079 98.1755 51.8736 98.0004 52.0866C97.8252 52.295 97.7376 52.5649 97.7376 52.8963C97.7376 53.3698 97.9104 53.7273 98.256 53.9688C98.6017 54.2102 99.042 54.331 99.5771 54.331ZM101.793 43.7841L100.351 41.9659L98.9094 43.7841H96.658V43.6847L99.3498 40.6165H101.36L104.044 43.6847V43.7841H101.793ZM100.252 59.9276C99.8398 59.9276 99.4871 59.7902 99.1935 59.5156C98.9047 59.241 98.7603 58.9119 98.7603 58.5284C98.7603 58.1449 98.9047 57.8158 99.1935 57.5412C99.4871 57.2666 99.8375 57.1293 100.245 57.1293C100.657 57.1293 101.007 57.2666 101.296 57.5412C101.589 57.8158 101.736 58.1449 101.736 58.5284C101.736 58.9119 101.589 59.241 101.296 59.5156C101.007 59.7902 100.659 59.9276 100.252 59.9276ZM112.702 45.0909V47.0795H106.431V45.0909H112.702ZM107.979 42.4773H110.55V52.7188C110.55 53.0644 110.602 53.3295 110.706 53.5142C110.815 53.6941 110.957 53.8172 111.132 53.8835C111.308 53.9498 111.502 53.983 111.715 53.983C111.876 53.983 112.023 53.9711 112.155 53.9474C112.292 53.9238 112.397 53.9025 112.468 53.8835L112.901 55.8935C112.764 55.9408 112.567 55.9929 112.311 56.0497C112.06 56.1065 111.753 56.1397 111.388 56.1491C110.744 56.1681 110.164 56.071 109.648 55.858C109.132 55.6402 108.722 55.304 108.419 54.8494C108.121 54.3949 107.974 53.8267 107.979 53.1449V42.4773ZM129.671 46.0994C129.553 45.7159 129.389 45.3726 129.181 45.0696C128.978 44.7618 128.731 44.4991 128.442 44.2812C128.158 44.0634 127.832 43.9001 127.462 43.7912C127.093 43.6776 126.691 43.6207 126.255 43.6207C125.474 43.6207 124.778 43.8172 124.167 44.2102C123.556 44.6032 123.076 45.1809 122.725 45.9432C122.379 46.7008 122.207 47.6241 122.207 48.7131C122.207 49.8116 122.379 50.742 122.725 51.5043C123.071 52.2666 123.551 52.8466 124.167 53.2443C124.782 53.6373 125.497 53.8338 126.312 53.8338C127.05 53.8338 127.69 53.6918 128.229 53.4077C128.774 53.1236 129.193 52.7211 129.487 52.2003C129.78 51.6747 129.927 51.0592 129.927 50.3537L130.523 50.446H126.575V48.3864H132.477V50.1335C132.477 51.3788 132.211 52.456 131.681 53.3651C131.151 54.2741 130.422 54.9749 129.494 55.4673C128.566 55.955 127.5 56.1989 126.298 56.1989C124.958 56.1989 123.781 55.8982 122.768 55.2969C121.759 54.6908 120.971 53.8314 120.403 52.7188C119.839 51.6013 119.558 50.2756 119.558 48.7415C119.558 47.5672 119.723 46.5185 120.055 45.5952C120.391 44.6719 120.86 43.8883 121.461 43.2443C122.062 42.5956 122.768 42.1032 123.577 41.767C124.387 41.4261 125.268 41.2557 126.219 41.2557C127.024 41.2557 127.775 41.3741 128.471 41.6108C129.167 41.8428 129.785 42.1742 130.325 42.6051C130.869 43.036 131.317 43.5473 131.667 44.1392C132.017 44.7311 132.247 45.3845 132.356 46.0994H129.671ZM135.594 56V45.0909H138.165V56H135.594ZM136.887 43.5426C136.48 43.5426 136.129 43.4077 135.836 43.1378C135.542 42.8632 135.396 42.5341 135.396 42.1506C135.396 41.7623 135.542 41.4332 135.836 41.1634C136.129 40.8887 136.48 40.7514 136.887 40.7514C137.299 40.7514 137.649 40.8887 137.938 41.1634C138.232 41.4332 138.379 41.7623 138.379 42.1506C138.379 42.5341 138.232 42.8632 137.938 43.1378C137.649 43.4077 137.299 43.5426 136.887 43.5426ZM143.949 56.2202C143.257 56.2202 142.635 56.0971 142.081 55.8509C141.531 55.5999 141.096 55.2306 140.774 54.7429C140.457 54.2552 140.298 53.6539 140.298 52.9389C140.298 52.3234 140.412 51.8144 140.639 51.4119C140.866 51.0095 141.176 50.6875 141.569 50.446C141.962 50.2045 142.405 50.0223 142.897 49.8991C143.395 49.7713 143.908 49.679 144.439 49.6222C145.078 49.5559 145.596 49.4967 145.994 49.4446C146.392 49.3878 146.681 49.3026 146.86 49.1889C147.045 49.0705 147.137 48.8883 147.137 48.642V48.5994C147.137 48.0644 146.979 47.6501 146.662 47.3565C146.344 47.063 145.887 46.9162 145.291 46.9162C144.661 46.9162 144.162 47.0535 143.792 47.3281C143.428 47.6027 143.181 47.9271 143.054 48.3011L140.653 47.9602C140.842 47.2973 141.155 46.7434 141.591 46.2983C142.026 45.8485 142.559 45.5123 143.189 45.2898C143.818 45.0625 144.514 44.9489 145.277 44.9489C145.802 44.9489 146.325 45.0104 146.846 45.1335C147.367 45.2566 147.843 45.4602 148.274 45.7443C148.705 46.0237 149.05 46.4048 149.311 46.8878C149.576 47.3707 149.708 47.9744 149.708 48.6989V56H147.237V54.5014H147.152C146.995 54.8045 146.775 55.0885 146.491 55.3537C146.212 55.6141 145.859 55.8248 145.433 55.9858C145.011 56.142 144.517 56.2202 143.949 56.2202ZM144.616 54.331C145.132 54.331 145.58 54.2292 145.958 54.0256C146.337 53.8172 146.628 53.5426 146.832 53.2017C147.04 52.8608 147.145 52.4891 147.145 52.0866V50.8011C147.064 50.8674 146.927 50.929 146.733 50.9858C146.543 51.0426 146.33 51.0923 146.093 51.1349C145.857 51.1776 145.622 51.2154 145.39 51.2486C145.158 51.2817 144.957 51.3101 144.787 51.3338C144.403 51.3859 144.06 51.4711 143.757 51.5895C143.454 51.7079 143.215 51.8736 143.039 52.0866C142.864 52.295 142.777 52.5649 142.777 52.8963C142.777 53.3698 142.949 53.7273 143.295 53.9688C143.641 54.2102 144.081 54.331 144.616 54.331ZM144.403 43.6562L145.994 40.4105H148.508L146.328 43.6562H144.403ZM157.052 56.2131C155.987 56.2131 155.064 55.9787 154.282 55.5099C153.501 55.0412 152.895 54.3854 152.464 53.5426C152.038 52.6998 151.825 51.715 151.825 50.5881C151.825 49.4612 152.038 48.474 152.464 47.6264C152.895 46.7789 153.501 46.1207 154.282 45.652C155.064 45.1832 155.987 44.9489 157.052 44.9489C158.118 44.9489 159.041 45.1832 159.822 45.652C160.603 46.1207 161.207 46.7789 161.633 47.6264C162.064 48.474 162.279 49.4612 162.279 50.5881C162.279 51.715 162.064 52.6998 161.633 53.5426C161.207 54.3854 160.603 55.0412 159.822 55.5099C159.041 55.9787 158.118 56.2131 157.052 56.2131ZM157.066 54.1534C157.644 54.1534 158.127 53.9948 158.515 53.6776C158.904 53.3556 159.192 52.9247 159.382 52.3849C159.576 51.8452 159.673 51.2438 159.673 50.581C159.673 49.9134 159.576 49.3097 159.382 48.7699C159.192 48.2254 158.904 47.7921 158.515 47.4702C158.127 47.1482 157.644 46.9872 157.066 46.9872C156.475 46.9872 155.982 47.1482 155.589 47.4702C155.201 47.7921 154.91 48.2254 154.716 48.7699C154.526 49.3097 154.431 49.9134 154.431 50.581C154.431 51.2438 154.526 51.8452 154.716 52.3849C154.91 52.9247 155.201 53.3556 155.589 53.6776C155.982 53.9948 156.475 54.1534 157.066 54.1534Z" fill="#CD673C"/>
    <g clip-path="url(#clip0_592_6714)">
        <path d="M317.387 61.506C317.387 61.506 303.287 57.3826 302.673 57.2606H282.566C281.953 57.3826 267.853 61.506 267.853 61.506C267.853 61.506 257.678 62.5063 259.024 69.6984C260.351 76.774 275.877 78.0699 292.618 73.5859C309.359 78.0699 324.885 76.774 326.212 69.6984C327.562 62.5036 317.384 61.506 317.384 61.506H317.387Z" fill="#E68E67"/>
        <path d="M271.584 65.3555C270.472 65.8435 268.305 66.5483 266.825 69.178" stroke="#893611" stroke-width="0.330851" stroke-linecap="round" stroke-linejoin="round"/>
        <path d="M270.172 65.2932C268.12 65.2118 266.204 64.7211 264.413 66.3071" stroke="#893611" stroke-width="0.330851" stroke-linecap="round" stroke-linejoin="round"/>
        <path d="M294.728 60.5544C297.009 60.98 301.101 58.8221 301.828 58.3233" stroke="#893611" stroke-width="0.330851" stroke-linecap="round" stroke-linejoin="round"/>
        <path d="M300.648 12.961C300.417 12.2345 299.637 11.6516 298.86 11.8387C299.209 1.71597 290.721 3.085 290.721 3.085C285.398 3.54315 284.79 9.17108 284.831 12.0366C284.659 11.9362 284.499 11.8631 284.409 11.8414C283.629 11.6489 282.844 12.2317 282.612 12.961C282.427 13.5411 282.926 13.8746 283.258 14.3842C283.536 14.8099 283.613 15.531 284.095 15.7126C284.204 15.7533 284.657 15.8319 285.025 15.821C285.848 22.433 291.872 21.7824 291.872 21.7824C297.094 22.0399 298.451 18.4127 298.754 15.7912C298.947 15.7668 299.108 15.7343 299.168 15.7126C299.648 15.531 300.1 15.1352 300.376 14.7095C300.708 14.1972 300.836 13.5411 300.648 12.961Z" fill="#FBC5B0"/>
        <path d="M291.98 10.6703C292.067 11.0471 292.13 11.424 292.201 11.7926C292.274 12.164 292.342 12.5327 292.449 12.8824C292.473 12.9719 292.501 13.0559 292.533 13.14C292.558 13.2078 292.621 13.3406 292.618 13.4626C292.631 13.712 292.471 13.9587 292.263 14.0563C292.054 14.1729 291.811 14.1539 291.62 14.0915C291.427 14.021 291.258 13.918 291.11 13.7879C291.465 13.9207 291.876 14.0238 292.124 13.8367C292.25 13.7418 292.318 13.6171 292.299 13.4789C292.293 13.4084 292.272 13.365 292.225 13.2566C292.187 13.1617 292.154 13.0695 292.124 12.9746C292.015 12.5924 291.961 12.2074 291.939 11.8225C291.917 11.4375 291.925 11.0526 291.975 10.6676L291.98 10.6703Z" fill="#893611"/>
        <path d="M284.852 11.9444C284.408 11.2856 283.44 11.0444 282.734 11.413C282.028 11.7817 281.685 12.7143 281.979 13.4517C282.173 13.9315 282.579 14.2894 282.952 14.6499C283.326 15.0105 283.694 15.428 283.77 15.9403C283.836 16.3795 283.686 16.881 283.945 17.2416C284.154 17.5317 284.588 17.6103 284.915 17.4639C285.242 17.3175 285.463 16.9868 285.539 16.637C285.569 16.5015 285.621 16.3253 285.757 16.328" fill="#FBC5B0"/>
        <path d="M298.62 11.9444C299.064 11.2856 300.032 11.0444 300.738 11.413C301.444 11.7817 301.787 12.7143 301.493 13.4517C301.299 13.9315 300.893 14.2894 300.52 14.6499C300.146 15.0105 299.778 15.428 299.702 15.9403C299.636 16.3795 299.786 16.881 299.527 17.2416C299.318 17.5317 298.884 17.6103 298.557 17.4639C298.23 17.3175 298.009 16.9868 297.933 16.637C297.903 16.5015 297.851 16.3253 297.715 16.328" fill="#FBC5B0"/>
        <path d="M283.255 12.6655C283.65 12.3239 284.326 12.3483 284.718 12.7197C284.931 12.923 285.018 13.2213 285.032 13.4896C285.045 14.2514 284.443 14.8505 284.438 15.5771C284.421 15.6855 284.438 15.737 284.489 15.8075C284.74 16.0732 285.043 15.7939 285.157 15.4768C285.144 15.7343 285.043 16.0379 284.746 16.1084C284.429 16.1952 284.089 15.8915 284.116 15.5716C284.021 14.8288 284.585 14.1863 284.642 13.4951C284.71 12.7712 283.857 12.4188 283.249 12.6628L283.255 12.6655Z" fill="#893611"/>
        <path d="M300.463 12.6655C299.855 12.4215 299.002 12.7739 299.07 13.4978C299.078 13.9532 299.383 14.349 299.506 14.8044C299.585 15.1325 299.656 15.4686 299.555 15.8021C299.468 16.0298 299.195 16.1653 298.969 16.1084C298.672 16.0379 298.568 15.7343 298.557 15.4767C298.672 15.7939 298.974 16.0759 299.225 15.8075C299.277 15.737 299.293 15.6855 299.277 15.577C299.272 14.8478 298.669 14.2514 298.683 13.4896C298.696 13.2212 298.784 12.923 298.996 12.7197C299.391 12.3456 300.065 12.3239 300.46 12.6655H300.463Z" fill="#893611"/>
        <path d="M301.67 27.7818C300.866 27.0308 299.784 26.6377 298.683 26.5998C297.985 26.5754 297.38 26.4669 296.851 26.3043C296.497 25.8949 296.197 25.388 295.938 24.713C295.736 24.1843 295.616 23.6259 295.564 23.0647C295.515 22.5496 295.502 22.0481 295.545 21.6143C295.581 21.2213 295.665 20.8824 295.815 20.633L291.92 18.654L287.818 19.958C287.921 20.1287 288.03 20.6628 288.101 21.1074C288.134 21.5628 288.14 22.2189 288.112 22.8587C288.077 23.7045 287.889 24.5449 287.513 25.3039C287.316 25.6997 287.098 26.0251 286.856 26.307C286.327 26.4697 285.719 26.5781 285.019 26.6025C283.917 26.6404 282.838 27.0335 282.034 27.7845C280.911 28.8336 279.946 30.8045 280.578 34.4832C281.846 41.8434 282.993 48.5205 282.508 53.0044H301.201C300.716 48.5205 301.863 41.8407 303.131 34.4832C303.763 30.8045 302.798 28.8336 301.675 27.7845L301.67 27.7818ZM288.167 21.6089L288.134 21.3351C288.148 21.4408 288.161 21.5384 288.167 21.6089Z" fill="#FBC5B0"/>
        <path d="M288.085 20.9366C288.085 20.9366 290.737 22.7936 295.632 21.0803C295.632 21.0803 291.805 26.6187 288.085 20.9366Z" fill="#893611"/>
        <path d="M281.227 27.8523C280.102 28.587 278.919 29.8557 277.861 31.9838C276.646 34.4236 274.31 39.1298 271.772 46.7341C271.281 48.0434 271.344 50.7815 272.497 51.9282C274.067 53.4897 277.158 52.9611 279.041 49.8272C282.121 43.1881 284.452 37.4653 285.526 35.1393C286.188 33.708 286.573 32.5206 286.772 31.5365C287.434 28.2291 284.092 25.9736 281.227 27.8523Z" fill="#FBC5B0"/>
        <path d="M303.736 32.2278C303.294 36.0963 300.514 52.6168 302.294 57.6402C295.662 59.8388 288.69 59.893 281.355 57.6402C281.355 57.6402 281.639 54.2271 281.674 50.0414C281.685 48.816 281.674 47.5256 281.631 46.2325C281.557 44.118 281.393 42.0034 281.077 40.1817C280.374 36.1207 279.905 32.7862 280.243 30.4494C280.491 28.7279 281.783 27.3318 283.479 26.898C284.285 26.692 287.096 25.9248 287.18 25.8733L291.517 30.5687L296.521 25.876C297.764 26.2745 304.415 26.2826 303.733 32.225L303.736 32.2278Z" fill="#FBC5B0"/>
        <path d="M302.594 27.8523C303.72 28.587 304.903 29.8557 305.96 31.9838C307.176 34.4236 309.512 39.1298 312.049 46.7341C312.54 48.0434 312.477 50.7815 311.324 51.9282C309.754 53.4897 306.664 52.9611 304.78 49.8272C301.7 43.1881 299.37 37.4653 298.296 35.1393C297.633 33.708 297.249 32.5206 297.05 31.5365C296.388 28.2291 299.729 25.9736 302.594 27.8523Z" fill="#E68E67"/>
        <path d="M304.219 29.2999C303.777 33.1684 301.817 48.938 303.003 57.6402C303.003 57.6402 301.648 60.3294 292.678 60.3294C283.708 60.3294 280.461 57.9302 280.461 57.9302C280.802 55.6368 281.448 42.2013 281.448 42.2013C281.644 42.0522 289.841 39.241 296.518 25.8814C298.664 25.8814 302.425 27.0417 304.216 29.3026L304.219 29.2999Z" fill="#E68E67"/>
        <path d="M281.132 58.1553C283.204 58.7517 285.374 58.9523 287.524 59.0092" stroke="#893611" stroke-width="0.330851" stroke-linecap="round" stroke-linejoin="round"/>
        <path d="M292.937 34.8221C291.593 37.7608 287.654 43.0932 284.326 45.4003" stroke="#893611" stroke-width="0.330851" stroke-linecap="round" stroke-linejoin="round"/>
        <path d="M297.492 27.7276C294.794 35.7818 288.517 49.7242 284.262 55.138" stroke="#893611" stroke-width="0.330851" stroke-linecap="round" stroke-linejoin="round"/>
        <path d="M299.829 29.6198C297.676 34.5022 297.523 41.2227 288.795 59.5243" stroke="#893611" stroke-width="0.330851" stroke-linecap="round" stroke-linejoin="round"/>
        <path d="M301.644 34.4344C301.437 35.2586 299.502 48.4446 295.089 58.7408" stroke="#893611" stroke-width="0.330851" stroke-linecap="round" stroke-linejoin="round"/>
        <path d="M287 55.1379C283.171 51.6652 277.828 45.5303 274.001 46.593C272.995 46.8722 272.355 47.1081 271.766 48.309C271 49.8705 273.069 52.3077 273.094 52.3239C275.634 54.0779 280.393 56.6099 284.285 58.4886C285.746 57.0952 286.33 57.0057 287 55.1379Z" fill="#FBC5B0"/>
        <path d="M296.519 55.1379C300.348 51.6652 305.691 45.5303 309.518 46.593C310.523 46.8722 311.164 47.1081 311.753 48.309C312.519 49.8705 310.45 52.3077 310.425 52.3239C307.885 54.0779 303.126 56.6099 299.233 58.4886C297.772 57.0952 297.189 57.0057 296.519 55.1379Z" fill="#FBC5B0"/>
        <path d="M312.216 47.3385C311.728 46.0915 310.905 46.8723 309.899 46.593C307.67 45.9749 304.688 47.2843 301.829 49.1739C304.331 50.3775 306.252 52.6357 307.163 55.2518C308.706 54.2 310.101 53.2132 311.153 52.4866C312.475 51.4782 313.173 49.7784 312.216 47.3385Z" fill="#E68E67"/>
        <path d="M303.126 35.0064C303.115 35.0986 302.75 45.3243 302.75 45.3487" stroke="#893611" stroke-width="0.330851" stroke-linecap="round" stroke-linejoin="round"/>
        <path d="M281.285 34.3098C281.295 34.402 281.448 42.2312 281.448 42.2583" stroke="#893611" stroke-width="0.330851" stroke-linecap="round" stroke-linejoin="round"/>
        <path d="M300.471 57.6808C298.634 56.0868 298.462 55.9349 297.977 55.0376C297.729 54.5795 297.187 54.5334 296.906 54.5334C295.614 55.0918 296.148 55.7723 292.888 55.9377C292.305 55.9675 291.525 56.0569 291.525 56.6452C291.525 57.4964 293.071 57.5208 293.924 57.5208C294.213 57.5208 294.499 57.51 294.785 57.4964C294.785 57.5127 294.785 57.5263 294.785 57.5425C294.785 58.5429 293.03 58.8573 292.089 58.8573C290.966 58.8573 290.211 58.307 289.347 58.307C289.157 58.307 288.982 58.3504 288.982 58.5239C288.982 59.8821 294.24 60.5978 295.715 60.5978C297.429 60.5978 299.574 58.6107 300.468 57.6808H300.471Z" fill="#FBC5B0"/>
        <path d="M283.923 58.2365C285.76 56.6425 285.932 56.4907 286.417 55.5933C286.665 55.1352 287.208 55.0891 287.488 55.0891C288.677 55.0891 288.246 56.328 291.506 56.4934C292.089 56.5232 292.869 56.6127 292.869 57.2009C292.869 58.0522 291.323 58.0766 290.47 58.0766C290.181 58.0766 289.895 58.0657 289.609 58.0522C289.609 58.0684 289.609 58.082 289.609 58.0983C289.609 59.0986 291.364 59.4131 292.302 59.4131C293.425 59.4131 294.18 58.8655 295.044 58.8655C295.235 58.8655 295.409 58.9088 295.409 59.0823C295.409 60.4405 290.151 61.1562 288.677 61.1562C286.962 61.1562 284.817 59.1691 283.923 58.2392V58.2365Z" fill="#FBC5B0"/>
        <path d="M303.897 47.8943C304.382 47.8346 304.919 47.7397 305.429 47.7397C306.268 47.7397 307.35 48.1111 308.094 48.5042" stroke="#893611" stroke-width="0.330851" stroke-linecap="round" stroke-linejoin="round"/>
        <path d="M303.897 47.8482C304.802 48.6832 305.723 49.3663 306.366 50.4426" stroke="#893611" stroke-width="0.330851" stroke-linecap="round" stroke-linejoin="round"/>
        <path d="M304.142 45.1237C305.099 44.0421 306.432 43.4999 307.092 42.1336C306.552 41.6646 305.846 41.5751 305.134 41.5073C305.241 40.9922 306.71 39.5798 307.094 39.2274" stroke="#893611" stroke-width="0.330851" stroke-linecap="round" stroke-linejoin="round"/>
        <path d="M303.54 30.5497C304.739 31.0214 305.661 32.282 306.288 33.3474" stroke="#893611" stroke-width="0.330851" stroke-linecap="round" stroke-linejoin="round"/>
        <path d="M303.807 32.2115C304.156 33.1034 304.456 33.9872 304.559 34.9414" stroke="#893611" stroke-width="0.330851" stroke-linecap="round" stroke-linejoin="round"/>
        <path d="M302.946 30.2894C302.575 29.7717 302.158 29.3379 301.7 28.8933" stroke="#893611" stroke-width="0.330851" stroke-linecap="round" stroke-linejoin="round"/>
        <path d="M302.177 30.6446H301.049" stroke="#893611" stroke-width="0.330851" stroke-linecap="round" stroke-linejoin="round"/>
        <path d="M290.141 9.0302C289.846 8.75098 289.347 8.77809 288.963 8.8323C288.562 8.88923 288.17 9.07087 287.87 9.33925C287.764 9.43413 287.786 9.5751 287.878 9.66999C288.014 9.80553 288.224 9.74047 288.396 9.72421C288.835 9.68354 289.271 9.62661 289.707 9.5507C289.958 9.50733 290.465 9.33925 290.141 9.03291V9.0302Z" fill="#893611"/>
        <path d="M293.719 9.0302C294.013 8.75098 294.512 8.77809 294.897 8.8323C295.297 8.88923 295.69 9.07087 295.99 9.33925C296.096 9.43413 296.074 9.5751 295.981 9.66999C295.845 9.80553 295.635 9.74047 295.464 9.72421C295.025 9.68354 294.589 9.62661 294.153 9.5507C293.902 9.50733 293.395 9.33925 293.719 9.03291V9.0302Z" fill="#893611"/>
        <path d="M287.587 11.4376C288.238 11.6897 288.876 11.9987 289.478 11.5053C289.661 11.3725 289.827 11.1881 290.021 10.9821C290.062 12.4894 288.17 12.7795 287.587 11.4376Z" fill="#893611"/>
        <path d="M296.148 11.4376C295.565 12.7822 293.673 12.4894 293.714 10.9821C293.908 11.1881 294.071 11.3725 294.257 11.5053C294.859 11.996 295.494 11.687 296.148 11.4376Z" fill="#893611"/>
        <path d="M290.56 15.4741C290.802 15.4171 291.042 15.4036 291.279 15.3982C291.517 15.3982 291.735 15.3927 291.964 15.3819C292.19 15.3711 292.413 15.3548 292.642 15.3358C292.871 15.3196 293.103 15.2952 293.354 15.2897C293.163 15.4497 292.939 15.5608 292.708 15.6422C292.473 15.7208 292.231 15.7669 291.983 15.7777C291.737 15.7885 291.481 15.7669 291.252 15.7072C291.02 15.6476 290.789 15.5798 290.563 15.4714L290.56 15.4741Z" fill="#893611"/>
        <path d="M286.325 63.1949L283.057 62.566C283.057 62.566 280.358 59.2559 278.399 60.6059C276.436 61.956 269.938 62.9211 268.346 63.2301C266.752 63.5392 266.506 65.7351 268.346 65.6131C269.017 65.5697 274.907 65.445 280.238 66.7273C283.643 67.546 287.222 68.6303 290.392 69.6768C289.206 67.4186 287.884 65.2335 286.328 63.1922L286.325 63.1949Z" fill="#FBC5B0"/>
        <path d="M314.863 64.8458C316.517 65.0166 319.507 66.3884 320.447 67.9715" stroke="#893611" stroke-width="0.330851" stroke-linecap="round" stroke-linejoin="round"/>
        <path d="M313.45 64.8458C315.206 66.0739 316.013 67.9716 316.43 70.021" stroke="#893611" stroke-width="0.330851" stroke-linecap="round" stroke-linejoin="round"/>
        <path d="M317.905 63.2301C316.31 62.9211 309.812 61.956 307.852 60.6059C305.89 59.2559 303.194 62.566 303.194 62.566L294.695 64.2034C297.882 64.751 301.03 65.998 303.979 67.0309C304.094 67.0716 304.208 67.1122 304.322 67.1529C304.889 67.0065 305.454 66.8628 306.012 66.73C311.344 65.4477 317.234 65.5724 317.905 65.6158C319.744 65.7378 319.499 63.5419 317.905 63.2329V63.2301Z" fill="#FBC5B0"/>
        <path d="M296.466 71.5012L287.395 70.4249C287.376 70.452 282.462 78.2352 279.074 81.5913C280.063 81.0003 281.115 80.5584 282.23 80.5584C284.784 80.5584 285.599 82.7326 287.425 82.7326C289.251 82.7326 289.965 80.1843 292.8 80.1843C294.962 80.1843 296.229 82.0441 296.998 82.0441C298.102 82.0441 299.203 80.2467 301.402 80.2467C303.152 80.2467 304.913 80.9461 306.614 81.6238C303.823 77.7526 299.383 75.2504 296.469 71.5012H296.466Z" fill="#E68E67"/>
        <path d="M284.087 79.1949C285.512 76.587 286.99 73.9682 288.178 71.2437" stroke="#893611" stroke-width="0.330851" stroke-linecap="round" stroke-linejoin="round"/>
        <path d="M288.445 77.9181C288.617 77.2322 288.652 75.8957 290.32 71.1922" stroke="#893611" stroke-width="0.330851" stroke-linecap="round" stroke-linejoin="round"/>
        <path d="M291.972 72.4989C292.122 73.8679 293.659 78.6419 294.153 79.5175" stroke="#893611" stroke-width="0.330851" stroke-linecap="round" stroke-linejoin="round"/>
        <path d="M294.472 72.7537C295.02 73.8245 298.067 78.2027 299.067 79.0106" stroke="#893611" stroke-width="0.330851" stroke-linecap="round" stroke-linejoin="round"/>
        <path d="M291.141 71.1949C290.106 68.6114 288.645 65.5399 286.238 62.9265C289.302 63.2464 297.928 64.8838 307.321 67.9418" stroke="#893611" stroke-width="0.330851" stroke-linecap="round" stroke-linejoin="round"/>
        <path d="M277.613 48.1221C278.417 48.1221 279.08 48.2007 279.829 48.4664" stroke="#893611" stroke-width="0.330851" stroke-linecap="round" stroke-linejoin="round"/>
        <path d="M285.564 70.3654C281.718 72.9353 281.331 73.304 277.7 74.2664" stroke="#893611" stroke-width="0.330851" stroke-linecap="round" stroke-linejoin="round"/>
        <path d="M279.898 70.1485C277.071 71.2275 274.135 72.0543 271.35 73.2417" stroke="#893611" stroke-width="0.330851" stroke-linecap="round" stroke-linejoin="round"/>
        <path d="M303.867 72.892C305.483 73.6836 309.575 74.8628 310.485 75.0309" stroke="#893611" stroke-width="0.330851" stroke-linecap="round" stroke-linejoin="round"/>
        <path d="M291.868 2.69465C291.868 2.69465 284.269 2.00607 284.631 12.408C284.631 12.408 285.692 10.7814 285.645 9.48558C285.645 9.48558 285.817 5.72007 287.368 5.86917C288.919 6.01828 291.865 6.26497 291.865 6.26497C291.865 6.26497 294.812 6.01557 296.363 5.86917C297.914 5.72007 298.085 9.48558 298.085 9.48558C298.039 10.7814 299.099 12.408 299.099 12.408C299.462 2.00607 291.863 2.69465 291.863 2.69465H291.868Z" fill="#893611"/>
        <path d="M291.869 3.99594C292.978 3.99594 293.878 3.10142 293.878 1.99797C293.878 0.894521 292.978 0 291.869 0C290.759 0 289.86 0.894521 289.86 1.99797C289.86 3.10142 290.759 3.99594 291.869 3.99594Z" fill="#893611"/>
        <path d="M290.588 3.4158C290.588 3.01458 290.261 2.68927 289.858 2.68927C289.454 2.68927 289.127 3.01458 289.127 3.4158C289.127 3.81702 289.454 4.14234 289.858 4.14234C290.261 4.14234 290.588 3.81702 290.588 3.4158Z" fill="#893611"/>
        <path d="M289.533 3.74924C289.533 3.34802 289.205 3.02271 288.802 3.02271C288.399 3.02271 288.072 3.34802 288.072 3.74924C288.072 4.15046 288.399 4.47577 288.802 4.47577C289.205 4.47577 289.533 4.15046 289.533 3.74924Z" fill="#893611"/>
        <path d="M288.529 4.26975C288.529 3.86853 288.202 3.54321 287.799 3.54321C287.396 3.54321 287.068 3.86853 287.068 4.26975C287.068 4.67097 287.396 4.99628 287.799 4.99628C288.202 4.99628 288.529 4.67097 288.529 4.26975Z" fill="#893611"/>
        <path d="M286.772 5.61433C286.99 5.31613 287.374 5.36764 287.581 5.56825C287.756 5.43541 287.873 5.22938 287.873 4.99082C287.873 4.5896 287.546 4.26428 287.142 4.26428C286.739 4.26428 286.412 4.5896 286.412 4.99082C286.412 5.25649 286.556 5.48692 286.772 5.61162V5.61433Z" fill="#893611"/>
        <path d="M286.262 6.46557C286.415 6.1755 286.578 5.89627 286.758 5.63331C286.862 5.4815 287.009 5.41372 287.153 5.4083C287.025 5.20498 286.799 5.07214 286.54 5.07214C286.137 5.07214 285.81 5.39746 285.81 5.79868C285.81 6.09959 285.995 6.35984 286.259 6.46828L286.262 6.46557Z" fill="#893611"/>
        <path d="M285.851 7.35485C286.033 6.90754 286.243 6.47379 286.486 6.06986C286.369 5.99124 286.227 5.94244 286.074 5.94244C285.671 5.94244 285.344 6.26776 285.344 6.66898C285.344 6.99158 285.556 7.26268 285.851 7.35485Z" fill="#893611"/>
        <path d="M285.532 8.25489C285.671 7.79674 285.84 7.34672 286.039 6.91568C285.932 6.85604 285.815 6.8208 285.684 6.8208C285.281 6.8208 284.954 7.14611 284.954 7.54733C284.954 7.89434 285.202 8.18441 285.529 8.25489H285.532Z" fill="#893611"/>
        <path d="M285.638 7.92411C285.548 7.88344 285.45 7.86176 285.344 7.86176C284.94 7.86176 284.613 8.18707 284.613 8.58829C284.613 8.9624 284.899 9.26603 285.265 9.30669C285.36 8.84041 285.483 8.37684 285.635 7.92682L285.638 7.92411Z" fill="#893611"/>
        <path d="M285.341 8.96245C285.284 8.94889 285.224 8.93805 285.161 8.93805C284.758 8.93805 284.431 9.26336 284.431 9.66458C284.431 10.0441 284.725 10.3532 285.099 10.383C285.148 9.91128 285.229 9.43686 285.338 8.96245H285.341Z" fill="#893611"/>
        <path d="M285.044 11.2071C285.055 10.8357 285.085 10.4534 285.136 10.0712C285.093 10.063 285.049 10.0576 285.006 10.0576C284.602 10.0576 284.275 10.3829 284.275 10.7842C284.275 11.1854 284.602 11.5107 285.006 11.5107C285.046 11.5107 285.087 11.5053 285.128 11.4998C285.074 11.4239 285.044 11.3291 285.046 11.2098L285.044 11.2071Z" fill="#893611"/>
        <path d="M293.147 3.41574C293.147 3.01452 293.474 2.68921 293.877 2.68921C294.281 2.68921 294.608 3.01452 294.608 3.41574C294.608 3.81696 294.281 4.14228 293.877 4.14228C293.474 4.14228 293.147 3.81696 293.147 3.41574Z" fill="#893611"/>
        <path d="M294.202 3.74918C294.202 3.34796 294.529 3.02264 294.932 3.02264C295.336 3.02264 295.663 3.34796 295.663 3.74918C295.663 4.1504 295.336 4.47571 294.932 4.47571C294.529 4.47571 294.202 4.1504 294.202 3.74918Z" fill="#893611"/>
        <path d="M295.205 4.26975C295.205 3.86853 295.533 3.54321 295.936 3.54321C296.339 3.54321 296.666 3.86853 296.666 4.26975C296.666 4.67097 296.339 4.99628 295.936 4.99628C295.533 4.99628 295.205 4.67097 295.205 4.26975Z" fill="#893611"/>
        <path d="M296.963 5.61433C296.745 5.31613 296.361 5.36764 296.154 5.56825C295.98 5.43541 295.862 5.22938 295.862 4.99082C295.862 4.5896 296.189 4.26428 296.593 4.26428C296.996 4.26428 297.323 4.5896 297.323 4.99082C297.323 5.25649 297.179 5.48692 296.963 5.61162V5.61433Z" fill="#893611"/>
        <path d="M297.473 6.46557C297.32 6.1755 297.157 5.89627 296.977 5.63331C296.873 5.4815 296.726 5.41372 296.582 5.4083C296.71 5.20498 296.936 5.07214 297.195 5.07214C297.598 5.07214 297.925 5.39746 297.925 5.79868C297.925 6.09959 297.74 6.35984 297.476 6.46828L297.473 6.46557Z" fill="#893611"/>
        <path d="M297.884 7.35479C297.701 6.90748 297.491 6.47373 297.249 6.0698C297.366 5.99118 297.508 5.94238 297.66 5.94238C298.064 5.94238 298.391 6.2677 298.391 6.66892C298.391 6.99152 298.178 7.26261 297.884 7.35479Z" fill="#893611"/>
        <path d="M298.203 8.25483C298.064 7.79668 297.895 7.34666 297.696 6.91562C297.803 6.85598 297.92 6.82074 298.051 6.82074C298.454 6.82074 298.781 7.14605 298.781 7.54727C298.781 7.89428 298.533 8.18435 298.206 8.25483H298.203Z" fill="#893611"/>
        <path d="M298.097 7.92411C298.187 7.88344 298.285 7.86176 298.391 7.86176C298.795 7.86176 299.122 8.18707 299.122 8.58829C299.122 8.9624 298.836 9.26603 298.47 9.30669C298.375 8.84041 298.252 8.37684 298.1 7.92682L298.097 7.92411Z" fill="#893611"/>
        <path d="M298.394 8.96239C298.451 8.94883 298.511 8.93799 298.574 8.93799C298.977 8.93799 299.304 9.2633 299.304 9.66452C299.304 10.0441 299.01 10.3531 298.636 10.3829C298.587 9.91122 298.505 9.4368 298.396 8.96239H298.394Z" fill="#893611"/>
        <path d="M298.691 11.207C298.681 10.8356 298.651 10.4534 298.599 10.0711C298.642 10.063 298.686 10.0576 298.73 10.0576C299.133 10.0576 299.46 10.3829 299.46 10.7841C299.46 11.1853 299.133 11.5106 298.73 11.5106C298.689 11.5106 298.648 11.5052 298.607 11.4998C298.661 11.4239 298.691 11.329 298.689 11.2097L298.691 11.207Z" fill="#893611"/>
        <path d="M252.137 68.5545C250.981 68.1424 249.784 67.8415 248.569 67.6626C247.672 67.5298 246.781 67.5189 245.879 67.4593C245.682 67.4457 244.022 67.4918 244.006 67.4647C245.35 69.7229 246.282 72.1899 247.105 74.6758C247.838 76.8852 248.95 78.8669 250.37 80.7429C251.45 82.1716 252.758 83.4484 254.271 84.419C255.808 85.403 257.474 85.7717 259.164 86.3681C261.232 87.0974 263.402 87.5366 265.593 87.6613C266.212 87.6965 266.842 87.7073 267.444 87.5691C267.559 87.542 267.679 87.5067 267.747 87.4119C267.839 87.2844 267.799 87.1082 267.747 86.9564C267.019 84.7226 265.705 82.4562 264.498 80.4501C261.701 75.8063 258.836 71.542 253.712 69.197C253.194 68.9611 252.666 68.747 252.129 68.5545H252.137Z" fill="#E47A4A"/>
        <path d="M251.005 74.2881C253.925 77.3569 256.89 80.461 260.564 82.6514C262.522 83.8171 264.645 84.6819 266.899 85.0614C266.945 85.0696 266.975 85.0479 266.989 85.0154C266.967 84.9693 266.945 84.9205 266.924 84.8744C266.921 84.8744 266.918 84.8717 266.913 84.8717C262.682 84.156 259.027 81.7161 255.895 78.9076C254.268 77.4464 252.761 75.8578 251.256 74.2746C249.801 72.7429 248.375 71.1217 246.718 69.8015C246.255 69.4328 245.78 69.0804 245.333 68.6954C245.276 68.6466 245.222 68.5951 245.167 68.5463C246.334 69.3108 247.459 70.135 248.539 71.0187C250.169 72.3525 251.722 73.7731 253.322 75.1394C256.473 77.8259 259.905 80.2007 263.661 81.9737C264.41 82.3288 265.182 82.6758 265.967 82.9821C265.918 82.8927 265.869 82.8005 265.82 82.711C265.296 82.5023 264.781 82.2773 264.274 82.0469C262.347 81.1766 260.502 80.1384 258.733 78.9808C257.002 77.8503 255.353 76.6033 253.775 75.2722C252.202 73.9466 250.684 72.5585 249.108 71.241C247.623 69.9994 246.069 68.8554 244.423 67.8388C244.303 67.7222 244.18 67.6084 244.058 67.4972C244.052 67.4918 244.047 67.4864 244.039 67.4809C247.448 68.5138 250.392 70.7693 253.197 72.8947C256.242 75.2017 259.199 77.647 262.497 79.5962C263.214 80.0191 263.95 80.4257 264.708 80.7863C264.648 80.6887 264.59 80.5884 264.53 80.4908C263.92 80.1899 263.323 79.8591 262.737 79.5176C261.121 78.5741 259.583 77.5033 258.081 76.3891C255.031 74.1255 252.109 71.7019 248.912 69.6361C247.527 68.7415 246.124 67.9879 244.595 67.4647C244.27 67.4674 244.009 67.4701 244.003 67.4565C244.257 67.8849 244.494 68.3213 244.72 68.7632C244.72 68.7632 244.723 68.7686 244.725 68.7686C244.725 68.7714 244.728 68.7768 244.728 68.7795C244.745 68.8093 244.761 68.8418 244.775 68.8717C245.99 70.585 246.887 72.4853 247.836 74.3532C248.735 76.1234 249.73 77.8395 250.91 79.4416C252.758 81.9493 255.015 84.1695 257.634 85.8557C257.885 85.9371 258.136 86.0184 258.389 86.0997C257.315 85.4627 256.293 84.7361 255.339 83.9337C252.276 81.3529 249.951 78.0645 248.135 74.524C247.342 72.976 246.593 71.401 245.685 69.9181C246.102 70.4277 246.514 70.9428 246.903 71.4742C248.228 73.2769 249.433 75.1665 250.815 76.9313C253.339 80.1573 256.536 82.8629 260.186 84.747C262.227 85.7988 264.4 86.5823 266.648 87.054C266.768 87.0784 266.834 86.8995 266.711 86.8751C262.674 86.0265 258.905 84.1695 255.694 81.605C254.088 80.3227 252.625 78.8696 251.33 77.2783C249.945 75.5758 248.754 73.7324 247.478 71.9513C246.77 70.9618 246.037 69.9913 245.232 69.0777C244.952 68.7578 244.685 68.4244 244.42 68.0909C245.023 68.6304 245.614 69.1861 246.246 69.6822C247.985 71.0404 249.476 72.6914 250.992 74.2854L251.005 74.2881Z" fill="#C6511C"/>
        <path d="M245.495 67.5081C246.375 67.7005 247.239 67.9689 248.079 68.2915C249.798 68.9503 251.418 69.8395 252.963 70.8317C255.964 72.7592 258.692 75.0716 261.691 77.0045C262.042 77.2322 262.399 77.4491 262.759 77.666C262.664 77.5223 262.568 77.3759 262.47 77.2349C260.862 76.2346 259.308 75.1475 257.774 74.0116C254.931 71.9079 252.069 69.7554 248.782 68.3729C247.926 68.0123 247.043 67.7087 246.143 67.4755C246.053 67.4701 245.966 67.4674 245.876 67.4593C245.808 67.4538 245.56 67.4593 245.266 67.4593C245.342 67.4755 245.416 67.4891 245.492 67.5081H245.495Z" fill="#C6511C"/>
        <path d="M337.067 68.5545C338.222 68.1424 339.419 67.8415 340.634 67.6626C341.531 67.5298 342.423 67.5189 343.325 67.4593C343.521 67.4457 345.181 67.4918 345.197 67.4647C343.853 69.7229 342.921 72.1899 342.098 74.6758C341.365 76.8852 340.253 78.8669 338.833 80.7429C337.753 82.1716 336.445 83.4484 334.932 84.419C333.395 85.403 331.73 85.7717 330.04 86.3681C327.971 87.0974 325.801 87.5366 323.61 87.6613C322.991 87.6965 322.361 87.7073 321.759 87.5691C321.645 87.542 321.525 87.5067 321.456 87.4119C321.364 87.2844 321.405 87.1082 321.456 86.9564C322.184 84.7226 323.498 82.4562 324.705 80.4501C327.502 75.8063 330.367 71.542 335.491 69.197C336.009 68.9611 336.538 68.747 337.075 68.5545H337.067Z" fill="#E47A4A"/>
        <path d="M338.201 74.2881C335.281 77.3569 332.316 80.461 328.642 82.6514C326.685 83.8171 324.561 84.6819 322.307 85.0614C322.261 85.0696 322.231 85.0479 322.217 85.0154C322.239 84.9693 322.261 84.9205 322.283 84.8744C322.285 84.8744 322.288 84.8717 322.293 84.8717C326.524 84.156 330.179 81.7161 333.311 78.9076C334.938 77.4464 336.445 75.8578 337.95 74.2746C339.405 72.7429 340.831 71.1217 342.488 69.8015C342.952 69.4328 343.426 69.0804 343.873 68.6954C343.93 68.6466 343.985 68.5951 344.039 68.5463C342.872 69.3108 341.747 70.135 340.667 71.0187C339.037 72.3525 337.484 73.7731 335.884 75.1394C332.733 77.8259 329.301 80.2007 325.545 81.9737C324.796 82.3288 324.024 82.6758 323.239 82.9821C323.288 82.8927 323.337 82.8005 323.386 82.711C323.91 82.5023 324.425 82.2773 324.932 82.0469C326.859 81.1766 328.704 80.1384 330.473 78.9808C332.204 77.8503 333.853 76.6033 335.431 75.2722C337.004 73.9466 338.522 72.5585 340.098 71.241C341.583 69.9994 343.137 68.8554 344.783 67.8388C344.903 67.7222 345.026 67.6084 345.148 67.4972C345.154 67.4918 345.159 67.4864 345.168 67.4809C341.758 68.5138 338.814 70.7693 336.009 72.8947C332.965 75.2017 330.007 77.647 326.709 79.5962C325.992 80.0191 325.256 80.4257 324.499 80.7863C324.559 80.6887 324.616 80.5884 324.676 80.4908C325.286 80.1899 325.883 79.8591 326.469 79.5176C328.086 78.5741 329.623 77.5033 331.125 76.3891C334.175 74.1255 337.097 71.7019 340.294 69.6361C341.679 68.7415 343.082 67.9879 344.611 67.4647C344.936 67.4674 345.197 67.4701 345.203 67.4565C344.949 67.8849 344.712 68.3213 344.486 68.7632C344.486 68.7632 344.483 68.7686 344.481 68.7686C344.481 68.7714 344.478 68.7768 344.478 68.7795C344.462 68.8093 344.445 68.8418 344.432 68.8717C343.216 70.585 342.319 72.4853 341.371 74.3532C340.471 76.1234 339.476 77.8395 338.296 79.4416C336.448 81.9493 334.191 84.1695 331.572 85.8557C331.321 85.9371 331.07 86.0184 330.817 86.0997C331.891 85.4627 332.913 84.7361 333.867 83.9337C336.93 81.3529 339.255 78.0645 341.071 74.524C341.864 72.976 342.614 71.401 343.521 69.9181C343.104 70.4277 342.693 70.9428 342.303 71.4742C340.978 73.2769 339.773 75.1665 338.391 76.9313C335.867 80.1573 332.67 82.8629 329.02 84.747C326.979 85.7988 324.807 86.5823 322.558 87.054C322.441 87.0784 322.373 86.8995 322.495 86.8751C326.532 86.0265 330.302 84.1695 333.512 81.605C335.118 80.3227 336.582 78.8696 337.876 77.2783C339.261 75.5758 340.452 73.7324 341.728 71.9513C342.436 70.9618 343.17 69.9913 343.974 69.0777C344.254 68.7578 344.522 68.4244 344.786 68.0909C344.184 68.6304 343.592 69.1861 342.96 69.6822C341.221 71.0404 339.73 72.6914 338.214 74.2854L338.201 74.2881Z" fill="#C6511C"/>
        <path d="M343.709 67.5081C342.829 67.7005 341.965 67.9689 341.126 68.2915C339.406 68.9503 337.787 69.8395 336.241 70.8317C333.24 72.7592 330.512 75.0716 327.513 77.0045C327.162 77.2322 326.805 77.4491 326.445 77.666C326.54 77.5223 326.636 77.3759 326.734 77.2349C328.342 76.2346 329.896 75.1475 331.43 74.0116C334.273 71.9079 337.135 69.7554 340.422 68.3729C341.278 68.0123 342.161 67.7087 343.061 67.4755C343.151 67.4701 343.238 67.4674 343.328 67.4593C343.396 67.4538 343.644 67.4593 343.938 67.4593C343.862 67.4755 343.789 67.4891 343.712 67.5081H343.709Z" fill="#C6511C"/>
        <path d="M264.47 89.7405C263.756 90.6459 263.129 91.6219 262.603 92.6493C262.216 93.4084 261.941 94.1973 261.619 94.9807C261.548 95.1515 261.096 96.6426 261.066 96.648C263.497 96.1275 265.994 96.0326 268.474 96.038C270.68 96.0434 272.795 95.6449 274.902 94.9428C276.507 94.406 278.047 93.6253 279.369 92.568C280.713 91.4945 281.541 90.1227 282.58 88.7971C283.85 87.1732 284.894 85.3731 285.66 83.4619C285.875 82.9224 286.072 82.3667 286.129 81.7866C286.14 81.6781 286.142 81.5588 286.077 81.4694C285.99 81.3501 285.818 81.3338 285.668 81.3338C283.441 81.3176 281.013 81.8082 278.851 82.2854C273.841 83.3914 269.153 84.6683 265.52 88.526C265.152 88.9163 264.803 89.323 264.47 89.7432V89.7405Z" fill="#E47A4A"/>
        <path d="M269.286 92.4568C272.914 90.776 276.591 89.06 279.655 86.4467C281.285 85.0532 282.697 83.4212 283.711 81.529C283.73 81.491 283.722 81.4585 283.697 81.4368C283.648 81.4423 283.599 81.4477 283.55 81.4531C283.55 81.4558 283.545 81.4585 283.545 81.4612C281.642 85.0099 278.358 87.5365 274.899 89.4829C273.1 90.4941 271.224 91.3616 269.352 92.2291C267.542 93.0668 265.659 93.853 263.977 94.9346C263.508 95.2356 263.05 95.5527 262.568 95.8347C262.508 95.8699 262.445 95.9025 262.382 95.9377C263.418 95.1271 264.492 94.3735 265.612 93.6741C267.297 92.6222 269.038 91.6625 270.742 90.6459C274.097 88.6425 277.254 86.3003 279.968 83.4863C280.511 82.9251 281.053 82.3423 281.563 81.735C281.468 81.7513 281.372 81.7676 281.277 81.7865C280.933 82.1878 280.576 82.5809 280.219 82.9631C278.862 84.4162 277.379 85.7499 275.812 86.978C274.277 88.1817 272.666 89.2742 270.998 90.2827C269.338 91.2857 267.637 92.2237 265.983 93.2322C264.424 94.1837 262.93 95.2247 261.526 96.385C261.387 96.4582 261.248 96.5314 261.109 96.61C261.104 96.6127 261.096 96.6181 261.09 96.6209C263.034 93.8963 265.939 91.9472 268.687 90.0875C271.669 88.0678 274.749 86.1647 277.483 83.8116C278.077 83.2993 278.663 82.7679 279.211 82.2013C279.104 82.223 278.998 82.2474 278.892 82.2691C278.439 82.7218 277.962 83.1556 277.483 83.5731C276.153 84.7279 274.732 85.7771 273.282 86.7828C270.339 88.8215 267.286 90.7001 264.478 92.9258C263.263 93.8909 262.167 94.9157 261.24 96.1193C261.148 96.4094 261.069 96.6425 261.058 96.6452C261.518 96.5477 261.982 96.4663 262.448 96.3958C262.448 96.3958 262.453 96.3958 262.456 96.3931C262.459 96.3931 262.464 96.3931 262.467 96.3931C262.5 96.3877 262.532 96.3823 262.562 96.3796C264.465 95.8103 266.441 95.5771 268.403 95.2898C270.265 95.016 272.102 94.6446 273.893 94.0698C276.698 93.1752 279.366 91.8279 281.664 90.0007C281.811 89.8028 281.958 89.6022 282.108 89.4016C281.217 90.1661 280.257 90.8601 279.252 91.4673C276.016 93.4246 272.369 94.5117 268.646 95.0702C267.019 95.3142 265.378 95.5121 263.775 95.8781C264.358 95.6585 264.944 95.447 265.539 95.2572C267.556 94.6147 269.614 94.1051 271.609 93.4057C275.261 92.1234 278.647 90.0848 281.427 87.3982C282.98 85.8963 284.332 84.1966 285.428 82.3369C285.485 82.2393 285.344 82.1281 285.286 82.2257C283.321 85.5629 280.527 88.3633 277.265 90.4534C275.635 91.4999 273.89 92.3674 272.075 93.0451C270.131 93.7689 268.117 94.2786 266.136 94.8831C265.034 95.2193 263.944 95.5826 262.881 96.0244C262.51 96.179 262.132 96.3172 261.753 96.4528C262.418 96.0787 263.094 95.7181 263.729 95.3006C265.468 94.1593 267.398 93.3243 269.281 92.4514L269.286 92.4568Z" fill="#C6511C"/>
        <path d="M276.829 92.4541C276.488 93.5547 276.251 94.6879 276.131 95.8319C276.041 96.6778 276.068 97.5127 276.049 98.3585C276.044 98.5429 276.158 100.096 276.131 100.113C278.213 98.7625 280.511 97.7838 282.831 96.9109C284.891 96.1329 286.723 95.0078 288.44 93.6008C289.749 92.53 290.904 91.2532 291.76 89.7947C292.63 88.3145 292.91 86.7394 293.404 85.1291C294.009 83.161 294.333 81.1088 294.363 79.0512C294.371 78.471 294.355 77.88 294.2 77.3216C294.17 77.2159 294.132 77.1047 294.039 77.0424C293.913 76.961 293.747 77.0071 293.608 77.0586C291.523 77.834 289.43 79.1569 287.582 80.3714C283.3 83.1854 279.383 86.0427 277.374 90.9387C277.172 91.4321 276.99 91.9363 276.832 92.4487L276.829 92.4541Z" fill="#F29E78"/>
        <path d="M282.302 93.2782C285.088 90.4182 287.903 87.5093 289.825 83.9797C290.847 82.0983 291.577 80.0732 291.845 77.9451C291.85 77.9017 291.828 77.8746 291.798 77.8638C291.755 77.8855 291.711 77.9071 291.667 77.9315C291.667 77.9343 291.665 77.937 291.665 77.9424C291.163 81.9329 289.004 85.4598 286.472 88.5097C285.156 90.0956 283.717 91.5703 282.28 93.0478C280.893 94.4737 279.413 95.8753 278.232 97.4829C277.903 97.9302 277.589 98.3911 277.24 98.8248C277.197 98.879 277.15 98.9333 277.104 98.9875C277.78 97.8624 278.513 96.7753 279.306 95.7262C280.503 94.1457 281.784 92.6303 283.011 91.0742C285.423 88.0108 287.53 84.7008 289.053 81.1061C289.359 80.3877 289.653 79.653 289.912 78.9048C289.828 78.9536 289.746 79.0024 289.661 79.0539C289.484 79.5527 289.293 80.0434 289.097 80.5286C288.353 82.3694 287.445 84.1423 286.426 85.8448C285.426 87.512 284.316 89.1088 283.12 90.6432C281.928 92.1694 280.68 93.6496 279.497 95.1813C278.382 96.6262 277.363 98.1281 276.469 99.7113C276.365 99.8279 276.262 99.9472 276.161 100.069C276.155 100.075 276.153 100.08 276.147 100.085C276.984 96.8485 278.998 93.9966 280.895 91.283C282.953 88.3362 285.147 85.4653 286.854 82.2935C287.224 81.6049 287.579 80.8973 287.89 80.1735C287.8 80.2331 287.707 80.2928 287.617 80.3524C287.355 80.938 287.069 81.51 286.769 82.0712C285.941 83.6245 284.992 85.1074 284 86.5605C281.983 89.51 279.808 92.3484 277.987 95.428C277.199 96.7618 276.542 98.1064 276.112 99.5622C276.128 99.8658 276.139 100.11 276.131 100.118C276.526 99.8631 276.93 99.6218 277.338 99.3914C277.338 99.3914 277.344 99.3887 277.344 99.386C277.347 99.386 277.349 99.3833 277.355 99.3833C277.382 99.367 277.412 99.3507 277.439 99.3345C279.012 98.1254 280.775 97.2064 282.504 96.2413C284.142 95.325 285.725 94.3219 287.194 93.1508C289.492 91.3155 291.501 89.1115 292.989 86.5876C293.055 86.349 293.12 86.1105 293.188 85.8719C292.63 86.9048 291.984 87.8916 291.264 88.8187C288.947 91.7953 285.93 94.1105 282.653 95.9539C281.22 96.7618 279.762 97.5263 278.393 98.4399C278.859 98.0278 279.328 97.6212 279.816 97.2335C281.468 95.9187 283.207 94.7096 284.82 93.346C287.77 90.8492 290.201 87.7425 291.831 84.2453C292.741 82.2907 293.393 80.2223 293.75 78.0969C293.769 77.9858 293.597 77.9315 293.578 78.0454C292.94 81.8597 291.34 85.468 289.045 88.5829C287.898 90.1389 286.581 91.5703 285.128 92.8472C283.575 94.2135 281.877 95.4063 280.244 96.675C279.336 97.3799 278.448 98.1064 277.616 98.898C277.325 99.1745 277.019 99.4375 276.714 99.7004C277.202 99.1149 277.701 98.5375 278.145 97.9221C279.361 96.2359 280.86 94.7719 282.307 93.2863L282.302 93.2782Z" fill="#E47A4A"/>
        <path d="M320.7 89.7405C321.414 90.646 322.041 91.6219 322.567 92.6494C322.954 93.4085 323.229 94.1973 323.551 94.9808C323.622 95.1516 324.074 96.6426 324.104 96.648C321.673 96.1275 319.176 96.0327 316.696 96.0381C314.491 96.0435 312.375 95.645 310.269 94.9428C308.663 94.4061 307.123 93.6253 305.801 92.5681C304.457 91.4945 303.629 90.1228 302.59 88.7971C301.32 87.1733 300.276 85.3732 299.51 83.462C299.295 82.9225 299.099 82.3668 299.041 81.7866C299.03 81.6782 299.028 81.5589 299.093 81.4694C299.18 81.3502 299.352 81.3339 299.502 81.3339C301.729 81.3176 304.158 81.8083 306.319 82.2854C311.329 83.3915 316.017 84.6684 319.65 88.526C320.018 88.9164 320.367 89.3231 320.7 89.7433V89.7405Z" fill="#E47A4A"/>
        <path d="M315.884 92.4569C312.256 90.7761 308.579 89.0601 305.515 86.4467C303.885 85.0533 302.473 83.4213 301.459 81.5291C301.44 81.4911 301.448 81.4586 301.473 81.4369C301.522 81.4423 301.571 81.4477 301.62 81.4532C301.62 81.4559 301.625 81.4586 301.625 81.4613C303.528 85.0099 306.812 87.5365 310.271 89.483C312.07 90.4942 313.946 91.3617 315.818 92.2292C317.628 93.0669 319.511 93.853 321.193 94.9347C321.662 95.2356 322.12 95.5528 322.602 95.8347C322.662 95.87 322.725 95.9025 322.788 95.9378C321.752 95.1272 320.678 94.3735 319.558 93.6741C317.873 92.6223 316.132 91.6626 314.428 90.646C311.073 88.6426 307.916 86.3003 305.202 83.4864C304.659 82.9252 304.117 82.3423 303.607 81.7351C303.702 81.7514 303.798 81.7676 303.893 81.7866C304.237 82.1878 304.594 82.5809 304.951 82.9632C306.308 84.4162 307.791 85.75 309.358 86.9781C310.893 88.1817 312.504 89.2742 314.172 90.2827C315.832 91.2858 317.533 92.2238 319.187 93.2322C320.746 94.1838 322.24 95.2248 323.644 96.3851C323.783 96.4583 323.922 96.5314 324.061 96.6101C324.066 96.6128 324.074 96.6182 324.08 96.6209C322.136 93.8964 319.231 91.9472 316.483 90.0875C313.501 88.0679 310.421 86.1648 307.687 83.8117C307.093 83.2993 306.507 82.768 305.959 82.2014C306.066 82.2231 306.172 82.2475 306.278 82.2692C306.731 82.7219 307.208 83.1556 307.687 83.5731C309.018 84.728 310.438 85.7771 311.888 86.7829C314.831 88.8215 317.884 90.7002 320.692 92.9259C321.907 93.891 323.003 94.9157 323.93 96.1194C324.022 96.4095 324.102 96.6426 324.112 96.6453C323.652 96.5477 323.188 96.4664 322.722 96.3959C322.722 96.3959 322.717 96.3959 322.714 96.3932C322.711 96.3932 322.706 96.3932 322.703 96.3932C322.671 96.3878 322.638 96.3823 322.608 96.3796C320.705 95.8103 318.729 95.5772 316.767 95.2898C314.905 95.016 313.068 94.6446 311.277 94.0699C308.472 93.1753 305.804 91.828 303.506 90.0008C303.359 89.8029 303.212 89.6023 303.062 89.4017C303.953 90.1661 304.913 90.8601 305.918 91.4674C309.154 93.4247 312.801 94.5118 316.524 95.0702C318.151 95.3142 319.792 95.5121 321.395 95.8781C320.812 95.6585 320.226 95.4471 319.631 95.2573C317.614 94.6148 315.556 94.1051 313.561 93.4057C309.909 92.1234 306.524 90.0848 303.743 87.3983C302.19 85.8964 300.838 84.1966 299.742 82.3369C299.685 82.2393 299.826 82.1282 299.884 82.2258C301.849 85.563 304.643 88.3634 307.905 90.4535C309.535 91.4999 311.28 92.3674 313.095 93.0452C315.039 93.769 317.053 94.2787 319.034 94.8832C320.136 95.2194 321.226 95.5826 322.289 96.0245C322.66 96.179 323.039 96.3173 323.417 96.4528C322.752 96.0787 322.076 95.7182 321.441 95.3007C319.702 94.1594 317.772 93.3244 315.889 92.4515L315.884 92.4569Z" fill="#C6511C"/>
        <path d="M308.34 92.4541C308.681 93.5547 308.918 94.6879 309.038 95.8319C309.128 96.6778 309.101 97.5127 309.12 98.3585C309.125 98.5429 309.011 100.096 309.038 100.113C306.956 98.7625 304.658 97.7838 302.338 96.9109C300.278 96.1329 298.446 95.0078 296.729 93.6008C295.42 92.53 294.265 91.2532 293.409 89.7947C292.539 88.3145 292.259 86.7394 291.765 85.1291C291.16 83.161 290.836 81.1088 290.806 79.0512C290.798 78.471 290.814 77.88 290.969 77.3216C290.999 77.2159 291.038 77.1047 291.13 77.0424C291.256 76.961 291.422 77.0071 291.561 77.0586C293.646 77.834 295.739 79.1569 297.587 80.3714C301.869 83.1854 305.786 86.0427 307.795 90.9387C307.997 91.4321 308.179 91.9363 308.338 92.4487L308.34 92.4541Z" fill="#F29E78"/>
        <path d="M302.866 93.2782C300.081 90.4182 297.265 87.5093 295.343 83.9797C294.321 82.0983 293.591 80.0732 293.324 77.9451C293.318 77.9017 293.34 77.8746 293.37 77.8638C293.414 77.8855 293.457 77.9071 293.501 77.9315C293.501 77.9343 293.504 77.937 293.504 77.9424C294.005 81.9329 296.164 85.4598 298.696 88.5097C300.012 90.0956 301.452 91.5703 302.888 93.0478C304.275 94.4737 305.755 95.8753 306.936 97.4829C307.266 97.9302 307.579 98.3911 307.928 98.8248C307.971 98.879 308.018 98.9333 308.064 98.9875C307.388 97.8624 306.655 96.7753 305.862 95.7262C304.665 94.1457 303.384 92.6303 302.158 91.0742C299.745 88.0108 297.638 84.7008 296.115 81.1061C295.809 80.3877 295.515 79.653 295.256 78.9048C295.341 78.9536 295.422 79.0024 295.507 79.0539C295.684 79.5527 295.875 80.0434 296.071 80.5286C296.815 82.3694 297.723 84.1423 298.742 85.8448C299.743 87.512 300.852 89.1088 302.049 90.6432C303.24 92.1694 304.488 93.6496 305.671 95.1813C306.786 96.6262 307.805 98.1281 308.699 99.7113C308.803 99.8279 308.906 99.9472 309.007 100.069C309.013 100.075 309.015 100.08 309.021 100.085C308.184 96.8485 306.17 93.9966 304.273 91.283C302.215 88.3362 300.021 85.4653 298.314 82.2935C297.944 81.6049 297.589 80.8973 297.279 80.1735C297.369 80.2331 297.461 80.2928 297.551 80.3524C297.813 80.938 298.099 81.51 298.399 82.0712C299.227 83.6245 300.176 85.1074 301.168 86.5605C303.185 89.51 305.36 92.3484 307.181 95.428C307.969 96.7618 308.626 98.1064 309.056 99.5622C309.04 99.8658 309.029 100.11 309.037 100.118C308.642 99.8631 308.239 99.6218 307.83 99.3914C307.83 99.3914 307.824 99.3887 307.824 99.386C307.822 99.386 307.819 99.3833 307.813 99.3833C307.786 99.367 307.756 99.3507 307.729 99.3345C306.156 98.1254 304.393 97.2064 302.665 96.2413C301.026 95.325 299.443 94.3219 297.974 93.1508C295.676 91.3155 293.667 89.1115 292.179 86.5876C292.113 86.349 292.048 86.1105 291.98 85.8719C292.539 86.9048 293.185 87.8916 293.904 88.8187C296.221 91.7953 299.238 94.1105 302.515 95.9539C303.948 96.7618 305.407 97.5263 306.775 98.4399C306.309 98.0278 305.84 97.6212 305.352 97.2335C303.7 95.9187 301.961 94.7096 300.348 93.346C297.399 90.8492 294.967 87.7425 293.337 84.2453C292.427 82.2907 291.775 80.2223 291.418 78.0969C291.399 77.9858 291.571 77.9315 291.59 78.0454C292.228 81.8597 293.828 85.468 296.123 88.5829C297.27 90.1389 298.587 91.5703 300.04 92.8472C301.593 94.2135 303.291 95.4063 304.924 96.675C305.832 97.3799 306.72 98.1064 307.552 98.898C307.843 99.1745 308.149 99.4375 308.454 99.7004C307.966 99.1149 307.467 98.5375 307.023 97.9221C305.807 96.2359 304.308 94.7719 302.861 93.2863L302.866 93.2782Z" fill="#E47A4A"/>
        <path d="M275.469 76.8635C276.314 81.4288 272.035 86.36 267.439 88.583C267.038 88.7782 266.605 88.9625 266.139 88.9733C265.684 88.9842 265.25 88.8297 264.841 88.6643C259.42 86.4982 254.503 82.2746 254.972 76.9394C255.329 72.8622 259.003 69.563 262.476 66.6162C262.754 66.3803 263.067 66.1282 263.465 66.0875C263.822 66.0496 264.165 66.1905 264.484 66.3234C267.038 67.4078 269.233 68.4244 271.192 70.1594C272.991 71.7534 274.36 73.6728 275.155 75.7412C275.297 76.1126 275.403 76.4867 275.472 76.8635H275.469Z" fill="#C6511C"/>
        <path d="M260.317 72.3497C260.434 70.7964 260.718 69.2538 261.165 67.7438C261.053 67.8414 260.941 67.9444 260.829 68.042C259.066 74.4209 260.29 81.1332 263.403 87.1217C263.615 87.531 263.841 87.9377 264.073 88.3416C264.201 88.3985 264.327 88.4528 264.455 88.507C261.552 83.47 259.889 77.9587 260.317 72.3497Z" fill="#E68E67"/>
        <path d="M261.985 71.523C262.056 69.8612 262.249 68.2048 262.544 66.5593C262.519 66.5782 262.497 66.5972 262.476 66.6162C262.399 66.6813 262.323 66.7463 262.249 66.8114C261.137 73.3746 261.688 80.1628 264.809 86.3248C265.264 87.2221 265.774 88.0977 266.335 88.9517C266.425 88.9408 266.515 88.9246 266.602 88.9029C263.141 83.6057 261.737 77.525 261.988 71.5203L261.985 71.523Z" fill="#E68E67"/>
        <path d="M263.939 70.5849C263.849 69.0912 263.805 67.5975 263.797 66.101C263.715 66.0875 263.634 66.0848 263.552 66.0848C263.585 72.3932 264.326 78.6934 265.798 84.8825C266.111 86.2054 266.468 87.5202 266.847 88.8296C266.929 88.8025 267.008 88.77 267.087 88.7375C265.37 82.7788 264.301 76.7008 263.939 70.5822V70.5849Z" fill="#E68E67"/>
        <path d="M256.247 73.2091C256.144 73.3826 256.051 73.5588 255.958 73.735C255.768 77.0478 256.108 80.4094 257.321 83.5676C257.487 83.7628 257.659 83.9526 257.839 84.1396C256.362 80.6723 255.977 76.896 256.247 73.2091Z" fill="#E68E67"/>
        <path d="M258.39 73.6971C258.464 72.3932 258.652 71.0946 258.954 69.8151C258.845 69.9262 258.736 70.0347 258.63 70.1458C257.433 75.687 258.333 81.4911 261.159 86.6229C261.211 86.7178 261.271 86.8127 261.326 86.9076C261.47 86.997 261.617 87.0838 261.764 87.1678C259.309 82.9984 258.134 78.3329 258.39 73.6971Z" fill="#E68E67"/>
        <path d="M270.944 86.2949C271.055 86.2 271.167 86.1024 271.279 86.0048C272.358 81.6971 272.443 77.2322 271.516 72.8947C271.284 71.8157 270.985 70.7503 270.63 69.693C270.51 69.5982 270.393 69.5033 270.27 69.4138C272.05 74.5212 272.386 79.9513 271.222 85.1861C271.14 85.5575 271.042 85.9262 270.944 86.2949Z" fill="#E68E67"/>
        <path d="M274.07 73.5697C273.961 73.3908 273.844 73.2173 273.727 73.0438C274.386 76.7686 273.901 80.5341 273.002 84.2264C273.127 84.0746 273.25 83.9201 273.37 83.7629C274.152 80.3931 274.569 76.9665 274.07 73.567V73.5697Z" fill="#E68E67"/>
        <path d="M269.249 87.5555C269.347 87.4904 269.445 87.4281 269.54 87.3603C270.587 82.177 270.434 76.8445 269.074 71.71C268.731 70.4114 268.303 69.1319 267.807 67.8686C267.695 67.8089 267.583 67.752 267.471 67.6951C269.786 73.4884 270.516 79.6883 269.584 85.7418C269.491 86.3491 269.374 86.9536 269.246 87.5555H269.249Z" fill="#E68E67"/>
        <path d="M268.273 85.3243C268.273 86.2786 268.24 87.2355 268.191 88.1898C268.276 88.1437 268.36 88.0949 268.445 88.0461C268.717 82.326 268.104 76.5815 266.589 70.9915C266.191 69.5276 265.73 68.0773 265.215 66.6377C265.111 66.5917 265.005 66.5483 264.901 66.5022C267.115 72.6018 268.26 78.9536 268.273 85.3243Z" fill="#E68E67"/>
        <path d="M312.767 76.8635C311.922 81.4288 316.202 86.36 320.797 88.583C321.198 88.7782 321.631 88.9625 322.097 88.9733C322.552 88.9842 322.986 88.8297 323.395 88.6643C328.816 86.4982 333.733 82.2746 333.264 76.9394C332.907 72.8622 329.233 69.563 325.761 66.6162C325.483 66.3803 325.169 66.1282 324.771 66.0875C324.414 66.0496 324.071 66.1905 323.752 66.3234C321.198 67.4078 319.004 68.4244 317.044 70.1594C315.245 71.7534 313.877 73.6728 313.081 75.7412C312.939 76.1126 312.833 76.4867 312.764 76.8635H312.767Z" fill="#C6511C"/>
        <path d="M327.92 72.3497C327.803 70.7964 327.519 69.2538 327.072 67.7438C327.184 67.8414 327.296 67.9444 327.407 68.042C329.171 74.4209 327.947 81.1332 324.834 87.1217C324.622 87.531 324.395 87.9377 324.164 88.3416C324.036 88.3985 323.91 88.4528 323.782 88.507C326.685 83.47 328.348 77.9587 327.92 72.3497Z" fill="#E68E67"/>
        <path d="M326.252 71.523C326.181 69.8612 325.988 68.2048 325.693 66.5593C325.718 66.5782 325.74 66.5972 325.761 66.6162C325.838 66.6813 325.914 66.7463 325.988 66.8114C327.1 73.3746 326.549 80.1628 323.428 86.3248C322.973 87.2221 322.463 88.0977 321.902 88.9517C321.812 88.9408 321.722 88.9246 321.635 88.9029C325.096 83.6057 326.5 77.525 326.249 71.5203L326.252 71.523Z" fill="#E68E67"/>
        <path d="M324.297 70.5849C324.387 69.0912 324.43 67.5975 324.439 66.101C324.52 66.0875 324.602 66.0848 324.684 66.0848C324.651 72.3932 323.91 78.6934 322.438 84.8825C322.124 86.2054 321.767 87.5202 321.389 88.8296C321.307 88.8025 321.228 88.77 321.149 88.7375C322.866 82.7788 323.934 76.7008 324.297 70.5822V70.5849Z" fill="#E68E67"/>
        <path d="M331.988 73.2091C332.092 73.3826 332.185 73.5588 332.277 73.735C332.468 77.0478 332.127 80.4094 330.914 83.5676C330.748 83.7628 330.577 83.9526 330.397 84.1396C331.874 80.6723 332.258 76.896 331.988 73.2091Z" fill="#E68E67"/>
        <path d="M329.847 73.6971C329.773 72.3932 329.585 71.0946 329.283 69.8151C329.392 69.9262 329.501 70.0347 329.607 70.1458C330.804 75.687 329.904 81.4911 327.078 86.6229C327.026 86.7178 326.966 86.8127 326.911 86.9076C326.767 86.997 326.62 87.0838 326.473 87.1678C328.928 82.9984 330.103 78.3329 329.847 73.6971Z" fill="#E68E67"/>
        <path d="M317.293 86.2949C317.181 86.2 317.069 86.1024 316.958 86.0048C315.878 81.6971 315.794 77.2322 316.72 72.8947C316.952 71.8157 317.252 70.7503 317.606 69.693C317.726 69.5982 317.843 69.5033 317.966 69.4138C316.186 74.5212 315.851 79.9513 317.015 85.1861C317.097 85.5575 317.195 85.9262 317.293 86.2949Z" fill="#E68E67"/>
        <path d="M314.166 73.5697C314.275 73.3908 314.392 73.2173 314.509 73.0438C313.85 76.7686 314.335 80.5341 315.234 84.2264C315.109 84.0746 314.986 83.9201 314.866 83.7629C314.084 80.3931 313.667 76.9665 314.166 73.567V73.5697Z" fill="#E68E67"/>
        <path d="M318.988 87.5555C318.89 87.4904 318.791 87.4281 318.696 87.3603C317.649 82.177 317.802 76.8445 319.162 71.71C319.506 70.4114 319.933 69.1319 320.43 67.8686C320.541 67.8089 320.653 67.752 320.765 67.6951C318.451 73.4884 317.72 79.6883 318.652 85.7418C318.745 86.3491 318.862 86.9536 318.99 87.5555H318.988Z" fill="#E68E67"/>
        <path d="M319.963 85.3243C319.963 86.2786 319.996 87.2355 320.045 88.1898C319.96 88.1437 319.876 88.0949 319.791 88.0461C319.519 82.326 320.132 76.5815 321.648 70.9915C322.046 69.5276 322.506 68.0773 323.021 66.6377C323.125 66.5917 323.231 66.5483 323.335 66.5022C321.121 72.6018 319.977 78.9536 319.963 85.3243Z" fill="#E68E67"/>
        <path d="M289.337 75.9472C290.593 80.4175 286.783 85.7147 282.408 88.3416C282.026 88.5721 281.612 88.7944 281.149 88.8486C280.696 88.9001 280.249 88.7835 279.827 88.6588C274.231 86.9889 268.949 83.2288 268.929 77.872C268.916 73.7811 272.271 70.162 275.46 66.9143C275.716 66.6541 276.005 66.3748 276.398 66.2962C276.75 66.2257 277.104 66.3342 277.434 66.4399C280.075 67.2884 282.354 68.1044 284.463 69.6551C286.398 71.081 287.938 72.8676 288.917 74.8574C289.091 75.2125 289.23 75.5758 289.334 75.9472H289.337Z" fill="#E47A4A"/>
        <path d="M273.835 72.8186C273.811 71.2599 273.952 69.7011 274.26 68.1558C274.157 68.2643 274.056 68.3754 273.952 68.4838C272.778 74.9955 274.609 81.5696 278.254 87.2544C278.504 87.6448 278.766 88.0271 279.033 88.4066C279.164 88.45 279.297 88.4933 279.428 88.5367C276.078 83.7817 273.92 78.4412 273.835 72.8186Z" fill="#C6511C"/>
        <path d="M275.422 71.8428C275.34 70.1809 275.384 68.5137 275.525 66.8492C275.503 66.8709 275.482 66.8926 275.463 66.9142C275.394 66.9847 275.324 67.0579 275.253 67.1284C274.746 73.7648 275.912 80.4771 279.578 86.3301C280.113 87.1813 280.701 88.0081 281.336 88.8106C281.426 88.7916 281.514 88.7672 281.598 88.7374C277.668 83.7736 275.716 77.8448 275.419 71.8428H275.422Z" fill="#C6511C"/>
        <path d="M277.283 70.734C277.06 69.2538 276.877 67.7709 276.735 66.2826C276.654 66.2772 276.572 66.2799 276.49 66.288C277.098 72.5666 278.412 78.7746 280.44 84.8065C280.873 86.0942 281.347 87.3711 281.846 88.6425C281.925 88.6073 282.001 88.5693 282.078 88.5286C279.826 82.7489 278.207 76.793 277.286 70.734H277.283Z" fill="#C6511C"/>
        <path d="M269.862 74.0414C269.774 74.223 269.698 74.4074 269.622 74.5917C269.733 77.9099 270.379 81.2254 271.876 84.2617C272.058 84.4406 272.249 84.6141 272.443 84.7849C270.655 81.4667 269.927 77.7391 269.862 74.0441V74.0414Z" fill="#C6511C"/>
        <path d="M272.04 74.3341C271.993 73.0275 272.064 71.7181 272.247 70.4168C272.149 70.5361 272.051 70.6554 271.955 70.7774C271.268 76.4053 272.694 82.1037 275.976 86.959C276.038 87.0512 276.106 87.1379 276.169 87.2274C276.322 87.3033 276.474 87.3765 276.63 87.447C273.803 83.5161 272.209 78.978 272.042 74.3341H272.04Z" fill="#C6511C"/>
        <path d="M285.689 85.7472C285.793 85.6415 285.897 85.5358 285.997 85.4273C286.679 81.0383 286.354 76.5842 285.038 72.3497C284.711 71.2952 284.313 70.2623 283.863 69.243C283.735 69.1589 283.61 69.0749 283.482 68.9963C285.719 73.9221 286.548 79.3006 285.867 84.6168C285.817 84.9936 285.755 85.3704 285.689 85.7445V85.7472Z" fill="#C6511C"/>
        <path d="M287.644 72.7916C287.519 72.6235 287.388 72.4609 287.254 72.2982C288.249 75.9499 288.11 79.7425 287.551 83.4999C287.663 83.3372 287.772 83.1718 287.876 83.0065C288.347 79.5798 288.448 76.1315 287.644 72.7916Z" fill="#C6511C"/>
        <path d="M284.117 87.1542C284.21 87.081 284.3 87.0105 284.392 86.9346C284.962 81.6808 284.324 76.3809 282.501 71.3901C282.04 70.1295 281.498 68.8906 280.89 67.6788C280.773 67.63 280.658 67.5812 280.541 67.5351C283.373 73.0952 284.668 79.2057 284.291 85.3189C284.253 85.9316 284.193 86.5443 284.12 87.1569L284.117 87.1542Z" fill="#C6511C"/>
        <path d="M282.945 85.0234C283.035 85.9749 283.087 86.9292 283.125 87.8834C283.204 87.8292 283.286 87.7723 283.365 87.7181C283.114 81.9953 281.98 76.3321 279.963 70.9021C279.434 69.4788 278.843 68.0773 278.197 66.692C278.09 66.6567 277.981 66.6215 277.872 66.5862C280.633 72.4636 282.351 78.6852 282.945 85.0261V85.0234Z" fill="#C6511C"/>
        <path d="M298.012 75.9472C296.756 80.4175 300.566 85.7147 304.941 88.3416C305.323 88.5721 305.737 88.7944 306.2 88.8486C306.653 88.9001 307.1 88.7835 307.522 88.6588C313.118 86.9889 318.401 83.2288 318.42 77.872C318.433 73.7811 315.078 70.162 311.889 66.9143C311.633 66.6541 311.344 66.3748 310.951 66.2962C310.6 66.2257 310.245 66.3342 309.915 66.4399C307.274 67.2884 304.996 68.1044 302.886 69.6551C300.951 71.081 299.411 72.8676 298.432 74.8574C298.258 75.2125 298.119 75.5758 298.015 75.9472H298.012Z" fill="#E47A4A"/>
        <path d="M313.513 72.8187C313.538 71.2599 313.396 69.7011 313.088 68.1559C313.192 68.2643 313.292 68.3755 313.396 68.4839C314.571 74.9956 312.739 81.5696 309.095 87.2545C308.844 87.6449 308.582 88.0271 308.315 88.4067C308.184 88.45 308.051 88.4934 307.92 88.5368C311.27 83.7818 313.429 78.4412 313.513 72.8187Z" fill="#C6511C"/>
        <path d="M311.927 71.8428C312.009 70.181 311.965 68.5138 311.824 66.8492C311.845 66.8709 311.867 66.8926 311.886 66.9143C311.954 66.9848 312.025 67.058 312.096 67.1285C312.603 73.7649 311.437 80.4772 307.77 86.3301C307.236 87.1814 306.647 88.0082 306.012 88.8106C305.922 88.7917 305.835 88.7673 305.751 88.7374C309.681 83.7737 311.633 77.8449 311.93 71.8428H311.927Z" fill="#C6511C"/>
        <path d="M310.065 70.734C310.289 69.2538 310.471 67.7709 310.613 66.2826C310.695 66.2772 310.777 66.2799 310.859 66.288C310.251 72.5666 308.937 78.7746 306.909 84.8065C306.476 86.0942 306.001 87.3711 305.503 88.6425C305.424 88.6073 305.347 88.5693 305.271 88.5286C307.522 82.7489 309.141 76.793 310.063 70.734H310.065Z" fill="#C6511C"/>
        <path d="M317.488 74.0414C317.575 74.223 317.651 74.4074 317.727 74.5917C317.616 77.9099 316.97 81.2254 315.473 84.2617C315.291 84.4406 315.1 84.6141 314.906 84.7849C316.694 81.4667 317.422 77.7391 317.488 74.0441V74.0414Z" fill="#C6511C"/>
        <path d="M315.309 74.3341C315.356 73.0275 315.285 71.7181 315.102 70.4168C315.2 70.5361 315.298 70.6554 315.394 70.7774C316.081 76.4053 314.655 82.1037 311.373 86.959C311.311 87.0512 311.242 87.1379 311.18 87.2274C311.027 87.3033 310.874 87.3765 310.719 87.447C313.546 83.5161 315.14 78.978 315.306 74.3341H315.309Z" fill="#C6511C"/>
        <path d="M301.66 85.7472C301.556 85.6415 301.453 85.5358 301.352 85.4273C300.671 81.0383 300.995 76.5842 302.311 72.3497C302.639 71.2952 303.037 70.2623 303.486 69.243C303.614 69.1589 303.74 69.0749 303.868 68.9963C301.63 73.9221 300.801 79.3006 301.483 84.6168C301.532 84.9936 301.595 85.3704 301.66 85.7445V85.7472Z" fill="#C6511C"/>
        <path d="M299.705 72.7916C299.83 72.6235 299.961 72.4609 300.095 72.2982C299.1 75.9499 299.239 79.7425 299.798 83.4999C299.686 83.3372 299.577 83.1718 299.473 83.0065C299.002 79.5798 298.901 76.1315 299.705 72.7916Z" fill="#C6511C"/>
        <path d="M303.233 87.1542C303.14 87.081 303.05 87.0105 302.957 86.9346C302.388 81.6808 303.025 76.3809 304.849 71.3901C305.31 70.1295 305.852 68.8906 306.46 67.6788C306.577 67.63 306.691 67.5812 306.809 67.5351C303.977 73.0952 302.682 79.2057 303.058 85.3189C303.096 85.9316 303.156 86.5443 303.23 87.1569L303.233 87.1542Z" fill="#C6511C"/>
        <path d="M304.407 85.0234C304.317 85.9749 304.265 86.9292 304.227 87.8834C304.148 87.8292 304.066 87.7723 303.987 87.7181C304.238 81.9953 305.372 76.3321 307.389 70.9021C307.918 69.4788 308.509 68.0773 309.155 66.692C309.262 66.6567 309.371 66.6215 309.48 66.5862C306.718 72.4636 305.001 78.6852 304.407 85.0261V85.0234Z" fill="#C6511C"/>
        <path d="M302.878 78.1972C303.121 82.833 298.237 87.1732 293.39 88.7835C292.968 88.9245 292.515 89.0519 292.049 89.0031C291.597 88.9543 291.185 88.7455 290.801 88.5314C285.707 85.6849 281.381 80.8648 282.539 75.6354C283.425 71.6395 287.497 68.839 291.322 66.3639C291.63 66.1661 291.97 65.9573 292.371 65.9654C292.728 65.9736 293.052 66.1552 293.349 66.3314C295.74 67.733 297.784 69.0261 299.501 70.997C301.077 72.8079 302.186 74.8872 302.704 77.0424C302.797 77.4273 302.851 77.8123 302.873 78.1945L302.878 78.1972Z" fill="#F29E78"/>
        <path d="M288.44 71.7696C288.759 70.2433 289.241 68.7523 289.879 67.3101C289.754 67.3941 289.631 67.4781 289.506 67.5649C286.927 73.6645 287.268 80.4771 289.574 86.8153C289.732 87.2491 289.904 87.6801 290.081 88.1112C290.201 88.1844 290.318 88.2548 290.438 88.3226C288.216 82.9522 287.284 77.2755 288.437 71.7696H288.44Z" fill="#E47A4A"/>
        <path d="M290.204 71.165C290.49 69.5249 290.899 67.9092 291.403 66.3151C291.378 66.3314 291.351 66.3477 291.327 66.3639C291.242 66.4181 291.16 66.4724 291.076 66.5266C289.122 72.8919 288.784 79.6937 291.076 86.2053C291.408 87.1542 291.804 88.0867 292.248 89.0058C292.341 89.0058 292.431 89.003 292.52 88.9922C289.778 83.2938 289.176 77.0857 290.206 71.1623L290.204 71.165Z" fill="#E47A4A"/>
        <path d="M292.265 70.4873C292.371 68.9963 292.521 67.508 292.709 66.0251C292.63 66.0007 292.551 65.9871 292.466 65.979C291.679 72.2386 291.594 78.5795 292.248 84.9068C292.387 86.2596 292.57 87.6069 292.777 88.957C292.861 88.9407 292.946 88.919 293.028 88.8974C292.101 82.7679 291.831 76.6032 292.267 70.49L292.265 70.4873Z" fill="#E47A4A"/>
        <path d="M284.294 72.1003C284.169 72.2602 284.054 72.4229 283.94 72.5855C283.319 75.8468 283.22 79.2246 284.014 82.5103C284.153 82.7245 284.3 82.9359 284.452 83.1447C283.438 79.5174 283.548 75.7221 284.294 72.1003Z" fill="#E47A4A"/>
        <path d="M286.355 72.8594C286.597 71.5744 286.954 70.3138 287.418 69.0803C287.295 69.1752 287.172 69.2701 287.052 69.3677C285.144 74.7082 285.284 80.5802 287.418 86.0319C287.459 86.1349 287.505 86.2352 287.546 86.3355C287.677 86.4412 287.81 86.547 287.947 86.65C286.055 82.1986 285.493 77.4246 286.352 72.8567L286.355 72.8594Z" fill="#E47A4A"/>
        <path d="M297.165 86.9645C297.291 86.8858 297.413 86.8018 297.536 86.7205C299.166 82.5863 299.831 78.1701 299.477 73.7513C299.389 72.6507 299.229 71.5554 299.013 70.4629C298.907 70.3545 298.801 70.246 298.694 70.1403C299.796 75.4348 299.419 80.8621 297.588 85.9018C297.457 86.2596 297.312 86.612 297.168 86.9645H297.165Z" fill="#E47A4A"/>
        <path d="M301.921 74.7489C301.837 74.5591 301.744 74.3694 301.649 74.1823C301.818 77.9614 300.847 81.632 299.476 85.1779C299.621 85.0424 299.763 84.9068 299.902 84.7658C301.115 81.5236 301.973 78.181 301.924 74.7462L301.921 74.7489Z" fill="#E47A4A"/>
        <path d="M295.323 87.9973C295.429 87.9458 295.533 87.897 295.639 87.8428C297.351 82.8383 297.893 77.5303 297.212 72.2629C297.04 70.9319 296.784 69.6062 296.454 68.2914C296.35 68.2182 296.247 68.1477 296.143 68.0745C297.683 74.1145 297.604 80.3578 295.892 86.2433C295.721 86.8343 295.527 87.4171 295.32 87.9973H295.323Z" fill="#E47A4A"/>
        <path d="M294.644 85.6632C294.521 86.612 294.363 87.5527 294.192 88.4934C294.282 88.4582 294.371 88.4202 294.461 88.3823C295.475 82.7435 295.614 76.9692 294.84 71.2328C294.636 69.731 294.369 68.2318 294.044 66.7381C293.946 66.6811 293.848 66.6215 293.75 66.5646C295.151 72.9001 295.459 79.344 294.644 85.6605V85.6632Z" fill="#E47A4A"/>
    </g>
    <path d="M222.983 65.1402C222.368 71.129 218.471 73.0159 216.831 73.5491C216.666 73.6004 216.687 73.8055 216.861 73.826C221.568 74.6259 222.983 79.6917 223.394 82.0708C223.424 82.2349 223.701 82.2349 223.742 82.0708C224.798 76.8204 228.634 74.0926 229.741 73.3953C229.854 73.3235 229.823 73.1697 229.69 73.1389C225.424 72.0929 223.876 67.5911 223.342 65.1197C223.301 64.9454 223.014 64.9659 222.994 65.1402H222.983Z" fill="#E68E67"/>
    <path d="M166.136 36.6277C165.641 41.8019 162.443 43.4317 161.093 43.8906C160.958 43.938 160.973 44.1121 161.123 44.1279C164.98 44.8241 166.136 49.2072 166.466 51.2484C166.496 51.3908 166.721 51.3908 166.751 51.2484C167.607 46.7071 170.759 44.3494 171.674 43.7482C171.764 43.6849 171.749 43.5583 171.629 43.5266C168.132 42.6247 166.856 38.7322 166.421 36.596C166.391 36.4536 166.151 36.4694 166.136 36.596V36.6277Z" fill="#F5E3DB"/>
    <path d="M247.842 39.0694C247.308 44.2437 243.865 45.8735 242.41 46.3323C242.265 46.3798 242.281 46.5539 242.443 46.5697C246.597 47.2659 247.842 51.649 248.197 53.6902C248.23 53.8326 248.472 53.8326 248.504 53.6902C249.426 49.1489 252.82 46.7912 253.806 46.1899C253.903 46.1266 253.887 46 253.758 45.9684C249.991 45.0665 248.617 41.1739 248.149 39.0378C248.116 38.8954 247.858 38.9112 247.842 39.0378V39.0694Z" fill="white"/>
    <path d="M353.919 46.7401C353.386 51.9143 349.943 53.5441 348.488 54.003C348.343 54.0505 348.359 54.2245 348.52 54.2403C352.675 54.9366 353.919 59.3196 354.275 61.3608C354.307 61.5032 354.55 61.5032 354.582 61.3608C355.503 56.8195 358.898 54.4619 359.884 53.8606C359.981 53.7973 359.965 53.6707 359.835 53.639C356.069 52.7371 354.695 48.8446 354.226 46.7084C354.194 46.566 353.935 46.5819 353.919 46.7084V46.7401Z" fill="#E68E67"/>
    <path d="M335.492 28.7718C336.063 34.5169 339.749 36.3265 341.307 36.836C341.462 36.8887 341.445 37.082 341.272 37.0996C336.824 37.8726 335.492 42.7392 335.111 45.0056C335.076 45.1637 334.817 45.1637 334.782 45.0056C333.796 39.9633 330.161 37.3455 329.105 36.6779C329.002 36.6076 329.019 36.4671 329.157 36.4319C333.19 35.4305 334.661 31.1085 335.163 28.7367C335.197 28.5786 335.474 28.5961 335.492 28.7367V28.7718Z" fill="white"/>
    <defs>
        <linearGradient id="paint0_linear_592_6714" x1="0" y1="49" x2="384" y2="49" gradientUnits="userSpaceOnUse">
            <stop stop-color="#FFECE4"/>
            <stop offset="1" stop-color="#FFD2BD"/>
        </linearGradient>
        <clipPath id="clip0_592_6714">
            <rect width="180" height="82" fill="white" transform="translate(194)"/>
        </clipPath>
    </defs>
</svg>
