<svg focusable="false" aria-hidden="true" viewBox="0 0 36 37" width="36" height="37" fill="none" xmlns="http://www.w3.org/2000/svg" class="MuiSvgIcon-root MuiSvgIcon-sizeMd MuiSvgIcon-fontSizeXl4 daophatkhatsi-joy-touoap"><g clip-path="url(#clip0_235_110)"><path d="M36 18.5C36 8.55781 27.9422 0.5 18 0.5C8.05781 0.5 0 8.55781 0 18.5C0 28.4422 8.05781 36.5 18 36.5C18.1055 36.5 18.2109 36.5 18.3164 36.493V22.4867H14.4492V17.9797H18.3164V14.6609C18.3164 10.8148 20.6648 8.71953 24.0961 8.71953C25.7414 8.71953 27.1547 8.83906 27.5625 8.89531V12.9172H25.2C23.3367 12.9172 22.9711 13.8031 22.9711 15.1039V17.9727H27.4359L26.8523 22.4797H22.9711V35.8039C30.4945 33.6453 36 26.7195 36 18.5Z" fill="#E0E0E0"></path></g><defs><clipPath id="clip0_235_110"><rect width="36" height="36" fill="white" transform="translate(0 0.5)"></rect></clipPath></defs></svg>