<svg width="1920" height="587" viewBox="0 0 1920 587" fill="none" xmlns="http://www.w3.org/2000/svg">
    <g clip-path="url(#clip0_462_3987)">
        <rect width="1920" height="587" fill="url(#paint0_linear_462_3987)"/>
        <path d="M1956.93 187.357C1947.16 186.819 1937.56 186.417 1928 185.701C1918.38 184.984 1909.03 182.782 1899.8 179.861C1900.04 180.963 1900.91 181.153 1901.66 181.362C1906.04 182.627 1910.4 183.995 1914.84 184.998C1923.77 187.005 1932.9 187.359 1942.01 187.604C1946.26 187.735 1950.52 187.615 1954.78 187.591C1955.43 187.603 1956.05 187.471 1956.93 187.357Z"
              fill="#FFEAD2"/>
        <path d="M1731.53 245.604C1742.37 242.688 1753.61 237.133 1764.57 230.905C1770.18 227.722 1775.54 224.218 1780.38 219.925C1781.21 219.178 1781.98 218.338 1782.58 217.322C1779.68 218.885 1777.39 221.267 1774.71 223.088C1771.89 224.986 1769.11 226.93 1766.21 228.7C1763.39 230.448 1760.48 232.051 1757.57 233.637C1754.66 235.222 1751.72 236.778 1748.75 238.23C1745.72 239.72 1742.63 241.169 1739.53 242.491C1736.48 243.798 1733.33 244.923 1731.53 245.604Z"
              fill="#FFEAD2"/>
        <path d="M1758.88 165.787C1764.81 169.424 1771.38 172.451 1777.98 175.411C1783.73 177.986 1789.51 180.459 1795.61 182.035C1799.05 182.924 1802.54 183.552 1806.01 184.202C1806.96 184.388 1807.97 184.271 1808.96 184.292C1808.99 184.132 1809.01 183.972 1809.04 183.795C1808.23 183.642 1807.43 183.448 1806.62 183.317C1799.03 182.04 1791.59 180.091 1784.5 177.147C1775.74 173.515 1767.19 169.499 1758.88 165.787Z"
              fill="#FFEAD2"/>
        <path d="M1777.79 115.352C1768.69 101.89 1758.38 89.5946 1752 74.777C1751.45 76.0817 1751.35 76.1707 1751.97 77.5182C1753.08 79.9462 1754.17 82.4021 1755.53 84.699C1761.85 95.2697 1768.93 105.305 1776.95 114.659C1777.09 114.823 1777.28 114.937 1777.79 115.352Z"
              fill="#FFEAD2"/>
        <path d="M1877.25 138.362C1875.16 142.408 1873.25 146.533 1870.97 150.465C1865.94 159.176 1859.66 166.769 1850.69 171.749C1849.95 172.165 1849.16 172.499 1848.39 172.903C1848.33 172.941 1848.38 173.172 1848.38 173.436C1849.35 173.864 1850.17 173.347 1850.96 172.92C1856.66 169.878 1861.48 165.762 1865.35 160.589C1867.64 157.523 1869.93 154.384 1871.77 151.02C1873.99 146.989 1875.74 142.688 1877.69 138.512C1877.54 138.462 1877.39 138.412 1877.25 138.362Z"
              fill="#FFEAD2"/>
        <path d="M1699.4 179.266C1688.1 172.026 1675.9 166.047 1666.88 155.33C1666.48 156.42 1666.86 157.044 1667.4 157.638C1668.62 158.973 1669.74 160.415 1671.09 161.615C1679.55 169.014 1689.15 174.647 1699.4 179.266Z"
              fill="#FFEAD2"/>
        <path d="M1817.05 190.344C1816.29 190.708 1815.56 191.119 1814.79 191.448C1812.01 192.635 1809.08 192.918 1806.07 192.883C1799.16 192.783 1792.39 191.638 1785.6 190.497C1782.88 190.034 1780.19 189.468 1777.49 188.96C1777.05 188.868 1776.59 188.781 1776.07 189.013C1776.39 189.142 1776.7 189.294 1777.02 189.389C1787.09 192.224 1797.33 194.002 1807.84 194.072C1810.19 194.078 1812.42 193.57 1814.63 192.786C1815.99 192.278 1816.3 191.993 1817.05 190.344Z"
              fill="#FFEAD2"/>
        <path d="M1758.78 115.874C1767.2 131.435 1780.12 141.896 1796.09 148.911C1780.99 140.893 1767.93 130.571 1758.78 115.874Z"
              fill="#FFEAD2"/>
        <path d="M1899.02 170.053C1900.06 170.115 1901.12 170.362 1902.14 170.205C1905.41 169.743 1908.74 169.356 1911.95 168.553C1917.71 167.124 1923.43 165.557 1929.08 163.764C1933.61 162.331 1938.05 160.511 1942.42 158.558C1935.29 160.724 1928.2 162.972 1921.04 165.034C1913.84 167.106 1906.59 169.023 1899.03 169.388C1899.03 169.634 1899.03 169.841 1899.02 170.053Z"
              fill="#FFEAD2"/>
        <path d="M1853.51 28.7647C1855.36 43.2886 1854.21 57.7202 1853.2 72.167C1854.24 69.7855 1855.16 60.7116 1855.43 50.318C1855.75 37.562 1855.17 30.232 1853.51 28.7647Z"
              fill="#FFEAD2"/>
        <path d="M1851.7 114.66C1858.19 95.2314 1863.14 75.5149 1863.4 54.8521C1862.15 75.3046 1857.61 95.124 1851.7 114.66Z"
              fill="#FFEAD2"/>
        <path d="M1810.54 112.435C1803.66 91.9129 1792.14 74.1861 1777.65 58.2499C1791.56 74.5147 1802.82 92.3952 1810.54 112.435Z"
              fill="#FFEAD2"/>
        <path d="M1788.52 223.821C1785.44 227.409 1782.54 231.152 1779.24 234.523C1775.87 237.972 1772.2 241.172 1768.5 244.268C1764.88 247.28 1761.06 250.034 1757.4 253.022C1760.08 251.259 1762.88 249.613 1765.45 247.697C1772.64 242.291 1779.61 236.609 1785.21 229.468C1786.23 228.154 1787.2 226.797 1788.15 225.428C1788.44 225 1788.61 224.494 1788.84 224.007C1788.73 223.947 1788.61 223.886 1788.52 223.821Z"
              fill="#FFEAD2"/>
        <path d="M1839.32 76.0793C1839.35 72.3742 1839.53 68.6789 1839.4 64.9864C1839.18 58.1364 1838.36 51.3335 1836.95 44.6178C1836.7 43.4236 1836.5 42.2136 1836.19 41.0178C1836.11 40.6829 1835.73 40.4201 1835.48 40.1153C1835.34 40.1574 1835.19 40.2222 1835.05 40.2644C1835.7 44.1826 1836.43 48.0919 1836.98 52.0192C1837.53 56.0211 1838.01 60.0268 1838.35 64.0347C1838.69 68.0252 1838.81 72.0442 1839.04 76.049C1839.12 76.0626 1839.22 76.071 1839.32 76.0793Z"
              fill="#FFEAD2"/>
        <path d="M1895.85 21.4003C1894.68 22.2294 1894.99 23.4825 1894.83 24.534C1894.51 26.7341 1894.52 29.0061 1894.02 31.1669C1892.06 39.5531 1889.97 47.9014 1888.06 55.7211C1890.89 52.3607 1897.31 25.3922 1895.85 21.4003Z"
              fill="#FFEAD2"/>
        <path d="M1822.58 110.75C1821.77 104.418 1819.66 98.3893 1817.65 92.3461C1815.62 86.2336 1813.04 80.347 1808.9 75.2734C1808.33 74.5753 1807.66 73.9436 1806.8 73.4671C1809.11 77.2755 1811.7 80.9421 1813.65 84.9184C1815.63 88.9989 1817.1 93.3468 1818.57 97.6374C1820.03 101.991 1821.25 106.395 1822.58 110.75Z"
              fill="#FFEAD2"/>
        <path d="M1809.73 135.292C1809.38 134.146 1809.12 132.975 1808.68 131.879C1805.83 124.895 1802.03 118.413 1797.98 112.08C1795.15 107.633 1792.15 103.295 1789.21 98.9193C1788.93 98.5103 1788.6 98.1171 1788.2 97.785C1795.77 110.042 1803.97 121.936 1809.15 135.506C1809.36 135.425 1809.55 135.367 1809.73 135.292Z"
              fill="#FFEAD2"/>
        <path d="M1706.9 120.223C1707.34 120.716 1707.69 121.328 1708.22 121.698C1709.15 122.383 1710.16 122.949 1711.18 123.51C1718.21 127.382 1725.46 130.83 1732.9 133.858C1733.07 133.937 1733.26 133.937 1733.55 133.772C1724.78 129.159 1716.03 124.558 1707.25 119.945C1707.14 120.017 1707.02 120.129 1706.9 120.223Z"
              fill="#FFEAD2"/>
        <path d="M1824.1 97.6654C1826.22 103.712 1826.82 110.067 1827.67 116.349C1828.52 122.63 1828.6 128.955 1827.7 135.293C1828.66 134.699 1828.65 133.752 1828.8 132.913C1829.44 129.115 1829.4 125.299 1829.05 121.463C1828.32 113.326 1827.19 105.293 1824.1 97.6654Z"
              fill="#FFEAD2"/>
        <path d="M1948.57 203.086C1948.3 203.073 1948.01 202.991 1947.79 203.077C1943.3 204.631 1938.66 204.598 1934.04 203.992C1928.6 203.278 1923.2 202.301 1917.71 201.43C1917.9 201.562 1918.08 201.733 1918.29 201.802C1925.73 204.09 1933.33 205.574 1941.15 205.359C1943.35 205.298 1945.55 204.611 1947.72 204.159C1948.1 204.083 1948.39 203.747 1948.75 203.544C1948.7 203.37 1948.64 203.237 1948.57 203.086Z"
              fill="#FFEAD2"/>
        <path d="M1846.37 153.028C1846.96 152.355 1847.71 151.75 1848.14 150.976C1852.64 142.709 1855.45 133.858 1856.87 124.574C1854.01 134.239 1851.13 143.908 1845.96 152.679C1846.11 152.786 1846.24 152.898 1846.37 153.028Z"
              fill="#FFEAD2"/>
        <path d="M1855.79 239.116C1857.58 243.725 1859.45 248.049 1860.94 252.483C1862.47 257.005 1863.61 261.642 1864.81 265.771C1864.51 258.092 1858.91 240.84 1855.79 239.116Z"
              fill="#FFEAD2"/>
        <path d="M1790.93 245.358C1787.86 248.925 1784.93 252.621 1781.67 255.998C1778.51 259.269 1775.03 262.205 1771.28 265.672C1772.17 265.461 1772.6 265.461 1772.88 265.262C1774.57 264.011 1776.32 262.836 1777.84 261.408C1782.46 257.086 1786.59 252.361 1790.11 247.103C1790.47 246.579 1790.77 246.014 1791.11 245.455C1791.05 245.436 1790.98 245.4 1790.93 245.358Z"
              fill="#FFEAD2"/>
        <path d="M1881.86 82.4892C1881.6 91.1162 1881.35 99.3418 1881.09 107.515C1882.61 101.424 1882.88 95.1434 1882.94 88.8517C1882.97 86.9305 1882.66 84.9947 1882.5 83.0741C1882.49 82.9248 1882.2 82.7851 1881.86 82.4892Z"
              fill="#FFEAD2"/>
        <path d="M1698.47 248.444C1699.29 248.363 1700.15 248.386 1700.94 248.184C1702.56 247.768 1704.18 247.37 1705.71 246.717C1710.5 244.712 1715.25 242.607 1719.99 240.503C1720.44 240.309 1720.8 239.934 1721.45 239.453C1713.58 242.373 1706 245.187 1698.43 248.001C1698.45 248.145 1698.46 248.295 1698.47 248.444Z"
              fill="#FFEAD2"/>
        <path d="M1888 269.813C1888.97 266.07 1880.33 251.542 1875.17 247.955C1880.34 254.892 1885.22 261.695 1888 269.813Z"
              fill="#FFEAD2"/>
        <path d="M1925.98 191.183C1917.2 188.979 1908.37 187.302 1900.1 183.58C1900.03 183.733 1899.95 183.909 1899.88 184.062C1900.3 184.372 1900.67 184.789 1901.15 184.986C1902.6 185.644 1904.04 186.343 1905.55 186.813C1911.98 188.805 1918.53 190.243 1925.19 191.179C1925.45 191.232 1925.72 191.188 1925.98 191.183Z"
              fill="#FFEAD2"/>
        <path d="M1805.58 235.621C1801.82 241.974 1798.06 248.31 1794.45 254.408C1797.54 252.202 1805.8 238.966 1805.58 235.621Z"
              fill="#FFEAD2"/>
        <path d="M1720.61 192.382C1727.89 196.427 1735.69 198.644 1743.76 200.02C1744.36 200.122 1744.98 200.047 1745.63 199.795C1743.66 198.687 1741.4 198.804 1739.33 198.22C1737.24 197.642 1735.12 197.166 1733.03 196.588C1730.88 195.991 1728.71 195.399 1726.6 194.677C1724.57 194.003 1722.61 193.159 1720.61 192.382Z"
              fill="#FFEAD2"/>
        <path d="M1896.6 200.525C1897.06 203.285 1898.92 205.148 1901.02 206.633C1905.63 209.912 1910.72 212.326 1916.23 213.914C1915.79 213.65 1915.36 213.363 1914.89 213.127C1911.91 211.624 1908.92 210.184 1905.98 208.631C1902.43 206.751 1899.31 204.327 1897.06 200.916C1896.96 200.758 1896.75 200.649 1896.6 200.525Z"
              fill="#FFEAD2"/>
        <path d="M1907.53 122.815C1903.86 129.273 1900.67 135.928 1895.47 141.279C1895.59 141.414 1895.69 141.554 1895.81 141.689C1896.31 141.405 1896.9 141.225 1897.29 140.84C1898.11 140.024 1898.88 139.145 1899.52 138.192C1902.68 133.498 1905.45 128.564 1907.55 123.303C1907.59 123.195 1907.53 123.061 1907.53 122.815Z"
              fill="#FFEAD2"/>
        <path d="M1831.46 262.614C1835.39 257.344 1839.51 245.253 1838.32 242.467C1837.32 245.957 1836.46 249.324 1835.34 252.622C1834.25 255.874 1832.88 259.038 1831.46 262.614Z"
              fill="#FFEAD2"/>
        <path d="M1808.88 248.187C1805.66 255.174 1802.94 262.255 1798 268.134C1801.7 266.421 1807.97 254.794 1808.88 248.187Z"
              fill="#FFEAD2"/>
        <path d="M1700.74 145.5C1701.2 146.952 1702.21 147.593 1703.19 148.113C1707.48 150.391 1711.8 152.584 1716.12 154.8C1716.88 155.193 1717.72 155.451 1718.66 155.562C1712.8 152.261 1706.96 148.977 1700.74 145.5Z"
              fill="#FFEAD2"/>
        <path d="M1839.8 191.925C1839.24 194.56 1844.3 203.978 1848.2 208.156C1845.31 202.554 1842.56 197.248 1839.8 191.925Z"
              fill="#FFEAD2"/>
        <path d="M1787.36 222.143C1781.39 228.184 1775.68 233.974 1770.2 239.506C1773.07 238.121 1785.78 225.525 1787.36 222.143Z"
              fill="#FFEAD2"/>
        <path d="M1848.36 175.547C1849.49 176.57 1850.32 176.013 1851.01 175.652C1855.96 172.934 1860.53 169.69 1864.34 165.461C1859.31 169.112 1854.51 173.13 1848.36 175.547Z"
              fill="#FFEAD2"/>
        <path d="M1750.97 82.3679C1751.34 85.1945 1758.14 95.279 1762.36 99.3396C1758.56 93.6899 1754.82 88.0991 1750.97 82.3679Z"
              fill="#FFEAD2"/>
        <path d="M1821.4 270.806C1826.31 265.677 1830.23 259.936 1832.48 253.187C1832.35 253.115 1832.21 253.025 1832.05 252.958C1831.33 254.504 1830.65 256.075 1829.87 257.62C1829.09 259.165 1828.29 260.716 1827.39 262.183C1826.45 263.719 1825.42 265.205 1824.4 266.692C1823.43 268.066 1822.41 269.439 1821.4 270.806Z"
              fill="#FFEAD2"/>
        <path d="M1707.77 265.084C1712.57 264.043 1716.82 261.558 1721.19 259.358C1719.11 259.629 1717.07 260.096 1715.21 261.079C1714.34 261.532 1713.51 262.106 1712.63 262.49C1710.95 263.207 1709.24 263.839 1707.56 264.522C1707.61 264.695 1707.69 264.898 1707.77 265.084Z"
              fill="#FFEAD2"/>
        <path d="M1904.38 86.6052C1902.41 91.79 1900.57 96.6686 1898.72 101.535C1900.4 99.3946 1901.53 96.9468 1902.55 94.4385C1905.02 88.4581 1905.02 88.4581 1904.38 86.6052Z"
              fill="#FFEAD2"/>
        <path d="M1798.48 121.215C1801.65 126.831 1804.8 132.469 1808.05 138.23C1808.47 137.38 1808.07 136.67 1807.75 136.065C1805.04 130.823 1802.01 125.773 1798.48 121.215Z"
              fill="#FFEAD2"/>
        <path d="M1755.61 182.681C1756.22 184.2 1757.1 184.901 1758.15 185.376C1760.52 186.438 1762.91 187.495 1765.33 188.466C1766.99 189.136 1768.74 189.648 1770.61 189.933C1770.17 189.687 1769.74 189.4 1769.28 189.198C1766.69 188.09 1764.06 187.05 1761.51 185.874C1760.14 185.246 1758.91 184.37 1757.59 183.634C1757.06 183.339 1756.5 183.112 1755.61 182.681Z"
              fill="#FFEAD2"/>
        <path d="M1867.3 190.34C1861.66 192.071 1856.15 190.655 1850.45 189.733C1854.39 192.346 1863.47 192.733 1867.3 190.34Z"
              fill="#FFEAD2"/>
        <path d="M1892.55 19.5219C1891.71 24.5534 1890.88 29.5624 1890.04 34.594C1890.11 34.6302 1890.19 34.6612 1890.26 34.6974C1890.46 34.2208 1890.72 33.7631 1890.83 33.2555C1891.67 29.5892 1892.5 25.923 1893.24 22.231C1893.42 21.381 1893.13 20.444 1893.07 19.5357C1892.9 19.5485 1892.72 19.5265 1892.55 19.5219Z"
              fill="#FFEAD2"/>
        <path d="M1851.51 29.7893C1851.97 35.6189 1852.42 41.4538 1852.87 47.266C1853.35 41.3411 1853.23 35.4634 1852.04 29.6659C1851.86 29.7012 1851.68 29.7366 1851.51 29.7893Z"
              fill="#FFEAD2"/>
        <path d="M1786.95 174.849C1788.52 176.514 1801.64 180.849 1804.53 180.444C1798.63 178.748 1792.71 177.04 1786.95 174.849Z"
              fill="#FFEAD2"/>
        <path d="M1716.59 128.784C1712.32 126.082 1708.03 123.385 1703.76 120.683C1704.67 122.796 1712.44 127.657 1716.59 128.784Z"
              fill="#FFEAD2"/>
        <path d="M1867.4 236.554C1868.66 237.402 1869.92 238.233 1871.18 239.082C1872.43 239.936 1873.69 240.784 1874.91 241.683C1876.2 242.619 1877.44 243.587 1878.77 244.455C1875.69 240.878 1872.2 237.824 1867.91 235.85C1867.74 236.092 1867.58 236.329 1867.4 236.554Z"
              fill="#FFEAD2"/>
        <path d="M1684.22 144.683C1689.13 149.141 1694.15 153.492 1700.3 156.285C1694.94 152.418 1689.58 148.55 1684.22 144.683Z"
              fill="#FFEAD2"/>
        <path d="M1677.35 169.93C1674 166.834 1670.64 163.76 1667.29 160.664C1667.22 160.685 1667.13 160.694 1667.06 160.716C1667.29 161.232 1667.43 161.856 1667.79 162.256C1670.56 165.301 1673.67 167.938 1677.35 169.93Z"
              fill="#FFEAD2"/>
        <path d="M1701.8 243.812C1706.56 242.385 1711.36 241.229 1715.88 238.89C1711.09 240.344 1706.39 241.773 1701.69 243.218C1701.67 243.224 1701.74 243.432 1701.8 243.812Z"
              fill="#FFEAD2"/>
        <path d="M1898.6 167.053C1903.79 166.917 1908.63 165.01 1913.55 163.553C1908.56 164.578 1903.55 165.608 1898.55 166.632C1898.56 166.782 1898.58 166.926 1898.6 167.053Z"
              fill="#FFEAD2"/>
        <path d="M1856.18 251.162C1855.8 247.583 1855.7 243.938 1853.6 240.784C1853.37 240.892 1853.3 240.913 1853.23 240.952C1853.19 240.985 1853.12 241.063 1853.13 241.098C1854.15 244.464 1855.17 247.813 1856.18 251.162Z"
              fill="#FFEAD2"/>
        <path d="M1830.08 193.551C1829.59 196.866 1829.1 200.18 1828.63 203.489C1830.41 200.37 1831.03 197.053 1830.63 193.555C1830.45 193.573 1830.25 193.556 1830.08 193.551Z"
              fill="#FFEAD2"/>
        <path d="M1852.79 193.932C1856.4 195.469 1860.06 196.405 1863.96 194.84C1860.18 195.06 1856.48 194.611 1852.79 193.932Z"
              fill="#FFEAD2"/>
        <path d="M1837.38 192.887C1836.73 195.927 1838.66 198.222 1839.71 200.786C1839.46 198.02 1838.58 195.403 1837.38 192.887Z"
              fill="#FFEAD2"/>
        <path d="M1899.97 89.9518C1901.89 87.2667 1902.94 84.2945 1903.75 81.2242C1903.49 81.1313 1903.26 81.0504 1903 80.9575C1902.48 82.4809 1901.98 83.9991 1901.45 85.5225C1900.97 86.9954 1900.47 88.4736 1899.97 89.9518Z"
              fill="#FFEAD2"/>
        <path d="M1769.26 263.994C1772.04 262.543 1774.42 260.571 1776.47 258.165C1773.95 259.956 1771.44 261.741 1768.91 263.532C1769.03 263.684 1769.15 263.837 1769.26 263.994Z"
              fill="#FFEAD2"/>
        <path d="M1831.69 126.955C1831.18 130.16 1830.66 133.37 1830.15 136.575C1830.31 136.602 1830.47 136.629 1830.65 136.634C1831.77 133.526 1831.95 130.267 1831.69 126.955Z"
              fill="#FFEAD2"/>
        <path d="M1879.85 82.5498C1879.93 85.294 1880.02 88.033 1880.12 91.1506C1881.09 88.1822 1881.16 83.9732 1880.39 82.5011C1880.2 82.5191 1880.02 82.5371 1879.85 82.5498Z"
              fill="#FFEAD2"/>
        <path d="M1693.87 155.057C1696.51 156.889 1698.82 158.31 1701.56 158.918C1699.17 157.712 1696.75 156.494 1693.87 155.057Z"
              fill="#FFEAD2"/>
        <path d="M1740.49 195.687C1738.21 195.092 1735.94 194.492 1733.66 193.897C1735.77 195.038 1738.03 195.696 1740.37 196.103C1740.41 195.96 1740.44 195.818 1740.49 195.687Z"
              fill="#FFEAD2"/>
        <path d="M1908.89 233.98C1911.45 233.865 1913.66 233.781 1915.88 233.657C1922.98 233.28 1930 232.172 1936.8 230.031C1944.36 227.659 1951.4 224.119 1957.98 219.655C1964.6 215.163 1970.86 210.248 1975.99 204.064C1979.36 200.007 1982.01 195.546 1983.66 190.513C1985.7 184.246 1985.23 178.21 1981.99 172.466C1977.77 164.992 1974.54 157.103 1972.27 148.827C1971.36 145.521 1969.97 142.438 1968.14 139.526C1965.6 135.464 1961.98 132.963 1957.52 131.323C1952.42 129.46 1947.2 129.319 1941.93 129.671C1935.33 130.102 1928.82 131.149 1922.54 133.246C1919.68 134.19 1916.95 135.551 1914.07 136.748C1914.18 136.412 1914.26 135.972 1914.44 135.576C1917.05 130.138 1919.29 124.513 1920.57 118.627C1922.47 109.901 1923.36 101.044 1922.15 92.1426C1921.79 89.448 1920.85 86.7953 1919.91 84.2173C1917.52 77.7047 1916.15 71.0132 1915.77 64.0785C1915.43 57.8507 1914.69 51.6695 1912.96 45.6566C1910.05 35.6249 1905.29 26.7198 1896.49 20.5627C1894.73 19.3337 1892.81 18.1921 1890.8 17.5129C1888.08 16.5964 1885.21 17.1446 1882.4 17.5625C1877.35 18.3215 1872.58 19.995 1867.85 21.8698C1864.07 23.3575 1860.15 24.4739 1856.37 25.9443C1842.59 31.2651 1831.65 39.9721 1824.31 52.9467C1822.28 56.5406 1821.29 60.461 1820.74 64.5136C1820.67 65.0854 1820.58 65.6624 1820.46 66.2273C1820.44 66.3472 1820.3 66.4467 1820.22 66.5477C1817.84 64.7685 1815.51 62.9561 1813.09 61.2447C1809.44 58.6569 1805.4 56.8903 1801.09 55.736C1797.09 54.6589 1793.22 53.2356 1789.64 51.1027C1784.83 48.26 1779.6 47.8211 1774.3 49.1646C1768.95 50.5066 1764.68 55.5951 1764.38 61.3526C1764.21 64.4346 1764.65 67.5442 1764.85 70.6475C1764.91 71.7277 1765.09 72.7937 1765.25 74.3356C1764.44 73.8607 1763.92 73.5654 1763.43 73.2597C1761.72 72.1469 1760.11 70.8931 1758.33 69.956C1755.62 68.5235 1753.49 69.1145 1752.21 71.8911C1751.26 73.9597 1750.53 76.2864 1750.39 78.5258C1750.06 83.6512 1749.95 88.7827 1750.12 93.9046C1750.28 98.9745 1750.52 104.035 1749.7 109.062C1749.59 109.759 1749.46 110.461 1749.32 111.3C1748.77 111.125 1748.34 111.067 1747.99 110.869C1742.42 107.822 1736.37 107.028 1730.13 106.912C1725.4 106.814 1720.74 107.073 1716.28 108.921C1712.91 110.305 1710.08 112.414 1708.01 115.376C1707.21 116.508 1706.9 117.985 1706.26 119.62C1705.51 119.583 1704.45 119.566 1703.39 119.451C1698.63 119.002 1693.87 118.702 1689.09 119.245C1683.82 119.843 1678.88 121.305 1674.59 124.541C1667.47 129.925 1664.91 137.297 1665.39 145.927C1665.7 151.557 1666.14 157.168 1666.39 162.814C1666.5 165.055 1666.33 167.305 1666.23 169.534C1666.04 173.877 1667.5 177.622 1670.28 180.91C1673.44 184.649 1677.21 187.693 1681.24 190.429C1688.75 195.484 1696.93 199.14 1705.38 202.334C1720.72 208.138 1736.56 210.262 1752.87 209.725C1753.81 209.687 1754.83 210.076 1755.71 210.513C1756.93 211.125 1758.04 211.946 1759.21 212.689C1759.25 212.714 1759.27 212.823 1759.33 212.956C1759.21 213.068 1759.08 213.277 1758.93 213.324C1756.33 213.926 1753.7 214.457 1751.1 215.133C1748.87 215.716 1746.65 216.391 1744.46 217.169C1741.81 218.108 1739.17 219.155 1736.55 220.198C1726.3 224.277 1716.32 228.787 1707.63 235.805C1700.93 241.213 1696.69 248.018 1694.74 256.398C1693.3 262.579 1696.3 268.528 1701.24 271.179C1703.51 272.405 1706 273.315 1708.51 274.013C1716.06 276.155 1723.88 276.945 1731.64 277.905C1734.14 278.225 1736.67 278.459 1739.2 278.544C1745.12 278.738 1750.82 279.924 1756.49 281.556C1761.6 283.018 1766.8 284.053 1772.14 283.589C1774.8 283.368 1777.46 282.957 1780.05 282.361C1789.89 280.073 1798.61 275.511 1806.35 269.064C1806.69 268.792 1807.06 268.567 1807.54 268.213C1808.07 269.983 1808.38 271.689 1809.11 273.212C1809.98 275.013 1811.01 276.825 1812.31 278.323C1817.15 283.886 1823.11 287.723 1830.4 289.319C1832.17 289.711 1833.95 290.023 1835.75 290.272C1842.26 291.25 1848.78 292.303 1855.31 293.144C1859.39 293.667 1863.48 294.149 1867.63 293.572C1872.81 292.851 1877.37 290.708 1881.48 287.697C1893.05 279.179 1901.85 268.395 1907.46 255.11C1909.59 250.085 1910.58 244.856 1909.92 239.389C1909.7 237.73 1909.27 236.044 1908.89 233.98ZM1821.9 68.5205C1822.03 67.0956 1822.15 65.7161 1822.32 64.3554C1823.28 56.7283 1826.91 50.3775 1831.92 44.7236C1839.82 35.7856 1849.49 29.5114 1860.86 25.8698C1863 25.1816 1865.16 24.5627 1867.24 23.7409C1872.63 21.5911 1878.05 19.5854 1883.86 18.8811C1887.92 18.3878 1891.67 18.672 1895.14 21.3698C1898.54 24.0314 1901.78 26.7631 1904.18 30.3557C1905.01 31.6001 1905.76 32.9854 1906.17 34.4136C1907.77 39.8779 1907.75 45.4018 1906.39 50.9302C1905.59 54.1499 1904.77 57.3749 1903.94 60.5825C1901.89 68.5416 1901.19 76.6577 1903 84.6748C1904.36 90.741 1906.67 96.5799 1908.46 102.537C1909.6 106.342 1910.81 110.161 1911.55 114.071C1912.65 119.952 1912.26 125.908 1911.33 131.78C1910.35 138.087 1908.24 144.054 1904.31 149.077C1901.6 152.533 1898.26 155.518 1895.16 158.642C1894.57 159.217 1893.74 159.659 1892.94 159.884C1891.23 160.366 1889.46 160.674 1887.65 161.073C1887.82 160.699 1887.97 160.238 1888.22 159.82C1890.57 155.828 1892.55 151.682 1894.26 147.333C1897.32 139.562 1899.08 131.56 1899.75 123.283C1900.59 113.076 1899.43 103.195 1895.07 93.83C1893.33 90.1118 1891.01 86.8194 1887.76 84.2424C1881.29 79.1177 1873.21 80.6618 1869.38 87.9479C1868.12 90.3406 1867.33 93.0617 1866.72 95.7128C1865.72 99.9772 1866.05 104.369 1866.52 108.679C1867.06 113.673 1866.28 118.23 1863.81 122.695C1859.64 130.253 1857.29 138.492 1855.52 146.877C1854.46 151.84 1853.53 156.806 1852.37 161.743C1852.04 163.151 1851.2 164.431 1850.54 165.881C1850.25 165.61 1850.16 165.561 1850.16 165.504C1850.13 165.136 1850.09 164.785 1850.08 164.429C1849.82 158.88 1848 153.766 1845.21 149.061C1844.01 147.073 1843.62 145.106 1843.59 142.937C1843.59 141.858 1843.71 140.777 1843.78 139.695C1844.59 127.376 1844.43 115.124 1841.13 103.086C1839.41 96.7687 1837.12 90.6952 1833.85 85.0195C1830.45 79.2086 1826.45 73.7889 1821.9 68.5205ZM1800.69 169.785C1798.31 168.063 1796.96 165.99 1795.43 164.085C1792.26 160.139 1789.24 156.053 1785.89 152.257C1781.31 147.051 1775.8 143.134 1769 141.219C1767.12 140.692 1765.3 139.955 1763.47 139.28C1755.38 136.298 1751.41 130.242 1750.54 121.866C1750.09 117.643 1750.59 113.474 1751.14 109.324C1751.74 104.86 1751.91 100.412 1751.61 95.8954C1751.33 91.7917 1751.29 87.6543 1751.42 83.5388C1751.53 80.5873 1752.04 77.6465 1752.56 74.7404C1752.86 73.0961 1753.67 71.5978 1755.5 70.5111C1756.46 70.9038 1757.66 71.2402 1758.66 71.8638C1760.32 72.8778 1761.87 74.1127 1763.49 75.2119C1764.35 75.803 1765.23 76.6528 1766.66 75.5553C1766.61 74.4525 1766.57 73.1777 1766.48 71.8961C1766.25 68.5913 1765.74 65.2615 1765.81 61.9591C1765.94 56.5756 1770.15 50.6536 1777.52 50.0829C1779.89 49.8941 1781.99 50.0884 1783.7 51.9012C1784.57 52.831 1785.55 53.6893 1786.28 54.7185C1788.29 57.5378 1790.2 60.446 1792.15 63.321C1795.9 68.7971 1800.97 72.4501 1807.33 74.3304C1809.14 74.8609 1810.95 75.3914 1812.76 75.882C1816.48 76.8941 1820.12 78.1393 1823.47 80.0593C1827.28 82.2384 1830.53 85.0221 1833.1 88.6767C1838.43 96.2492 1840.7 104.847 1841.82 113.832C1842.92 122.765 1843.04 131.712 1842.23 140.697C1842.12 141.79 1842.08 142.902 1841.99 144.276C1841.28 143.638 1840.85 143.276 1840.44 142.869C1837.73 140.169 1834.54 138.236 1831.07 136.657C1827.49 135.035 1823.69 134.709 1819.9 134.062C1812.84 132.868 1806.77 136.836 1804.1 142.65C1802.19 146.832 1800.65 151.243 1800.2 155.946C1799.78 160.45 1799.98 164.901 1800.69 169.785ZM1749.14 113.269C1749.09 114.042 1749.06 114.753 1749.01 115.451C1748.77 118.783 1748.86 122.13 1749.67 125.371C1751.2 131.539 1753.79 137.253 1757.4 142.508C1762.53 150.006 1769.25 155.832 1777.23 160.079C1783.83 163.572 1790.63 166.681 1797.34 169.948C1798.77 170.652 1800.2 171.315 1801.52 171.959C1803 177.649 1805.67 182.374 1809.74 186.614C1808.81 186.801 1808.24 186.992 1807.71 186.984C1805.39 186.967 1803.07 187.048 1800.77 186.797C1794.27 186.1 1788.07 184.402 1781.95 181.92C1771.47 177.674 1761.69 172.231 1752.14 166.26C1742.43 160.188 1732.75 154.03 1722.45 148.952C1718.55 147.029 1714.56 145.263 1710.52 143.669C1708.67 142.942 1706.6 142.565 1704.61 142.431C1701.39 142.253 1698.94 144.304 1698.62 147.491C1698.42 149.39 1698.57 151.431 1699.03 153.279C1700.32 158.402 1703.3 162.636 1706.98 166.274C1711.42 170.65 1716.04 174.836 1720.7 178.955C1727.53 185.013 1734.55 190.84 1741.33 196.949C1745.09 200.337 1748.51 204.112 1752.09 207.708C1752.22 207.838 1752.25 208.056 1752.42 208.422C1751.97 208.462 1751.64 208.545 1751.31 208.53C1748.21 208.372 1745.07 208.397 1742.01 207.982C1735.39 207.075 1729.23 204.661 1723.55 201.193C1720.34 199.23 1717.39 196.868 1714.32 194.691C1712.55 193.428 1710.92 191.915 1708.99 190.985C1705.74 189.412 1702.38 187.968 1698.93 186.952C1694.57 185.641 1690.06 184.774 1685.61 183.777C1681.21 182.781 1676.89 181.592 1672.79 179.652C1669.89 178.278 1668.12 176.05 1667.86 172.773C1667.74 171.255 1667.74 169.741 1667.71 168.231C1667.65 163.531 1667.7 158.834 1667.53 154.131C1667.4 150.966 1666.8 147.812 1666.7 144.62C1666.32 133.308 1673.15 124.467 1684.09 121.675C1689.08 120.404 1694.1 120.263 1699.17 120.6C1701.26 120.742 1703.36 120.994 1705.46 121.079C1706.41 121.11 1707.56 121.33 1708.16 119.935C1707.81 117.671 1709.11 115.951 1710.67 114.358C1713.67 111.306 1717.31 109.327 1721.49 108.78C1727.99 107.904 1734.49 108.091 1740.91 109.646C1743.85 110.384 1746.53 111.655 1749.14 113.269ZM1881.53 228.414C1882.02 227.888 1882.19 227.646 1882.4 227.468C1886.79 223.994 1889.63 219.395 1891.91 214.42C1895.75 206.072 1897.91 197.227 1899.29 188.165C1900.21 182.069 1900.75 175.934 1899.7 169.79C1899.09 166.28 1898.28 162.81 1895.22 160.29C1895.8 159.754 1896.31 159.24 1896.85 158.773C1901.21 154.926 1905.21 150.754 1908.61 146.026C1909.2 145.222 1909.55 144.244 1910.09 143.416C1911 142.04 1911.74 140.356 1913.01 139.421C1915.03 137.955 1917.35 136.795 1919.68 135.86C1926.51 133.083 1933.73 131.877 1941.04 131.23C1945.52 130.817 1949.98 130.977 1954.29 132.378C1956.08 132.954 1957.9 133.577 1959.5 134.532C1962.03 136.017 1963.79 138.193 1963.87 141.333C1963.94 143.928 1963.92 146.532 1963.98 149.126C1964.05 151.136 1963.98 153.182 1964.3 155.17C1965.06 159.792 1967.75 163.203 1971.56 165.818C1973.83 167.364 1976.14 168.878 1978.34 170.543C1979.28 171.263 1980.06 172.276 1980.72 173.287C1982.41 175.827 1983.11 178.778 1983.16 181.739C1983.27 186.464 1981.86 190.643 1977.31 193.01C1975.27 194.068 1973.16 195.067 1970.98 195.806C1966.51 197.298 1961.95 198.529 1957.48 199.981C1952.74 201.517 1948.04 203.284 1943.74 205.842C1938.72 208.828 1933.72 211.918 1928.95 215.3C1920.22 221.497 1911.15 226.829 1900.65 229.565C1894.16 231.249 1888.07 230.047 1881.53 228.414ZM1827.34 244.059C1827.21 244.44 1827.16 244.663 1827.04 244.832C1821.63 252.827 1815.51 260.086 1806.56 264.36C1802.1 266.489 1797.59 268.353 1792.6 268.901C1785.69 269.656 1779.2 268.329 1772.98 265.385C1769.7 263.84 1766.49 262.124 1763.14 260.772C1760.4 259.672 1757.54 258.723 1754.66 258.175C1750.98 257.474 1747.38 257.979 1743.89 259.664C1740.01 261.545 1736.58 264.046 1733.19 266.628C1732.53 267.132 1731.78 267.531 1731.13 267.938C1730.78 267.647 1730.55 267.544 1730.46 267.363C1728.96 264.673 1726.51 263.58 1723.6 263.496C1721.15 263.425 1718.67 263.438 1716.24 263.705C1711.94 264.175 1707.66 264.68 1703.36 264.186C1701.81 264.012 1700.21 263.55 1698.81 262.858C1696.29 261.615 1695.54 259.661 1696.14 256.883C1697.74 249.669 1701.12 243.507 1706.69 238.534C1713.71 232.291 1721.84 227.943 1730.36 224.237C1734.08 222.616 1737.81 221.047 1741.58 219.559C1744.55 218.394 1747.55 217.31 1750.58 216.353C1752.87 215.64 1755.2 215.158 1757.55 214.653C1759.81 214.157 1761.94 213.87 1764.3 214.857C1769.68 217.147 1775.27 218.594 1781.05 217.218C1793.68 231.084 1808.98 240.026 1827.34 244.059ZM1780.33 212.471C1780.91 212.011 1781.61 211.174 1782.47 210.836C1784.22 210.172 1786.05 209.446 1787.89 209.324C1792.07 209.04 1796.27 209.015 1800.46 209.088C1804.74 209.151 1808.97 209.156 1813.21 208.323C1815.6 207.843 1818.1 207.634 1820.53 207.654C1827.77 207.728 1834 210.024 1838.31 216.261C1839.25 217.623 1840.26 218.964 1841.33 220.232C1843.03 222.256 1844.48 222.175 1845.71 219.85C1846.62 218.131 1847.32 216.291 1848.01 214.45C1850.93 206.778 1855.33 200.38 1862.68 196.234C1866.14 194.274 1868.74 191.343 1870.56 187.738C1872.47 183.991 1874.34 180.221 1876.48 176.595C1878.29 173.546 1880.29 170.588 1882.5 167.813C1884.72 165.033 1887.4 162.667 1891.02 161.755C1893.75 161.076 1895.59 161.883 1896.56 164.508C1897.68 167.504 1898.53 170.562 1898.59 173.804C1898.8 188.164 1895.83 201.858 1889.88 214.887C1888.3 218.321 1886.32 221.521 1883.57 224.212C1876.84 230.824 1868.81 235.083 1859.8 237.594C1856.09 238.625 1852.39 239.655 1848.68 240.611C1845.93 241.312 1843.21 242.065 1840.42 242.495C1833.94 243.514 1827.57 242.643 1821.3 240.891C1812.97 238.567 1805.4 234.709 1798.19 230.018C1792.26 226.17 1786.77 221.812 1782.23 216.349C1781.38 215.374 1780.34 214.382 1780.33 212.471ZM1906.91 234.144C1907.88 235.536 1907.73 237.115 1906.88 238.55C1905.48 240.91 1904.06 243.293 1902.38 245.451C1899.25 249.491 1896.65 253.787 1894.72 258.543C1893.73 261.006 1892.38 263.368 1890.98 265.648C1889.45 268.16 1887.37 270.157 1884.68 271.485C1880.56 273.497 1876.88 276.169 1873.3 278.998C1871.04 280.785 1870.48 280.764 1868.27 278.84C1866.8 277.562 1865.43 276.119 1863.88 274.942C1859.08 271.319 1854.28 267.719 1848.04 266.789C1842.27 265.928 1836.68 266.431 1831.18 268.498C1827.05 270.057 1822.81 271.325 1818.6 272.641C1816.77 273.217 1814.88 273.051 1813.04 272.531C1809.66 271.586 1808.86 270.388 1809.22 266.772C1816.63 260.03 1823.69 252.882 1829.12 244.239C1829.89 244.289 1830.61 244.336 1831.33 244.402C1835.33 244.722 1839.32 244.611 1843.2 243.602C1850.34 241.734 1857.49 239.792 1864.54 237.613C1867.69 236.636 1870.7 235.116 1873.65 233.612C1875.9 232.474 1877.95 230.962 1880.11 229.604C1884.5 230.565 1888.84 231.691 1893.25 232.435C1897.74 233.175 1902.28 233.578 1906.91 234.144ZM1846.11 185.348C1846.18 184.891 1846.15 184.672 1846.24 184.474C1847.81 180.925 1848.78 177.256 1849.04 173.368C1849.17 171.472 1849.82 169.74 1851.69 168.678C1853 167.921 1854.06 166.745 1855.37 165.988C1860.53 163.018 1863.25 158.306 1864.92 152.815C1866.17 148.684 1866.51 144.447 1866.76 140.163C1867.14 133.737 1867.62 127.318 1868.09 120.9C1868.38 117.081 1868.57 113.289 1868.1 109.432C1867.66 105.795 1867.66 102.06 1867.83 98.3875C1868.04 94.4403 1869.17 90.6671 1871.43 87.3433C1874.64 82.6736 1880.11 81.3521 1885 84.2657C1886.76 85.3227 1888.36 86.7885 1889.76 88.3349C1892.67 91.5454 1894.44 95.4424 1895.91 99.4863C1897.09 102.748 1897.35 106.099 1896.96 109.537C1896.35 114.953 1894.79 120.069 1892.09 124.758C1888.98 130.078 1885.68 135.29 1882.36 140.485C1879.82 144.461 1877.36 148.485 1875.63 152.896C1874.4 156.059 1873.37 159.307 1872.03 162.426C1869.34 168.664 1865.8 174.381 1861.04 179.278C1860.04 180.301 1858.94 181.373 1857.69 181.982C1854.11 183.75 1850.24 184.736 1846.11 185.348ZM1766.6 199.963C1766.97 199.623 1767.42 199.337 1767.72 198.96C1769.17 197.175 1771.13 196.522 1773.29 196.511C1775.16 196.51 1777.06 196.635 1778.9 197.006C1782.87 197.807 1786.8 198.773 1790.77 199.712C1798.81 201.609 1806.87 203.254 1815.22 201.459C1814.49 202.001 1813.79 202.499 1813 202.833C1810.56 203.915 1808.1 205.002 1805.61 205.951C1803.18 206.878 1800.71 207.626 1798.01 207.462C1795.12 207.315 1792.22 207.438 1789.35 207.573C1786.36 207.722 1783.47 208.316 1780.85 209.926C1778.74 211.229 1778.38 212.401 1779.41 214.626C1779.62 215.056 1779.76 215.508 1779.98 216.104C1779.29 216.201 1778.81 216.308 1778.32 216.324C1772.9 216.568 1767.86 214.97 1762.98 212.871C1757.42 210.484 1752.86 206.753 1748.77 202.329C1744.39 197.593 1739.9 192.986 1734.88 188.922C1731.56 186.234 1728.26 183.501 1725.05 180.666C1719.37 175.626 1713.67 170.573 1708.14 165.353C1704.92 162.295 1702.39 158.665 1700.87 154.407C1700.65 153.81 1700.59 153.166 1700.44 152.548C1704.55 156.359 1709.41 158.239 1714.41 159.848C1715.98 160.355 1717.6 160.812 1719.19 161.296C1728.6 164.142 1737.09 168.765 1744.96 174.581C1748.41 177.135 1751.57 180.042 1754.1 183.518C1757.6 188.293 1760.96 193.185 1764.35 198.049C1764.9 198.85 1765.22 199.794 1766.6 199.963ZM1766.31 198.269C1764.19 195.125 1762.25 192.262 1760.32 189.382C1756.21 183.276 1751.62 177.64 1745.64 173.239C1737.2 167.046 1728.05 162.32 1717.95 159.456C1714.46 158.467 1711.08 157.183 1707.71 155.836C1705.14 154.797 1702.87 153.193 1701.02 151.101C1700.48 150.49 1699.99 149.616 1699.96 148.847C1699.86 146.526 1701.21 143.729 1704.7 143.862C1705.91 143.912 1707.17 144.118 1708.31 144.51C1710.7 145.338 1713.09 146.222 1715.4 147.265C1726.94 152.44 1737.78 158.91 1748.4 165.747C1758.96 172.548 1769.87 178.727 1781.46 183.548C1790.4 187.258 1799.77 189.036 1809.49 187.846C1810.75 187.691 1811.71 187.929 1812.73 188.605C1816.04 190.764 1819.67 192.222 1823.59 192.849C1824.21 192.946 1824.78 193.151 1825.55 193.355C1823.38 196.762 1820.41 198.592 1816.8 199.631C1811.31 201.205 1805.76 201.09 1800.23 200.098C1795.6 199.268 1791.03 198.078 1786.43 197.088C1783.1 196.373 1779.77 195.584 1776.4 195.109C1772.74 194.649 1769.15 194.983 1766.31 198.269ZM1810.57 273.698C1810.7 273.581 1810.84 273.465 1810.97 273.348C1815.93 274.835 1818.5 274.434 1823.06 272.955C1827.2 271.604 1831.23 269.962 1835.41 268.807C1842.37 266.9 1849.14 267.535 1855.54 271.126C1859.35 273.265 1862.85 275.803 1866.01 278.843C1866.63 279.45 1867.28 280.03 1867.97 280.559C1870.18 282.259 1871.39 282.269 1873.61 280.647C1874.02 280.354 1874.38 279.98 1874.8 279.698C1878.05 277.537 1881.16 275.113 1884.59 273.313C1889.06 270.971 1892.06 267.426 1894.31 263.121C1895.12 261.588 1895.8 259.977 1896.45 258.36C1897.95 254.642 1899.88 251.177 1902.32 247.99C1904.08 245.691 1905.66 243.261 1907.33 240.897C1907.58 240.536 1907.87 240.182 1908.33 239.569C1908.97 244.87 1908.04 249.59 1906.15 254.123C1900.58 267.604 1891.65 278.447 1879.91 286.978C1875.75 290.004 1871.05 292.001 1865.86 292.269C1862.64 292.434 1859.35 292.162 1856.14 291.755C1848.68 290.78 1841.23 289.593 1833.79 288.498C1825.97 287.347 1819.35 283.882 1813.98 278.081C1812.73 276.717 1811.7 275.174 1810.57 273.698ZM1814.96 173.031C1813.49 168.305 1812.51 163.729 1812.49 158.979C1812.47 156.672 1812.6 154.358 1812.4 152.069C1812.13 149.101 1813.43 147.037 1815.76 145.516C1818.8 143.51 1822.1 143.552 1825.3 144.986C1827.19 145.835 1828.89 147.137 1830.6 148.342C1832.79 149.875 1834.84 151.64 1837.08 153.082C1840.49 155.251 1843.08 158.085 1844.65 161.776C1845.42 163.57 1845.99 165.444 1846.53 167.328C1848.83 175.404 1846.44 182.46 1841.57 188.869C1840.29 190.544 1838.55 191.908 1836.48 192.421C1830.91 193.792 1826.24 192.255 1822.59 187.733C1818.99 183.294 1816.43 178.326 1814.96 173.031ZM1809.44 263.996C1809.5 264.072 1809.54 264.136 1809.6 264.212C1809.29 264.571 1809.01 264.959 1808.65 265.277C1800.85 272.29 1792.18 277.748 1781.97 280.583C1776.03 282.236 1770.02 282.906 1763.93 281.779C1760.16 281.087 1756.47 279.932 1752.71 279.16C1749.24 278.453 1745.74 277.865 1742.24 277.433C1734.33 276.48 1726.38 275.842 1718.51 274.689C1714.01 274.047 1709.61 272.729 1705.22 271.544C1702.89 270.925 1700.78 269.669 1699.15 267.853C1697.75 266.307 1696.31 264.696 1696.24 262.445C1697.72 263.265 1699 264.258 1700.48 264.739C1703.42 265.702 1706.51 265.882 1709.61 265.621C1713.65 265.288 1717.68 264.915 1721.72 264.788C1724.85 264.689 1727.76 265.323 1729.54 268.44C1730.23 269.652 1731.08 269.658 1732.34 268.934C1732.78 268.688 1733.17 268.343 1733.57 268.049C1736.18 266.215 1738.72 264.287 1741.38 262.568C1746.55 259.254 1752.12 258.417 1758.02 260.376C1759.39 260.832 1760.78 261.3 1762.1 261.886C1765.15 263.253 1768.18 264.625 1771.17 266.105C1782.36 271.69 1793.57 271.773 1804.81 266.292C1806.38 265.531 1807.9 264.746 1809.44 263.996ZM1897.8 231.548C1897.8 231.433 1897.81 231.336 1897.8 231.226C1898.4 231.042 1899.01 230.783 1899.62 230.69C1906.29 229.63 1912.48 227.146 1918.23 223.732C1923.87 220.367 1929.28 216.583 1934.72 212.885C1940.42 209.011 1946.35 205.522 1952.84 203.172C1959.38 200.807 1966.05 198.8 1972.67 196.637C1975.52 195.698 1978.19 194.451 1980.47 192.47C1980.68 192.292 1980.96 192.167 1981.59 191.806C1980.39 194.957 1978.99 197.467 1977.33 199.849C1973.3 205.621 1968.2 210.314 1962.62 214.53C1953.78 221.234 1944.26 226.646 1933.46 229.511C1930.81 230.22 1928.08 230.669 1925.36 231.135C1916.9 232.549 1908.38 232.75 1899.84 231.952C1899.16 231.854 1898.48 231.663 1897.8 231.548ZM1843.65 220.437C1842.58 219.169 1841.9 218.354 1841.21 217.538C1839.38 215.383 1837.65 213.162 1835.72 211.114C1834.74 210.084 1833.55 209.042 1832.26 208.526C1828.55 207.055 1824.71 205.873 1820.66 206.097C1817.42 206.268 1814.2 206.772 1810.98 207.162C1808.93 207.405 1806.91 207.793 1804.93 207.481C1809.03 205.67 1813.15 203.962 1817.2 202.051C1821.36 200.086 1824.73 197.033 1827.65 193.549C1831.2 194.878 1834.54 194.755 1837.82 193.438C1841.09 192.103 1843.33 189.547 1845.04 186.903C1856.35 184.682 1866.73 181.054 1875.8 174.167C1873.9 178.063 1871.83 181.8 1869.96 185.645C1867.88 189.955 1864.86 193.316 1860.73 195.746C1855.51 198.79 1851.62 203.12 1849.02 208.551C1847.75 211.231 1846.68 214.019 1845.5 216.729C1844.98 217.817 1844.41 218.88 1843.65 220.437ZM1908.18 37.3474C1910.57 41.416 1911.88 45.9087 1912.67 50.4449C1913.66 56.2084 1914.02 62.0696 1914.71 67.888C1915.32 73.1422 1915.99 78.3578 1918.21 83.2765C1919.32 85.7618 1920.02 88.4883 1920.57 91.1822C1921.91 97.7123 1921.32 104.334 1920.63 110.838C1919.68 119.464 1916.68 127.598 1912.89 135.419C1912.67 135.866 1912.33 136.236 1912.15 136.478C1912.64 131.706 1913.36 126.901 1913.58 122.077C1913.99 113.253 1911.06 105.102 1908.06 96.9903C1906.33 92.2854 1904.82 87.512 1904.08 82.5641C1902.72 73.6526 1904.05 64.9282 1906.46 56.405C1908.19 50.118 1909.4 43.8745 1908.18 37.3474ZM1898.04 112.107C1898.12 112.121 1898.2 112.117 1898.29 112.125C1898.35 112.695 1898.43 113.259 1898.47 113.817C1898.5 114.167 1898.48 114.534 1898.49 114.907C1898.88 127.659 1896.2 139.807 1891.06 151.395C1888.56 157.024 1885.53 162.324 1881.26 166.919C1877.12 171.38 1872.5 175.077 1867.27 178.086C1865.82 178.925 1864.21 179.489 1862.67 180.165C1862.59 180.02 1862.49 179.897 1862.41 179.751C1863.47 178.5 1864.56 177.279 1865.57 175.986C1869.97 170.5 1873.03 164.283 1875.53 157.741C1876.53 155.106 1877.33 152.38 1878.58 149.878C1880.07 146.906 1881.87 144.086 1883.62 141.259C1886.03 137.382 1888.6 133.607 1890.99 129.713C1893.39 125.82 1895.54 121.793 1896.77 117.345C1897.24 115.631 1897.61 113.868 1898.04 112.107ZM1822.96 191.071C1822.64 191.074 1822.37 191.118 1822.12 191.042C1816.23 189.438 1811.05 186.689 1807.5 181.534C1804.24 176.799 1802.32 171.544 1801.74 165.826C1801.17 160.218 1801.47 154.69 1803.26 149.311C1804.09 146.803 1805.37 144.52 1807.37 142.755C1809.69 140.723 1812.52 140.243 1814.42 144.35C1814.18 144.573 1813.97 144.866 1813.67 145.07C1811.18 146.925 1810.61 149.428 1810.92 152.368C1811.1 154.226 1810.96 156.109 1810.96 157.985C1810.96 159.064 1810.85 160.179 1811.03 161.223C1811.66 164.86 1812.22 168.5 1813.11 172.075C1814.1 176.003 1815.51 179.839 1817.7 183.288C1819.33 185.919 1821.15 188.418 1822.96 191.071ZM1785.32 51.3537C1785.44 51.2022 1785.57 51.0507 1785.68 50.9217C1786.85 51.4753 1788.05 51.9436 1789.16 52.593C1792.51 54.5704 1796.06 55.9565 1799.8 56.9234C1808.94 59.3204 1816.48 64.2903 1822.48 71.4905C1825.48 75.088 1828.09 79.036 1830.85 82.8393C1831.17 83.2725 1831.36 83.7652 1831.62 84.2367C1831.13 84.1776 1830.83 83.9632 1830.57 83.721C1826.19 79.4612 1820.94 76.8476 1815.12 75.2052C1812.6 74.4894 1810.1 73.7911 1807.59 73.018C1802.08 71.3381 1797.51 68.2723 1794.06 63.6532C1792.07 60.978 1790.23 58.2208 1788.3 55.4898C1787.33 54.1157 1786.31 52.7573 1785.32 51.3537ZM1672.91 181.72C1672.99 181.602 1673.07 181.484 1673.17 181.377C1674.47 181.871 1675.76 182.485 1677.12 182.849C1681.88 184.095 1686.65 185.319 1691.43 186.463C1697.49 187.9 1703.56 189.411 1708.91 192.79C1711.33 194.33 1713.68 196.005 1716.01 197.685C1720.89 201.207 1725.78 204.666 1731.59 206.56C1731.91 206.672 1732.19 206.909 1732.49 207.084C1731.68 207.406 1730.92 207.408 1730.18 207.274C1724.23 206.179 1718.24 205.536 1712.56 203.129C1707.91 201.151 1702.94 199.95 1698.27 198.012C1689.66 194.448 1681.65 189.832 1674.7 183.507C1674.07 182.905 1673.5 182.299 1672.91 181.72ZM1797.15 167.94C1796.6 167.862 1796.37 167.874 1796.2 167.794C1789.4 164.399 1782.47 161.235 1775.87 157.518C1767.64 152.909 1761.12 146.4 1756.38 138.172C1756.06 137.624 1755.88 137.017 1755.63 136.431C1755.75 136.354 1755.88 136.277 1756.01 136.2C1759.49 139.351 1763.73 141.02 1768.11 142.325C1775.06 144.382 1780.74 148.401 1785.47 153.749C1788.78 157.481 1791.82 161.429 1794.98 165.283C1795.64 166.087 1796.31 166.908 1797.15 167.94ZM1851.84 167.041C1852.72 164.936 1853.6 163.359 1854.03 161.656C1854.99 157.878 1855.86 154.069 1856.51 150.214C1858.25 140.078 1861.32 130.408 1866.2 121.325C1866.4 120.941 1866.68 120.61 1867.13 119.962C1867.13 120.605 1867.14 120.811 1867.13 121.023C1866.54 127.645 1865.89 134.248 1865.41 140.878C1865.1 144.857 1864.84 148.86 1863.47 152.61C1862.49 155.297 1861.32 158.002 1859.77 160.37C1857.92 163.148 1854.94 164.812 1851.84 167.041ZM1817.11 137.486C1818.14 137.003 1818.91 136.37 1819.74 136.289C1821.37 136.115 1823.1 135.989 1824.69 136.302C1830.81 137.533 1836.1 140.36 1840.38 144.973C1844.75 149.691 1846.98 155.459 1848.28 161.621C1848.65 163.329 1849.02 165.129 1848.27 166.951C1847.82 166.044 1847.55 165.084 1847.23 164.158C1845.47 159.027 1842.71 154.651 1837.9 151.791C1836.49 150.932 1835.08 149.994 1833.83 148.916C1830.08 145.637 1825.78 143.324 1821.3 141.236C1819.71 140.448 1818.28 139.365 1817.11 137.486ZM1978.21 168.515C1978.14 168.593 1978.07 168.672 1978 168.75C1976.18 167.502 1974.4 166.244 1972.56 165.019C1967.34 161.488 1964.83 156.659 1965.26 150.256C1965.44 147.318 1965.28 144.354 1965.18 141.391C1965.13 140.231 1964.78 139.068 1964.53 137.742C1966.55 139.477 1968.52 142.651 1969.57 145.668C1971.68 151.68 1973.77 157.679 1975.95 163.67C1976.56 165.321 1977.45 166.888 1978.21 168.515ZM1817.06 135.397C1815.7 136.777 1815.63 138.124 1816.31 139.662C1816.71 140.619 1816.25 141.462 1815.35 142C1814.18 141.217 1813.15 140.168 1811.92 139.82C1810.72 139.483 1809.33 139.887 1807.58 140.001C1810.35 137.339 1812.95 135.206 1817.06 135.397Z"
              fill="#FFEAD2"/>
        <path d="M132.528 235.464C126.577 231.41 121.082 227.573 115.477 223.894C109.622 220.043 103.378 216.863 96.9048 214.238C90.6663 211.707 84.1804 209.879 77.4995 208.902C73.8901 208.373 70.2646 208.099 66.6294 207.697C66.2123 207.656 65.7944 207.579 65.129 207.473C65.8199 206.718 66.5348 206.831 67.1216 206.883C70.6915 207.201 74.2805 207.406 77.7983 207.944C83.9562 208.881 89.978 210.436 95.7485 212.849C98.5876 214.042 101.502 215.114 104.226 216.55C107.998 218.536 111.696 220.715 115.284 223.016C119.45 225.679 123.501 228.549 127.558 231.405C129.197 232.552 130.67 233.934 132.528 235.464Z"
              fill="#FFEAD2"/>
        <path d="M141.296 112.622C125.335 131.446 109.338 150.199 96.459 171.397C96.565 169.962 97.2964 168.755 97.9932 167.584C101.279 162.072 104.959 156.834 108.746 151.665C114.643 143.603 120.847 135.775 127.353 128.195C131.652 123.199 136.086 118.321 140.471 113.401C140.727 113.12 141.032 112.882 141.296 112.622Z"
              fill="#FFEAD2"/>
        <path d="M85.0264 127.12C86.5173 95.928 80.1088 66.3936 66.2512 38.4521C80.8189 66.2597 87.2552 95.7724 85.0264 127.12Z"
              fill="#FFEAD2"/>
        <path d="M89.3345 197.061C90.0912 196.426 90.833 195.748 91.6331 195.167C99.5214 189.346 108.161 185.14 117.605 182.365C127.604 179.416 137.57 179.545 147.649 181.422C151.899 182.221 156.104 183.261 160.329 184.222C160.931 184.351 161.495 184.672 161.687 184.746C155.936 183.687 149.807 182.432 143.621 181.48C136.67 180.41 129.64 180.35 122.755 181.897C113.108 184.069 103.931 187.495 95.6858 193.112C93.6176 194.522 91.571 195.959 89.5028 197.369C89.4654 197.264 89.3928 197.159 89.3345 197.061Z"
              fill="#FFEAD2"/>
        <path d="M162.274 64.6685C161.07 65.546 159.874 66.4445 158.649 67.2942C151.518 72.1834 144.894 77.6625 139.315 84.3208C135.599 88.7549 132.239 93.4289 129.053 98.2549C128.08 99.7488 126.807 101.065 125.82 102.552C124.203 104.998 122.728 107.511 120.996 109.902C122.141 107.826 123.25 105.715 124.452 103.666C125.565 101.767 126.692 99.8749 127.934 98.0722C129.629 95.6113 131.446 93.261 133.191 90.8416C137.244 85.2224 141.614 79.8934 146.787 75.2613C151.26 71.257 156.176 67.865 161.229 64.6608C161.48 64.5006 161.76 64.3893 162.033 64.2569C162.12 64.4034 162.2 64.5288 162.274 64.6685Z"
              fill="#FFEAD2"/>
        <path d="M204.325 219.984C202.723 218.908 201.113 217.81 199.505 216.748C195.666 214.24 191.807 211.776 187.989 209.225C181.681 205.002 174.973 201.514 168.006 198.566C164.718 197.177 161.228 196.251 157.84 195.11C157.264 194.924 156.703 194.745 156.121 194.572C156.146 194.41 156.165 194.261 156.19 194.098C156.762 194.144 157.354 194.111 157.9 194.248C162.069 195.218 166.186 196.443 170.041 198.329C174.166 200.344 178.354 202.301 182.303 204.651C189.529 208.962 196.632 213.495 203.214 218.757C203.63 219.094 204.019 219.489 204.421 219.855C204.386 219.891 204.352 219.927 204.325 219.984Z"
              fill="#FFEAD2"/>
        <path d="M154.316 137.073C163.229 129.538 172.317 122.296 180.582 114.067C184.638 110.022 188.428 105.763 191.573 100.952C192.21 99.9795 192.74 98.9388 193.52 98.0343C193.114 99.99 192.166 101.688 191.09 103.325C187.656 108.488 183.396 112.925 178.87 117.114C171.399 124.043 163.588 130.582 155.271 136.497C154.944 136.708 154.63 136.891 154.316 137.073Z"
              fill="#FFEAD2"/>
        <path d="M77.0917 108.286C77.3402 110.518 77.6517 112.728 77.8086 114.969C78.541 124.961 78.998 134.945 77.6622 144.914C76.8425 150.971 75.5052 156.904 73.345 162.62C72.5469 164.739 71.6632 166.817 70.7367 168.874C70.4867 169.437 69.9802 169.877 69.4648 170.226C70.2922 168.156 71.1338 166.093 71.947 164.016C74.5734 157.247 76.1571 150.208 77.0605 143.021C78.2249 133.669 77.8156 124.319 77.2578 114.952C77.1294 112.724 76.9237 110.512 76.76 108.286C76.8876 108.311 76.9791 108.302 77.0917 108.286Z"
              fill="#FFEAD2"/>
        <path d="M95.8932 91.1288C92.1895 73.2064 88.7246 55.2229 78.7523 39.35C78.8987 39.2624 79.0594 39.1817 79.1991 39.1083C79.5975 39.6298 80.0237 40.1295 80.3942 40.6727C83.6648 45.5131 86.0477 50.7872 87.9619 56.2752C91.7388 67.1393 94.3776 78.2656 95.7733 89.6915C95.825 90.1704 95.8557 90.6567 95.8932 91.1288Z"
              fill="#FFEAD2"/>
        <path d="M20.3746 202.832C22.7822 201.811 25.1965 200.776 27.6115 199.776C31.8813 197.998 36.2354 196.558 40.8149 195.819C44.6206 195.201 48.4481 194.977 52.255 195.862C53.1694 196.07 54.0378 196.448 54.9122 196.777C55.4949 196.984 56.0363 197.242 56.7975 197.552C58.5546 191.434 62.1517 186.664 66.4423 182.345C64.6722 184.928 62.7163 187.387 61.1818 190.098C59.6268 192.853 58.4858 195.839 57.1046 198.816C53.7902 196.418 49.9815 196.161 46.122 196.195C41.5992 196.227 37.213 197.11 32.943 198.521C29.942 199.504 27.0224 200.683 24.0736 201.814C22.9037 202.253 21.7495 202.77 20.5803 203.244C20.528 203.097 20.4479 202.972 20.3746 202.832Z"
              fill="#FFEAD2"/>
        <path d="M96.4635 123.057C96.0738 125.492 95.8048 127.968 95.238 130.371C93.3372 138.517 91.0817 146.563 87.0922 153.995C84.9408 158.003 82.2386 161.627 78.984 164.796C78.3955 165.372 77.8104 166.124 76.5867 165.979C76.7982 165.608 76.8917 165.338 77.0856 165.151C81.1417 161.472 84.2459 157.113 86.7903 152.279C90.4504 145.32 92.5759 137.84 94.5305 130.279C95.1536 127.867 95.6492 125.43 96.2153 122.991C96.2655 123.033 96.3645 123.045 96.4635 123.057Z"
              fill="#FFEAD2"/>
        <path d="M97.9865 175.862C112.298 162.928 126.61 149.995 140.921 137.061C141.015 137.158 141.094 137.248 141.188 137.345C127.542 150.054 113.853 162.707 99.8976 175.077C99.4053 175.524 98.7828 175.804 98.2111 176.161C98.1385 176.057 98.0659 175.952 97.9865 175.862Z"
              fill="#FFEAD2"/>
        <path d="M-0.718506 118.302C0.983087 119.426 2.78164 120.456 4.38697 121.709C8.64387 125.027 13.1503 128.114 16.9712 131.871C24.8858 139.62 32.1278 147.974 37.444 157.806C38.0739 158.979 38.5574 160.24 38.8801 161.581C34.0303 152.862 28.2983 144.86 21.6048 137.482C14.9336 130.168 7.24961 124.102 -0.718506 118.302Z"
              fill="#FFEAD2"/>
        <path d="M44.5591 38.8424C44.7478 39.1069 44.9269 39.2445 44.9439 39.3923C45.1207 45.5213 47.0262 51.2847 48.8185 57.0291C50.6936 63.0401 52.9051 68.9315 54.9694 74.8753C55.0516 75.1065 55.1127 75.3453 54.9785 75.7007C54.559 74.8198 54.0974 73.9538 53.7199 73.0579C50.0443 64.4783 46.8665 55.7337 44.7752 46.6149C44.4123 45.0271 44.1967 43.3871 44.0027 41.7749C43.8993 40.8172 43.9294 39.8357 44.5591 38.8424Z"
              fill="#FFEAD2"/>
        <path d="M69.3518 221.292C71.465 222.175 73.4335 223.95 75.3802 225.697C82.2625 231.906 88.2369 238.959 93.9822 246.199C97.2531 250.341 100.288 254.685 103.413 258.949C103.769 259.45 104.09 259.988 104.313 260.583C93.5651 246.525 82.9206 232.359 69.3518 221.292Z"
              fill="#FFEAD2"/>
        <path d="M165.948 111.334C173.734 101.027 182.688 91.6063 188.714 80.0418C188.849 80.0885 188.963 80.1428 189.098 80.1895C188.945 80.6583 188.82 81.1406 188.624 81.589C186.63 86.4057 183.657 90.6346 180.355 94.6019C175.942 99.9106 171.416 105.13 166.925 110.383C166.635 110.735 166.288 111.024 165.948 111.334Z"
              fill="#FFEAD2"/>
        <path d="M137.2 176.137C121.349 178.241 106.219 182.207 93.4233 192.542C93.3365 192.431 93.2496 192.32 93.1627 192.209C93.6062 191.791 94.0062 191.317 94.4788 190.948C99.9686 186.606 106.125 183.507 112.683 181.106C119.893 178.474 127.369 177.191 134.938 176.302C135.685 176.237 136.439 176.194 137.2 176.137Z"
              fill="#FFEAD2"/>
        <path d="M82.7459 251.493C76.2612 240.372 71.2704 228.424 63.1466 218.287C63.2646 218.186 63.3968 218.092 63.5148 217.991C63.9681 218.433 64.4702 218.847 64.8753 219.354C67.4724 222.599 69.944 225.924 71.8515 229.626C75.293 236.347 78.7068 243.09 82.1063 249.826C82.3711 250.372 82.5375 250.94 82.7459 251.493Z"
              fill="#FFEAD2"/>
        <path d="M111.462 228.955C107.742 226.382 104.237 223.945 100.732 221.544C95.5604 218.018 90.0007 215.199 84.2309 212.821C81.5845 211.737 78.7632 211.093 75.9907 210.054C76.4919 210.065 77.0053 209.978 77.4666 210.11C80.0641 210.856 82.6473 211.596 85.198 212.477C87.0453 213.111 88.8932 213.781 90.6049 214.7C97.7149 218.484 104.455 222.861 110.64 228.039C110.877 228.239 111.051 228.497 111.462 228.955Z"
              fill="#FFEAD2"/>
        <path d="M99.5229 264.594C104.749 273.439 109.219 282.589 113.305 291.923C114.088 293.728 114.04 293.757 113.765 295.216C108.946 284.852 104.245 274.719 99.5229 264.594Z"
              fill="#FFEAD2"/>
        <path d="M165.197 251.04C162.74 248.858 161.134 246.469 159.174 244.419C157.128 242.293 155.145 240.109 153.064 238.018C151.034 235.969 148.948 233.964 146.842 232.001C144.736 230.038 142.575 228.154 140.678 226.448C145.173 228.202 163.608 246.301 165.197 251.04Z"
              fill="#FFEAD2"/>
        <path d="M188.643 120.663C179.291 132.829 166.614 140.932 153.972 149.069C166.101 140.321 178.757 132.19 188.643 120.663Z"
              fill="#FFEAD2"/>
        <path d="M140.935 88.1139C148.617 77.1802 157.936 68.0563 169.97 62.0405C170.064 62.1375 170.137 62.2419 170.224 62.3531C166.623 64.8161 162.886 67.1264 159.438 69.7839C156.011 72.434 152.723 75.3072 149.649 78.3526C146.562 81.4264 143.814 84.8535 140.935 88.1139Z"
              fill="#FFEAD2"/>
        <path d="M71.8332 134.838C71.8903 135.233 71.9759 135.64 71.9835 136.028C72.1862 145.996 71.6535 155.893 69.6157 165.685C69.267 167.336 68.784 168.976 68.2013 170.568C67.914 171.392 67.293 172.11 66.8212 172.882C66.693 172.821 66.5437 172.767 66.4155 172.706C66.4399 172.508 66.4282 172.275 66.5238 172.111C67.8659 169.657 68.5329 166.97 69.1077 164.256C71.0651 155.036 71.4107 145.679 71.5868 136.311C71.5914 135.824 71.5892 135.351 71.5937 134.864C71.671 134.849 71.7484 134.833 71.8332 134.838Z"
              fill="#FFEAD2"/>
        <path d="M195.436 172.341C195.11 172.256 194.749 172.206 194.457 172.05C190.402 170.033 186.043 169.06 181.6 168.519C176.366 167.881 171.093 167.434 165.86 166.902C166.071 166.862 166.365 166.758 166.669 166.745C174.377 166.516 181.992 167.256 189.487 169.092C190.877 169.438 192.236 169.997 193.567 170.578C194.321 170.902 194.954 171.482 195.647 171.935C195.573 172.091 195.512 172.22 195.436 172.341Z"
              fill="#FFEAD2"/>
        <path d="M100.469 297.679C105.541 306.591 109.998 315.805 116.764 323.618C116.695 323.725 116.62 323.846 116.552 323.954C116.238 323.805 115.835 323.735 115.632 323.499C114.382 322.013 112.999 320.587 111.986 318.934C109.245 314.486 106.609 309.964 104.015 305.428C102.94 303.537 102.089 301.507 101.175 299.535C100.895 298.913 100.706 298.281 100.469 297.679Z"
              fill="#FFEAD2"/>
        <path d="M54.7561 189.54C54.638 189.274 54.4988 189.016 54.4228 188.735C52.9957 183.618 49.5073 180.264 45.0323 177.699C40.0504 174.84 34.5778 174.298 29.0259 174.033C28.4961 174.008 27.9589 173.962 27.4399 173.767C31.8338 173.639 36.2048 173.779 40.4507 175.1C45.0304 176.527 49.1323 178.776 52.1989 182.575C53.5949 184.305 54.6978 186.21 55.0243 188.462C55.0733 188.8 55.0232 189.125 55.0159 189.471C54.9392 189.522 54.8477 189.531 54.7561 189.54Z"
              fill="#FFEAD2"/>
        <path d="M112.793 269.054C110.616 264.595 108.503 260.113 105.4 256.243C102.34 252.429 99.2588 248.622 96.2932 244.94C102.399 250.395 112.399 262.647 112.793 269.054Z"
              fill="#FFEAD2"/>
        <path d="M22.7146 180.726C13.5499 183.355 4.58949 186.325 -2.92686 192.761C-2.80322 191.509 -2.86906 191.39 -1.99089 190.83C0.769064 189.068 3.45571 187.166 6.3847 185.747C11.1108 183.488 16.1045 181.915 21.2788 180.917C21.7569 180.83 22.2433 180.799 22.7146 180.726Z"
              fill="#FFEAD2"/>
        <path d="M-26.6525 89.525C-16.7928 91.3851 -8.49331 96.4514 -0.53266 102.23C-3.32309 100.641 -6.09319 99.0083 -8.91751 97.49C-11.8558 95.9176 -14.8355 94.3953 -17.828 92.9368C-20.6848 91.5603 -23.8438 90.966 -26.6525 89.525Z"
              fill="#FFEAD2"/>
        <path d="M194.447 189.883C203.39 193.56 211.599 198.374 218.598 205.11C217.805 205.345 217.35 204.796 216.89 204.403C213.072 201.119 208.945 198.299 204.59 195.774C201.278 193.849 197.925 192.009 194.6 190.113C194.507 190.051 194.413 189.954 194.327 189.878C194.355 189.892 194.412 189.883 194.447 189.883Z"
              fill="#FFEAD2"/>
        <path d="M125.524 219.082C120.82 217.106 115.919 214.775 110.832 213.019C105.745 211.263 100.465 210.096 95.1789 208.647C102.176 208.849 122.356 215.898 125.524 219.082Z"
              fill="#FFEAD2"/>
        <path d="M60.7373 208.808C60.623 213.051 59.0379 216.787 56.3769 219.994C53.1436 223.889 49.1965 227.008 44.7432 229.502C45.1181 229.191 45.5074 228.887 45.8749 228.555C48.8366 225.928 51.9063 223.405 54.7167 220.619C57.4925 217.869 59.2961 214.481 59.8752 210.547C59.9754 209.895 60.1888 209.263 60.3452 208.604C60.4877 208.671 60.6091 208.747 60.7373 208.808Z"
              fill="#FFEAD2"/>
        <path d="M29.9079 161.786C27.8405 161.798 25.9308 161.222 24.1594 160.134C22.5521 159.143 20.9178 158.208 19.3654 157.137C15.9669 154.769 12.6308 152.344 9.35571 149.79C16.1606 153.848 22.2693 159.113 29.9079 161.786Z"
              fill="#FFEAD2"/>
        <path d="M55.6769 199.063C48.162 198.737 41.3035 201.292 34.4123 203.622C33.8304 203.817 33.3007 204.159 32.7413 204.417C32.6747 204.263 32.615 204.095 32.5484 203.941C34.0743 203.304 35.5704 202.583 37.1262 202.031C41.6952 200.396 46.3463 198.992 51.183 198.41C52.7247 198.217 54.3206 197.911 55.6769 199.063Z"
              fill="#FFEAD2"/>
        <path d="M-6.51562 142.572C-2.81321 148.561 2.68123 152.73 7.73139 156.914C3.0254 155.165 -5.80255 146.545 -6.51562 142.572Z"
              fill="#FFEAD2"/>
        <path d="M118.141 163.279C111.157 170.212 100.525 178.275 98.2995 178.509C104.855 173.469 111.488 168.378 118.141 163.279Z"
              fill="#FFEAD2"/>
        <path d="M32.4149 224.825C33.5256 223.886 35.0591 223.637 36.2499 222.823C37.4895 221.98 38.765 221.172 39.9754 220.28C41.1445 219.439 42.2484 218.514 43.374 217.617C44.5484 216.69 45.7297 215.75 47.0914 215.017C46.4412 215.686 45.8344 216.411 45.1332 217.004C42.6895 219.056 40.2532 221.129 37.7083 223.063C36.582 223.925 35.2026 224.474 33.9093 225.099C33.5248 225.283 33.0229 225.237 32.5793 225.288C32.527 225.14 32.4672 224.972 32.4149 224.825Z"
              fill="#FFEAD2"/>
        <path d="M171.31 281.378C167.416 276.38 163.521 271.383 159.844 266.663C163.285 269.052 171.066 278.623 171.31 281.378Z"
              fill="#FFEAD2"/>
        <path d="M94.3277 69.5937C91.9945 62.8931 90.0885 56.0288 86.7747 49.7003C91.0129 55.6649 92.7086 62.6038 94.3277 69.5937Z"
              fill="#FFEAD2"/>
        <path d="M105.107 270.447C109.621 277.154 113.026 285.238 112.577 287.54C110.102 281.908 107.605 276.178 105.107 270.447Z"
              fill="#FFEAD2"/>
        <path d="M40.6175 162.006C38.353 154.133 33.8188 147.468 29.4004 140.597C33.4458 144.286 40.6206 157.849 40.6175 162.006Z"
              fill="#FFEAD2"/>
        <path d="M86.1907 172.784C80.8663 175.125 76.9263 178.964 73.0799 182.9C75.8986 178.737 79.4956 175.399 83.9076 172.956C84.4867 172.62 85.1533 172.063 86.1907 172.784Z"
              fill="#FFEAD2"/>
        <path d="M61.8584 205.864C67.03 203.293 70.6978 198.888 74.9588 195.219C71.1104 199.416 67.6598 204.099 61.8584 205.864Z"
              fill="#FFEAD2"/>
        <path d="M45.2254 59.5131C43.4915 55.6658 42.3503 51.4541 41.5883 47.1431C41.4612 46.4188 41.4602 45.6496 41.4667 44.9014C41.47 44.7108 41.6992 44.5229 41.8571 44.301C43.0034 49.4935 44.1266 54.5878 45.2254 59.5131Z"
              fill="#FFEAD2"/>
        <path d="M180.71 96.8672C183.698 92.7156 186.701 88.5707 189.819 84.2189C190.045 85.2872 189.522 85.9819 189.11 86.5898C186.621 90.28 183.939 93.8258 180.71 96.8672Z"
              fill="#FFEAD2"/>
        <path d="M213.252 204.192C218.08 207.082 222.78 210.349 226.552 214.834C222.063 211.231 217.568 207.643 213.252 204.192Z"
              fill="#FFEAD2"/>
        <path d="M175.208 75.4164C177.94 71.8767 180.672 68.337 183.404 64.7973C183.532 64.8583 183.646 64.9125 183.775 64.9735C183.628 65.3927 183.588 65.8804 183.312 66.2034C180.736 69.4154 178.131 72.6139 175.54 75.8192C175.425 75.6944 175.316 75.5554 175.208 75.4164Z"
              fill="#FFEAD2"/>
        <path d="M220.29 232.698C223.882 235.21 227.374 237.308 230.996 239.94C228.898 239.833 222.738 235.557 220.29 232.698Z"
              fill="#FFEAD2"/>
        <path d="M59.6299 207.757C59.4552 208.565 59.4162 209.455 59.0705 210.181C57.3802 213.588 54.8506 216.298 52.0271 218.781C54.5028 215.119 58.2798 212.321 59.0973 207.591C59.2608 207.651 59.4453 207.704 59.6299 207.757Z"
              fill="#FFEAD2"/>
        <path d="M91.6193 185.464C91.7746 183.669 91.9014 181.86 92.1062 180.071C92.3333 177.977 91.9717 176.093 90.2917 174.63C90.1553 174.513 90.0603 174.345 89.9653 174.178C89.9436 174.15 89.9842 174.064 89.9903 174.015C91.6428 174.434 92.6002 175.396 92.7684 177.136C93.0707 179.953 92.6451 182.72 91.6193 185.464Z"
              fill="#FFEAD2"/>
        <path d="M14.3596 156.311C17.8129 158.233 21.2661 160.156 24.7262 162.064C20.688 161.261 17.6705 158.533 14.3596 156.311Z"
              fill="#FFEAD2"/>
        <path d="M164.173 276.183C166.324 278.272 168.544 280.289 169.638 283.203C167.557 281.077 165.802 278.67 164.173 276.183Z"
              fill="#FFEAD2"/>
        <path d="M58.6122 202.625C58.7589 199.673 60.3012 197.349 62.1568 195.174C60.9775 197.653 59.7915 200.146 58.6122 202.625Z"
              fill="#FFEAD2"/>
        <path d="M-2.49638 194.94C-0.480711 192.649 2.17634 191.397 4.95014 190.341C2.4682 191.885 -0.00696375 193.416 -2.49638 194.94Z"
              fill="#FFEAD2"/>
        <path d="M80.0091 179.278C81.5757 177.123 83.3909 175.4 85.6403 174.234C85.7414 174.352 85.8357 174.485 85.9511 174.609C83.9704 176.165 81.9897 177.721 80.0091 179.278Z"
              fill="#FFEAD2"/>
        <path d="M89.3782 168.36C89.4753 166.834 89.592 165.23 89.6973 163.76C90.7998 164.564 90.7488 165.92 89.3782 168.36Z"
              fill="#FFEAD2"/>
        <path d="M196.478 180.803C197.321 180.977 198.151 181.179 199.001 181.339C202.562 181.968 205.419 183.711 207.74 186.51C210.118 189.406 212.274 192.44 213.794 195.854C215.994 200.779 219.243 204.893 222.966 208.708C227.057 212.891 230.222 217.733 232.906 222.924C235.085 227.122 235.277 231.529 234.109 236.005C233.275 239.225 231.073 241.357 228.012 242.504C225.125 243.576 222.109 243.749 219.047 243.428C213.771 242.875 208.854 241.129 204.055 238.987C197.762 236.167 191.878 232.634 186.061 228.959C177.544 223.579 169.217 217.871 160.098 213.463C148.492 207.855 136.218 205.562 123.416 205.553C122.683 205.553 121.972 205.651 121.246 205.708C121.228 205.857 121.209 206.005 121.198 206.139C122.939 206.776 124.668 207.476 126.437 208.055C133.247 210.264 138.936 214.246 144.125 219.055C149.429 223.955 153.404 229.811 156.831 236.124C158.397 239 160.299 241.687 162.138 244.396C167.021 251.611 170.856 259.306 172.894 267.84C173.548 270.614 173.921 273.43 173.645 276.286C173.427 278.471 172.717 280.44 171.312 282.182C169.969 283.867 168.235 284.684 166.161 284.344C164.377 284.054 162.588 283.553 160.917 282.88C158.264 281.81 155.952 280.169 153.75 278.335C150.744 275.839 147.745 273.329 144.683 270.877C138.582 266.001 131.832 262.231 124.686 259.111C120.416 257.254 116.111 255.468 111.706 253.6C111.643 253.954 111.513 254.189 111.567 254.407C113.525 263.55 113.509 272.837 113.296 282.1C113.162 287.854 113.884 293.386 115.748 298.833C118.024 305.471 118.892 312.313 118.035 319.331C117.816 321.148 117.52 322.947 116.635 324.587C115.484 326.713 113.602 327.582 111.264 327.064C109.477 326.668 107.977 325.745 106.628 324.614C101.168 320.043 95.7363 315.449 90.3387 310.82C85.6087 306.77 80.712 302.851 76.7149 298.032C74.3805 295.227 72.1221 292.336 70.1077 289.298C66.2032 283.44 63.5296 277.014 61.5273 270.279C59.8117 264.484 59.5768 258.624 60.3843 252.666C61.1912 246.673 61.9838 240.673 62.6916 234.668C62.9208 232.681 62.8949 230.642 62.8622 228.617C62.8517 227.721 62.58 226.823 62.4216 225.944C61.1906 227.944 60.1217 229.934 58.8025 231.752C55.8623 235.84 51.6719 237.707 46.7462 237.705C44.128 237.7 41.4601 237.322 38.8878 236.78C34.0057 235.767 29.1962 234.493 24.1794 234.168C17.2688 233.711 10.4441 234.395 3.6746 235.734C1.12984 236.236 -1.39858 236.85 -3.96312 237.063C-6.45711 237.274 -9.07864 237.46 -11.4888 236.907C-15.2883 236.043 -17.7834 233.319 -19.1672 229.69C-20.1348 227.134 -20.0734 224.507 -19.3629 221.875C-18.2507 217.774 -16.0049 214.265 -13.5515 210.908C-11.9916 208.767 -11.1663 206.591 -11.5017 203.881C-12.1032 199.122 -10.8298 194.609 -9.20157 190.195C-6.90393 183.933 -3.26294 178.519 1.24309 173.674C2.27298 172.575 3.52612 171.703 4.6924 170.721C5.10873 170.36 5.53931 170.005 6.10142 169.521C4.96693 168.527 3.83659 167.745 2.93475 166.74C1.2539 164.874 -0.567349 163.047 -1.84404 160.92C-4.26645 156.867 -6.54986 152.706 -8.55315 148.434C-12.5448 139.931 -17.3306 131.959 -23.4895 124.853C-25.3021 122.751 -27.295 120.807 -28.961 118.617C-33.0464 113.249 -38.58 109.603 -43.9963 105.821C-49.2551 102.149 -55.0711 99.5742 -61.2924 97.925C-62.257 97.6757 -63.2373 97.3492 -64.1145 96.8795C-65.4693 96.1651 -65.6922 95.2379 -64.9567 93.8756C-63.9895 92.0995 -62.5826 90.7946 -60.7 89.9955C-58.2856 88.9602 -55.7477 88.4728 -53.1437 88.4711C-51.3232 88.4637 -49.4924 88.6183 -47.6745 88.8366C-45.6728 89.0726 -43.694 89.5771 -41.693 89.7778C-37.9242 90.1555 -34.6556 91.658 -31.6967 93.9217C-31.3527 94.1901 -30.9748 94.3874 -30.3317 94.7982C-30.2539 94.0839 -30.1653 93.567 -30.1329 93.0583C-30.0659 91.081 -29.1277 89.623 -27.342 88.9176C-25.9626 88.3683 -24.4603 87.9648 -22.9817 87.7946C-16.1883 86.9556 -9.9507 88.7175 -4.21367 92.3027C-0.362752 94.7112 3.33699 97.3272 7.1059 99.8714C9.78042 101.668 12.379 103.55 15.1152 105.254C21.9873 109.501 27.1059 115.378 31.3947 122.118C36.9363 130.852 40.7276 140.29 42.8661 150.375C43.6986 154.317 44.1865 158.323 44.8433 162.304C45.188 164.407 45.3909 164.679 47.76 166.015C47.8798 165.286 48.1142 164.646 48.0529 164.041C47.8309 161.716 47.6299 159.384 47.1969 157.099C46.1665 151.7 44.4064 146.512 42.6387 141.304C39.6732 132.59 36.6019 123.879 34.0644 115.037C30.6248 103.023 29.0281 90.6978 29.1073 78.1914C29.1696 69.1362 30.754 60.3334 35.119 52.2593C36.3994 49.8984 38.1004 47.755 39.6874 45.5574C40.1132 44.9563 40.7302 44.3937 41.388 44.1126C43.0116 43.4174 43.4445 42.1034 43.8095 40.5649C44.6173 37.1406 45.4035 33.6884 46.4949 30.3291C47.5206 27.2181 49.6169 24.7211 52.2242 22.7293C54.7826 20.7667 57.6198 20.4217 60.6345 21.5764C64.4315 23.0332 67.5994 25.5186 70.233 28.4661C74.1362 32.8212 77.6652 37.5224 81.3745 42.0649C85.4815 47.0935 89.5329 52.1655 93.73 57.1147C97.0314 61.0088 99.6344 65.2695 101.541 70.0026C104.701 77.8654 107.266 85.9164 108.918 94.2323C109.513 97.241 109.603 100.358 109.924 103.429C109.984 103.964 110.009 104.5 110.388 105.135C110.852 104.342 111.345 103.563 111.802 102.75C114.583 97.7484 118.238 93.4073 122.13 89.2661C125.061 86.153 128.215 83.2683 131.333 80.3491C134.48 77.4082 138.097 75.1284 141.949 73.2392C148.001 70.2483 154.076 67.3204 160.202 64.4692C164.649 62.3919 169.315 60.9948 174.282 61.3137C176.211 61.4453 178.179 61.7524 180.026 62.3513C184.492 63.7597 187.417 66.8285 188.643 71.3774C189.168 73.3218 189.433 75.3349 189.874 77.3092C190.493 80.0845 190.958 82.8911 191.822 85.5911C196.111 98.795 193.857 111.281 187.707 123.292C184.138 130.243 179.124 136.156 173.622 141.698C167.816 147.549 161.453 152.663 154.307 156.776C152.507 157.806 150.597 158.663 148.738 159.595C148.235 159.845 147.746 160.102 147.264 160.344C147.288 160.478 147.297 160.604 147.321 160.738C148.026 160.689 148.738 160.661 149.442 160.576C157.582 159.697 165.685 159.743 173.76 161.278C179.667 162.411 185.43 164.069 190.697 167.064C193.787 168.831 196.547 171.035 198.692 173.907C199.323 174.749 199.878 175.712 200.25 176.692C200.883 178.374 200.2 179.516 198.48 179.973C197.841 180.141 197.173 180.26 196.526 180.407C196.48 180.577 196.482 180.683 196.478 180.803ZM55.7425 189.45C55.8768 189.461 56.0179 189.459 56.1522 189.47C56.3352 189.085 56.5392 188.693 56.7079 188.302C60.3056 179.601 65.4943 172.146 73.4717 166.908C74.8164 166.028 76.3517 165.151 77.8791 164.952C80.6457 164.608 82.9221 163.018 85.4187 162.581C87.5161 159.42 89.4752 156.404 91.4845 153.429C92.2526 152.292 93.2425 151.313 93.9536 150.148C95.1222 148.206 96.1979 146.202 97.2308 144.177C99.8273 139.123 101.819 133.834 103.371 128.369C104.698 123.707 106.202 119.076 107.344 114.361C108.904 107.923 109.277 101.409 107.857 94.8459C105.956 86.0621 103.389 77.5031 99.8882 69.2164C98.2894 65.4159 96.1744 61.9289 93.5292 58.7488C88.9466 53.2144 84.4127 47.6508 79.8857 42.0729C76.2992 37.6763 72.8727 33.1636 69.1269 28.9183C66.7525 26.2338 63.8513 24.0325 60.4308 22.7024C57.764 21.6609 55.2144 21.9156 52.9055 23.6475C51.9528 24.3648 51.0944 25.2144 50.3005 26.1121C47.9811 28.7474 46.8727 31.9589 46.0702 35.2984C45.542 37.5106 45.1271 39.7416 44.6341 41.953C44.3884 43.094 43.9214 44.1123 42.7746 44.65C40.3767 45.7979 38.9571 47.9005 37.6516 50.0573C32.6951 58.1994 30.6902 67.1516 30.3317 76.5725C30.29 77.6883 30.454 78.8495 30.7433 79.9306C32.1536 85.2661 34.2501 90.3342 37.1509 95.0336C39.3737 98.6243 41.7152 102.149 44.0635 105.66C48.4112 112.166 52.7378 118.679 55.9693 125.842C59.1118 132.788 61.3767 139.962 61.3384 147.719C61.3 153.675 59.8161 159.329 58.0133 164.918C56.8691 168.462 55.6183 171.972 54.6511 175.548C54.2108 177.208 54.0705 179.046 54.217 180.758C54.4296 183.322 55.0228 185.858 55.468 188.411C55.5035 188.777 55.644 189.106 55.7425 189.45ZM86.7495 162.428C89.6013 163.19 92.2638 163.653 94.077 165.791C95.8468 167.873 97.0565 170.178 96.8296 173.006C100.069 176.59 98.3832 180.611 97.7344 184.949C98.5624 184.347 99.071 184.013 99.5151 183.63C102.639 180.993 105.596 178.119 108.901 175.726C117.111 169.778 126.285 165.808 136.07 163.161C142.493 161.411 148.64 158.92 154.368 155.547C164.357 149.642 172.766 141.919 179.969 132.837C184.197 127.51 187.77 121.837 189.907 115.324C193.11 105.544 193.891 95.7477 190.542 85.7856C189.44 82.5187 189.019 79.0338 188.254 75.6474C187.867 73.926 187.544 72.1822 186.996 70.5064C186.297 68.3748 185.047 66.5222 183.152 65.2539C180.571 63.5544 177.703 62.6792 174.603 62.5495C169.68 62.3214 165.075 63.5903 160.691 65.6452C154.412 68.5982 148.162 71.6 141.935 74.7002C137.588 76.8603 133.54 79.5296 130.043 82.9149C126.656 86.1781 123.32 89.518 120.121 92.9751C118.421 94.8221 117.009 96.9457 115.546 98.9927C112.07 103.803 109.59 109.053 108.442 114.918C107.704 118.673 106.853 122.444 105.711 126.094C104.524 129.949 103.002 133.698 101.516 137.446C99.2158 143.2 96.4023 148.71 92.9037 153.824C91.7099 155.563 90.6884 157.453 89.0659 158.917C88.143 159.719 87.6395 161.034 86.7495 162.428ZM81.952 204.207C82.0328 204.367 82.1068 204.542 82.2018 204.71C87.7642 204.072 93.3246 203.327 98.3748 200.681C102.845 198.335 107.177 195.766 111.574 193.28C115.978 190.78 120.559 188.679 125.604 187.917C135.307 186.47 144.588 187.968 153.381 192.29C160.464 195.765 166.64 200.52 172.377 205.904C174.951 208.317 177.518 210.743 180.057 213.192C182.445 215.516 184.792 217.89 187.167 220.243C189.082 222.132 190.927 224.128 192.952 225.895C198.517 230.761 204.48 235.083 210.656 239.139C215.889 242.572 221.469 243.182 227.306 241.417C229.902 240.625 232.027 238.911 232.806 236.136C233.999 231.864 233.944 227.645 231.868 223.6C229.417 218.8 226.604 214.247 222.823 210.37C218.436 205.855 214.678 200.974 212.024 195.205C210.882 192.722 209.102 190.513 207.533 188.229C204.962 184.49 201.299 182.677 196.851 182.221C195.352 182.067 193.832 181.921 192.346 181.703C191.73 181.602 191.159 181.296 190.562 181.081C190.566 180.891 190.562 180.679 190.565 180.489C193.131 178.914 196.346 179.5 199.037 178.509C199.252 176.881 198.484 175.852 197.751 174.857C194.836 170.85 190.855 168.274 186.372 166.386C179.733 163.595 172.787 162.073 165.643 161.557C153.332 160.662 141.341 162.401 129.699 166.454C121.351 169.349 113.59 173.361 106.662 178.889C103.814 181.168 101.153 183.676 98.2903 185.948C97.1301 186.881 96.1897 187.866 95.5459 189.219C92.7868 194.982 88.535 199.476 83.3855 203.177C82.9189 203.496 82.4321 203.859 81.952 204.207ZM59.9669 227.799C62.5992 222.045 62.7803 216.89 60.6109 210.984C59.7166 208.567 58.682 206.188 57.5707 203.859C56.084 200.741 55.1596 197.506 54.8171 194.076C54.5855 191.625 54.3186 189.174 53.9534 186.747C53.2074 181.815 52.2858 176.921 50.2335 172.311C48.4256 168.289 45.6489 165.238 41.5228 163.555C38.9191 162.491 36.1597 162.122 33.3652 162.12C21.7419 162.094 11.7103 166.215 2.95242 173.754C-1.33633 177.444 -3.19305 182.082 -2.76557 187.683C-2.59167 190.072 -2.27668 192.458 -2.24387 194.85C-2.2029 197.298 -2.17548 199.774 -2.55168 202.181C-3.28303 206.987 -5.88679 210.955 -8.70495 214.786C-10.8289 217.671 -12.9311 220.585 -14.9981 223.497C-16.1241 225.093 -16.6172 226.937 -16.5514 228.856C-16.4373 232.509 -14.7985 234.389 -12.0416 235.351C-9.91687 236.1 -7.82441 235.925 -5.73417 235.277C-2.44416 234.274 0.492827 232.544 3.32056 230.639C5.8906 228.909 8.3738 227.068 11.0246 225.499C19.7312 220.381 28.267 220.948 36.215 227.157C38.7878 229.167 41.2577 231.32 43.6929 233.51C46.8609 236.362 52.6067 236.073 55.5324 233.411C57.4744 231.68 59.0723 229.679 59.9669 227.799ZM63.7074 216.667C65.2791 216.926 66.785 217.066 68.2462 217.446C74.6737 219.176 80.4078 222.253 85.6946 226.271C86.884 227.186 88.1704 228.008 89.4147 228.844C91.7812 230.407 94.2094 231.876 96.5209 233.517C101.617 237.165 106.944 240.363 112.852 242.562C117.28 244.197 121.724 245.874 126.038 247.786C129.917 249.509 133.436 251.882 136.272 255.101C139.268 258.5 142.166 261.993 145.148 265.42C148.903 269.757 152.608 274.123 156.481 278.359C158.984 281.104 162.279 282.55 165.952 283.056C168.131 283.359 169.745 282.502 170.887 280.652C171.818 279.173 172.435 277.545 172.345 275.825C172.215 273.195 172.113 270.508 171.548 267.951C169.778 260.103 166.328 252.959 161.858 246.307C158.899 241.912 156.032 237.473 153.477 232.816C150.843 228.034 147.402 223.846 143.468 220.07C137.484 214.323 130.435 210.411 122.533 207.997C113.517 205.246 104.305 204.043 94.877 204.765C90.5999 205.089 86.3145 205.356 82.0394 205.786C79.9124 205.997 77.8269 206.525 75.7311 206.89C74.3739 207.136 73.0106 207.431 71.6365 207.528C69.776 207.657 67.8957 207.496 66.044 207.716C64.4881 207.901 63.0427 207.965 61.6512 207.181C61.43 207.058 61.093 207.142 60.6833 207.122C61.6932 210.398 62.6854 213.491 63.7074 216.667ZM43.3811 162.954C43.4203 162.431 43.486 162.183 43.4458 161.936C42.6864 157.4 42.1237 152.817 41.0902 148.342C38.6708 137.966 34.3342 128.426 28.2695 119.653C24.4784 114.181 19.7131 109.765 14.1863 106.105C9.56052 103.048 5.00997 99.8702 0.384187 96.8136C-2.30389 95.0456 -4.97164 93.235 -7.82985 91.7879C-13.2823 89.0369 -19.0868 88.1275 -25.1157 89.4525C-28.3549 90.1653 -29.1419 91.4157 -28.7947 94.7257C-28.7327 95.3666 -28.7976 96.0171 -28.8223 96.9138C-29.5115 96.6733 -29.9437 96.5901 -30.2795 96.3779C-31.4444 95.6315 -32.6371 94.9069 -33.7336 94.0534C-35.5248 92.6771 -37.5247 91.8131 -39.7409 91.4402C-42.4101 90.9916 -45.0801 90.5076 -47.7629 90.0874C-50.58 89.6558 -53.4051 89.5348 -56.247 89.9999C-58.3149 90.3439 -60.3292 90.9056 -62.0333 92.174C-63.1393 92.9931 -64.1936 93.9242 -64.02 95.5791C-63.7337 95.7852 -63.5037 95.9995 -63.2188 96.135C-62.7629 96.3519 -62.2859 96.5613 -61.8111 96.6649C-55.7792 98.0144 -49.7609 99.3923 -43.7168 100.643C-40.0748 101.397 -36.3488 101.754 -32.7271 102.551C-22.465 104.777 -15.3047 110.769 -11.5336 120.617C-10.5294 123.244 -9.69943 125.98 -9.02482 128.712C-7.75375 133.789 -6.62308 138.904 -5.49987 143.998C-4.87271 146.83 -4.45646 149.701 -3.79402 152.532C-2.72394 157.077 -0.940421 161.297 2.33775 164.726C3.84349 166.298 5.15739 168.164 7.53977 168.738C8.13315 168.409 8.74077 168.086 9.34093 167.743C15.3072 164.309 21.6551 161.983 28.5177 161.072C32.3397 160.567 36.0703 160.804 39.76 161.825C40.9098 162.163 42.0251 162.536 43.3811 162.954ZM63.6138 218.37C63.6892 218.615 63.6934 218.827 63.8087 218.952C65.913 221.176 67.3832 223.814 68.6859 226.548C70.8501 231.107 72.1088 235.916 72.6581 240.894C73.1585 245.535 73.532 250.185 73.835 254.837C74.1694 260.01 75.7895 264.537 79.5182 268.268C82.6348 271.375 84.7627 275.165 86.4865 279.217C89.2164 285.635 90.5289 292.461 92.3256 299.151C93.4152 303.251 94.498 307.365 96.8754 310.925C98.9834 314.059 101.231 317.12 103.645 320.015C105.451 322.167 107.419 324.239 110.096 325.442C113.192 326.828 115.487 325.788 116.276 322.512C117.295 318.315 117.345 314.023 116.95 309.747C116.58 305.64 115.479 301.675 114.182 297.791C112.631 293.192 111.946 288.498 112.12 283.654C112.257 279.876 112.155 276.088 112.137 272.306C112.112 266.739 111.623 261.23 110.598 255.746C110.219 253.714 109.301 252.229 107.569 250.985C105.379 249.419 103.297 247.625 101.473 245.657C99.2888 243.308 97.3818 240.706 95.447 238.126C90.0918 230.983 83.62 225.196 75.4804 221.447C72.6317 220.126 69.6001 219.191 66.6098 218.205C65.7218 217.905 64.5916 217.49 63.6138 218.37ZM96.0986 203.005C96.1794 203.165 96.2093 203.25 96.2378 203.263C96.4786 203.308 96.7269 203.373 96.9738 203.369C103.441 203.143 109.83 203.632 116.159 205.018C116.761 205.147 117.417 205.162 118.022 205.066C126.388 203.786 134.664 204.753 142.846 206.357C154.074 208.571 164.132 213.688 173.742 219.744C180.359 223.905 186.893 228.202 193.625 232.156C197.802 234.614 202.258 236.594 206.605 238.732C207.182 239.024 207.826 239.47 208.632 239.207C204.351 236.087 200.019 233.223 196.031 229.963C191.67 226.386 187.461 222.637 183.631 218.421C179.268 213.638 174.322 209.381 169.606 204.936C164.242 199.868 158.246 195.688 151.505 192.708C141.368 188.236 130.918 186.846 120.231 190.654C117.281 191.714 114.436 193.104 111.634 194.549C106.653 197.124 101.739 199.853 96.8161 202.525C96.572 202.671 96.3428 202.859 96.0986 203.005ZM99.0577 316.767C99.1194 316.674 99.1886 316.602 99.2502 316.509C99.2197 316.39 99.2169 316.249 99.1518 316.166C98.8389 315.685 98.547 315.197 98.1928 314.766C94.7807 310.627 92.8654 305.802 91.5299 300.677C90.4158 296.408 89.3723 292.138 88.2162 287.884C86.1607 280.233 83.0574 273.131 77.3487 267.393C75.2106 265.24 73.9716 262.519 73.3912 259.553C72.9983 257.514 72.8164 255.436 72.6135 253.365C72.1885 248.97 71.9257 244.564 71.4023 240.192C70.579 233.476 68.5003 227.159 64.7261 221.467C64.4132 220.986 64.0935 220.52 63.7806 220.039C63.6335 220.091 63.5006 220.15 63.3534 220.203C63.2941 221.135 63.1357 222.056 63.2032 222.979C63.2837 224.205 63.6749 225.44 63.7059 226.66C63.7722 229.679 63.966 232.724 63.6579 235.722C63.0491 241.739 62.1785 247.719 61.4001 253.726C60.6096 259.832 61.1573 265.805 63.149 271.644C65.1787 277.624 67.557 283.385 71.154 288.678C73.4215 292.028 75.7364 295.278 78.4277 298.288C83.2762 303.704 89.0441 308.143 94.4798 312.912C95.9874 314.223 97.5365 315.484 99.0577 316.767ZM30.825 84.0925C30.7334 84.1014 30.6493 84.1313 30.5578 84.1401C30.5247 84.6136 30.4564 85.0877 30.4796 85.553C31.1822 97.2607 33.1083 108.747 36.6445 119.933C38.9773 127.332 41.6608 134.619 44.0566 141.996C45.5066 146.477 46.7815 151.032 47.9859 155.588C49.0001 159.442 49.5008 163.384 48.645 167.24C49.5138 168.719 50.3723 170.036 51.0912 171.426C51.7809 172.768 52.3308 174.182 52.988 175.665C53.2992 175.342 53.4246 175.262 53.4578 175.155C55.184 169.617 57.0451 164.125 58.6009 158.541C60.5584 151.488 60.6513 144.352 58.7825 137.226C57.4253 132.073 55.4523 127.186 53.0025 122.456C49.394 115.498 44.9629 109.058 40.5874 102.574C36.837 97.0157 33.4148 91.2821 31.2499 84.8887C31.1243 84.6018 30.9499 84.3441 30.825 84.0925ZM59.2911 185.443C58.8865 186.403 58.3885 187.634 57.8619 188.851C55.6858 193.756 56.3714 198.484 58.9506 202.979C59.5792 204.081 60.5929 205.035 61.6175 205.82C63.8022 207.47 66.1555 206.563 68.2701 205.717C71.918 204.255 75.061 201.872 77.8301 199.136C82.4264 194.579 84.9949 188.812 86.7167 182.696C87.1983 180.985 87.3644 179.02 87.0483 177.298C86.6459 175.132 86.2022 173.017 86.3424 170.812C86.4111 169.639 86.0384 168.623 85.0627 167.81C82.3805 165.625 78.1974 165.348 75.2971 167.148C68.157 171.543 63.0994 177.768 59.2911 185.443ZM-5.81375 151.379C-5.67335 151.341 -5.53296 151.303 -5.40682 151.258C-5.44085 150.962 -5.43283 150.652 -5.48789 150.364C-6.09017 147.002 -6.58663 143.639 -7.34355 140.309C-8.30907 136.058 -9.57638 131.891 -10.5276 127.648C-11.3546 123.987 -12.5599 120.461 -14.4224 117.252C-15.8097 114.879 -17.429 112.554 -19.3304 110.601C-22.3195 107.52 -26.1525 105.661 -30.256 104.408C-36.0208 102.644 -42.0272 102.233 -47.9328 101.205C-48.1099 101.174 -48.3187 101.319 -48.7325 101.454C-46.4956 102.885 -44.3775 104.015 -42.5069 105.481C-38.1285 108.874 -33.7149 112.267 -29.6125 115.983C-27.1196 118.235 -25.2138 121.133 -22.9833 123.679C-16.5088 131.039 -11.4218 139.26 -7.40084 148.178C-6.92086 149.263 -6.33577 150.31 -5.81375 151.379ZM92.6852 231.885C92.595 231.964 92.4981 232.058 92.4079 232.137C92.4677 232.306 92.4718 232.517 92.5729 232.635C95.265 236.047 97.9572 239.459 100.677 242.85C103.462 246.324 106.6 249.424 110.598 251.448C113.286 252.814 116.042 254.108 118.851 255.217C129.349 259.372 139.245 264.534 147.969 271.794C148.292 272.07 148.69 272.224 149.061 272.436C148.937 271.888 148.718 271.504 148.443 271.163C145.522 267.608 142.595 264.066 139.667 260.524C137.051 257.358 134.275 254.378 130.918 251.96C126.559 248.82 121.679 246.813 116.635 245.148C108.581 242.504 101.202 238.662 94.6393 233.286C93.9947 232.805 93.3298 232.366 92.6852 231.885ZM46.1618 236.693C43.4565 234.41 41.1604 232.48 38.8643 230.549C38.2903 230.066 37.7299 229.555 37.1348 229.08C34.3672 226.854 31.4077 224.922 27.9792 223.903C23.0244 222.419 18.2183 223.121 13.6401 225.363C11.5642 226.385 9.62889 227.735 7.65623 228.98C4.61688 230.889 1.58499 232.819 -1.43942 234.769C-1.66252 234.908 -1.81371 235.115 -2.02188 235.296C-0.265114 235.275 1.33079 234.969 2.91922 234.641C12.8506 232.605 22.7962 232.007 32.7822 234.189C35.3124 234.747 37.8095 235.41 40.3526 235.904C42.1447 236.25 43.9545 236.412 46.1618 236.693ZM70.6308 206.264C71.1619 206.359 71.4041 206.474 71.6076 206.414C73.6165 205.937 75.7286 205.684 77.5969 204.878C85.0786 201.711 90.475 196.206 94.2666 189.117C96.1251 185.651 97.4436 181.998 97.4705 177.975C97.4984 174.721 95.6447 173.036 92.444 173.557C91.818 173.661 91.2062 173.772 90.5809 173.912C88.9436 174.268 88.1674 175.349 88.3912 177.045C88.6864 179.143 88.5509 181.227 87.87 183.209C86.9886 185.76 86.0508 188.319 84.9346 190.775C82.343 196.444 78.6679 201.194 73.0542 204.254C72.237 204.687 71.5746 205.455 70.6308 206.264ZM-3.28254 182.196C-3.40329 182.156 -3.51726 182.102 -3.65226 182.055C-3.8109 182.242 -4.00551 182.394 -4.12142 182.601C-8.07111 189.545 -11.1057 196.732 -10.2166 204.999C-10.0171 206.893 -10.4926 208.554 -11.6044 210.157C-13.3541 212.696 -15.0746 215.285 -16.4606 218.014C-17.459 220.003 -18.057 222.252 -18.5364 224.435C-18.8858 226.05 -18.7108 227.776 -17.8467 229.375C-17.6948 229.203 -17.5483 229.115 -17.5572 229.024C-17.4493 225.528 -15.8266 222.631 -13.862 219.897C-11.6296 216.784 -9.29005 213.738 -7.12212 210.577C-4.24711 206.406 -2.9059 201.751 -3.12562 196.667C-3.33303 191.851 -4.21057 187.048 -3.28254 182.196ZM95.5521 172.276C95.8005 169.109 92.8513 165.54 90.3223 164.686C87.9072 163.887 85.4672 163.25 82.7642 165.039C85.3646 166.294 87.5838 167.542 87.6994 170.2C90.0087 172.801 92.8186 172.146 95.5521 172.276Z"
              fill="#FFEAD2"/>
    </g>
    <defs>
        <linearGradient id="paint0_linear_462_3987" x1="960" y1="0" x2="960" y2="587" gradientUnits="userSpaceOnUse">
            <stop stop-color="#FFF7EF"/>
            <stop offset="1" stop-color="white"/>
        </linearGradient>
        <clipPath id="clip0_462_3987">
            <rect width="1920" height="587" fill="white"/>
        </clipPath>
    </defs>
</svg>
