<svg focusable="false" aria-hidden="true" viewBox="0 0 36 37" width="36" height="37" fill="none" xmlns="http://www.w3.org/2000/svg" class="MuiSvgIcon-root MuiSvgIcon-sizeMd MuiSvgIcon-fontSizeXl4 daophatkhatsi-joy-touoap"><g clip-path="url(#clip0_235_112)"><path d="M21.4453 18.5C21.4453 20.4028 19.9028 21.9453 18 21.9453C16.0972 21.9453 14.5547 20.4028 14.5547 18.5C14.5547 16.5972 16.0972 15.0547 18 15.0547C19.9028 15.0547 21.4453 16.5972 21.4453 18.5Z" fill="#E0E0E0"></path><path d="M26.0573 12.4043C25.8916 11.9555 25.6274 11.5493 25.2841 11.2159C24.9507 10.8726 24.5447 10.6083 24.0956 10.4427C23.7314 10.3013 23.1843 10.1329 22.1766 10.087C21.0865 10.0373 20.7596 10.0266 17.9999 10.0266C15.2398 10.0266 14.913 10.037 13.8232 10.0868C12.8154 10.1329 12.268 10.3013 11.9041 10.4427C11.455 10.6083 11.0488 10.8726 10.7157 11.2159C10.3723 11.5493 10.1081 11.9553 9.94223 12.4043C9.80078 12.7685 9.63242 13.3159 9.58655 14.3236C9.53683 15.4135 9.52612 15.7403 9.52612 18.5004C9.52612 21.2601 9.53683 21.587 9.58655 22.6771C9.63242 23.6848 9.80078 24.2319 9.94223 24.5961C10.1081 25.0452 10.3721 25.4511 10.7154 25.7846C11.0488 26.1279 11.4548 26.3921 11.9038 26.5577C12.268 26.6995 12.8154 26.8678 13.8232 26.9137C14.913 26.9634 15.2396 26.9738 17.9996 26.9738C20.7599 26.9738 21.0868 26.9634 22.1763 26.9137C23.1841 26.8678 23.7314 26.6995 24.0956 26.5577C24.9971 26.21 25.7095 25.4976 26.0573 24.5961C26.1987 24.2319 26.3671 23.6848 26.4132 22.6771C26.4629 21.587 26.4734 21.2601 26.4734 18.5004C26.4734 15.7403 26.4629 15.4135 26.4132 14.3236C26.3673 13.3159 26.199 12.7685 26.0573 12.4043ZM17.9999 23.8076C15.0685 23.8076 12.6921 21.4315 12.6921 18.5001C12.6921 15.5687 15.0685 13.1926 17.9999 13.1926C20.931 13.1926 23.3074 15.5687 23.3074 18.5001C23.3074 21.4315 20.931 23.8076 17.9999 23.8076ZM23.5172 14.2231C22.8322 14.2231 22.2769 13.6678 22.2769 12.9828C22.2769 12.2978 22.8322 11.7424 23.5172 11.7424C24.2022 11.7424 24.7576 12.2978 24.7576 12.9828C24.7573 13.6678 24.2022 14.2231 23.5172 14.2231Z" fill="#E0E0E0"></path><path d="M18 0.5C8.06039 0.5 0 8.56039 0 18.5C0 28.4396 8.06039 36.5 18 36.5C27.9396 36.5 36 28.4396 36 18.5C36 8.56039 27.9396 0.5 18 0.5ZM28.2736 22.7613C28.2236 23.8616 28.0486 24.6128 27.7932 25.2703C27.2563 26.6587 26.1587 27.7563 24.7703 28.2932C24.1131 28.5486 23.3616 28.7233 22.2616 28.7736C21.1594 28.8239 20.8073 28.8359 18.0003 28.8359C15.193 28.8359 14.8412 28.8239 13.7387 28.7736C12.6387 28.7233 11.8872 28.5486 11.2299 28.2932C10.54 28.0337 9.91544 27.6269 9.39908 27.1009C8.87338 26.5848 8.46661 25.96 8.20706 25.2703C7.95163 24.6131 7.77667 23.8616 7.72668 22.7616C7.67587 21.6591 7.66406 21.307 7.66406 18.5C7.66406 15.693 7.67587 15.3409 7.72641 14.2387C7.7764 13.1384 7.95108 12.3872 8.20651 11.7297C8.46606 11.04 8.87311 10.4152 9.39908 9.89908C9.91516 9.37311 10.54 8.96634 11.2297 8.70679C11.8872 8.45135 12.6384 8.27667 13.7387 8.22641C14.8409 8.17615 15.193 8.16406 18 8.16406C20.807 8.16406 21.1591 8.17615 22.2613 8.22668C23.3616 8.27667 24.1128 8.45135 24.7703 8.70651C25.46 8.96606 26.0848 9.37311 26.6012 9.89908C27.1269 10.4154 27.5339 11.04 27.7932 11.7297C28.0489 12.3872 28.2236 13.1384 28.2739 14.2387C28.3241 15.3409 28.3359 15.693 28.3359 18.5C28.3359 21.307 28.3241 21.6591 28.2736 22.7613Z" fill="#E0E0E0"></path></g><defs><clipPath id="clip0_235_112"><rect width="36" height="36" fill="white" transform="translate(0 0.5)"></rect></clipPath></defs></svg>