<svg focusable="false" aria-hidden="true" viewBox="0 0 36 37" width="36" height="37" fill="none" xmlns="http://www.w3.org/2000/svg" class="MuiSvgIcon-root MuiSvgIcon-sizeMd MuiSvgIcon-fontSizeXl4 daophatkhatsi-joy-touoap"><g clip-path="url(#clip0_235_116)"><path d="M15.7581 21.8722L21.6132 18.4999L15.7581 15.1277V21.8722Z" fill="#E0E0E0"></path><path d="M18 0.5C8.06039 0.5 0 8.56039 0 18.5C0 28.4396 8.06039 36.5 18 36.5C27.9396 36.5 36 28.4396 36 18.5C36 8.56039 27.9396 0.5 18 0.5ZM29.2473 18.5184C29.2473 18.5184 29.2473 22.1689 28.7842 23.9292C28.5246 24.8927 27.7649 25.6524 26.8014 25.9117C25.0411 26.375 18 26.375 18 26.375C18 26.375 10.9773 26.375 9.19858 25.8932C8.23508 25.634 7.47537 24.874 7.21582 23.9105C6.75247 22.1689 6.75247 18.5 6.75247 18.5C6.75247 18.5 6.75247 14.8498 7.21582 13.0895C7.4751 12.126 8.25348 11.3476 9.19858 11.0883C10.9589 10.625 18 10.625 18 10.625C18 10.625 25.0411 10.625 26.8014 11.1068C27.7649 11.366 28.5246 12.126 28.7842 13.0895C29.2659 14.8498 29.2473 18.5184 29.2473 18.5184Z" fill="#E0E0E0"></path></g><defs><clipPath id="clip0_235_116"><rect width="36" height="36" fill="white" transform="translate(0 0.5)"></rect></clipPath></defs></svg>